<?xml version="1.0" encoding="utf-8"?>
<!-- Generator: Adobe Illustrator 25.4.1, SVG Export Plug-In . SVG Version: 6.00 Build 0)  -->
<svg version="1.1" id="Calque_1" xmlns="http://www.w3.org/2000/svg" xmlns:xlink="http://www.w3.org/1999/xlink" x="0px" y="0px"
	 viewBox="0 0 221 219.9" style="enable-background:new 0 0 221 219.9;" xml:space="preserve">
<style type="text/css">
	.st0{fill:#FFA500;}
</style>
<path id="path6" class="st0" d="M154.3,190.5c11.2,0.5,18.3-8.1,20.3-19.1c-13.6,6.3-25.3-2.7-28.1-14.1c-4.4,0.9-9.5,1.6-14.9,2.2
	C134.4,172.6,139.9,189.9,154.3,190.5z"/>
<path id="path8" class="st0" d="M47,171.4c2,11,9.1,19.6,20.3,19.1c14.3-0.6,19.9-17.9,22.8-31c-5.4-0.5-10.5-1.2-14.9-2.1
	C72.2,168.8,60.5,177.8,47,171.4z"/>
<path class="st0" d="M110.6,154.9c-11.8,0-22.9-0.6-31.2-1.8c-12.7-1.8-14.4-4.1-14.4-6.3s1.8-4.5,14.4-6.3
	c8.3-1.2,19.4-1.8,31.2-1.8s22.9,0.6,31.2,1.8c12.7,1.8,14.4,4.1,14.4,6.3s-1.8,4.5-14.4,6.3C133.4,154.2,122.3,154.9,110.6,154.9z
	 M69.2,146.8c3.5,1.9,18.8,4.3,41.3,4.3s37.8-2.4,41.4-4.3c-3.5-1.9-18.8-4.3-41.3-4.3S72.7,144.9,69.2,146.8z"/>
<g id="g12">
	<g id="g14">
		<path id="path16" class="st0" d="M43.4,67.1C18.2,62.5-0.3,83.1,0,104.5c0.3,19.2,12.8,34.8,34.5,34c-1.8-10.8,2.5-20.4,10.6-23.2
			c15-5.2,24.4,9.2,27.5,21.5c5-1.1,10.9-2,17.4-2.7C85.8,104.1,71.7,72.2,43.4,67.1z M29.6,100.5l-1.6,9.6l-4.3-8.7l-9.6,1.4L21,96
			l-4.3-8.7l8.6,4.5l6.9-6.8l-1.6,9.6l8.6,4.5L29.6,100.5z"/>
	</g>
</g>
<g id="g18">
	<g id="g20">
		<path id="path22" class="st0" d="M220.7,99.4c-1.8-17.5-18.7-34.9-40-32.3c-31.1,3.9-45.3,36-49.7,67c6.5,0.6,12.4,1.6,17.4,2.7
			c1.8-14.4,18.5-29.9,32.3-19c5.1,4.1,7,12.7,6,21.1C210.4,138.4,223,121.3,220.7,99.4L220.7,99.4z M197.3,100.4l-1.6,9.6l-4.3-8.7
			l-9.6,1.4l6.9-6.8l-4.3-8.7l8.6,4.5l6.9-6.8l-1.6,9.6l8.6,4.5L197.3,100.4L197.3,100.4z"/>
	</g>
</g>
<path id="path24" class="st0" d="M110.6,32C110.6,32,110.6,31.9,110.6,32v-0.1C110.6,31.9,110.6,32,110.6,32
	c3.8,53.3,3.1,96.8,3.1,101.1c4.7,0.1,9.2,0.3,13.5,0.6c0.8-15.4,12.1-38.6,12.1-38.6c13.4-25.5,12.2-38.8,12.2-38.8
	c-0.6-28.5-26.2-43.4-26.2-43.4C117.6,7.4,110.6,0,110.6,0c-0.1,0.1-7.1,7.4-14.7,12.9c0,0-25.6,14.9-26.2,43.4
	c0,0-1.2,13.3,12.2,38.8c0,0,11.2,23.2,12.1,38.6c4.3-0.3,8.8-0.6,13.5-0.6C107.4,128.8,106.8,85.3,110.6,32z"/>
<path id="path26" class="st0" d="M110.8,196.2L110.8,196.2c-2.8-13.7-2.8-31.8-2.8-35.5c-5.1-0.1-9.9-0.3-14.6-0.7
	c-2.9,18.7-13.2,31.4-13.2,31.4c10.5,20.6,30.5,28.5,30.5,28.5h0c0,0,20-7.9,30.5-28.5c0,0-10.3-12.6-13.2-31.4
	c-4.6,0.4-9.5,0.6-14.6,0.7C113.6,164.4,113.5,182.5,110.8,196.2L110.8,196.2z"/>
</svg>
