<svg version="1.1" id="Calque_1" xmlns="http://www.w3.org/2000/svg" x="0" y="0" viewBox="0 0 126.4 85.6" style="enable-background:new 0 0 126.4 85.6" xml:space="preserve"><style>.st0{fill:#f8ac2b}</style><path class="st0" d="M54.5 77.9v5.2c-1.1-2.5-2.3-4.9-4.4-6.8l.6 3.3c-.3-.2-.5-.4-.7-.7-.3-.4-.7-.7-1.1-1.1-.4-.4-.8 0-1.2-.1-1.9-.8-3.6-1.9-5.5-2.9.9-.6 1.7-1 2.4-1.7.4-.4.7-.6 1.2-.8.4-.1 1-.2 1.1-.5.3-.9 1.2-1.4 1.6-2.2.3.3.2.7.7 1 0-.5-.1-.9-.4-1.2 0-.1-.1-.2-.1-.3-.5-1-1.2-1.9-2-2.7-.2-.2-.6-.6-.8-.3-.2.3.3.4.5.6.8.8 1.6 1.6 1.8 2.8-.8.5-1.4 1.2-2 2-.5.6-1 .7-1.7.7-1.6 0-3.2-.7-4.9-.6-.5 0-1-.2-1.5-.4-.2-.1-.4-.2-.5-.4-.4-1.4-1.1-2.7-1.6-4.1-.4-1 .2-2.3 1.2-2.4 1-.1 2.2-.3 3.2-.1.8.1 1.2-.2 1.6-.6.8-.7 1.5-1.5 2.2-2.4.3-.5.5-1 .7-1.5.3-1.3-.2-2.2-1.5-2.6-.8-.2-1.6-.7-1.8-1.5-.4-1-1-1.1-1.9-1h-.8c-1.9.2-3.8-.1-5.7-.5-.5-.1-1.1-.8-1.4.3 0 .1-.2.1-.3.1-.4.1-.7.4-.9.8-.2.4-.5.7-.6 1.1-.4 1.3-.7 2.6.2 3.8.7 1 1.4 2.1 2.1 3.1.5.6.9 1.4 1.8 1.2.2 0 .3.2.3.4.5 1.9 1.6 3.4 2.2 5.3.1.4.2.7.3 1.1 0 .4 0 .8-.5 1-.5.2-1.1.4-1.6-.1-1.2-1.4-2.3-2.9-2.9-4.7-1-2.6-1.8-5.3-2.9-7.8-.3-.6-.3-1.2-.2-1.8.1-1.2.4-2.4.4-3.7 0-3.1.9-6 1.4-9.1.1-.4.2-.8.4-1.1 1.3-2.8 3-5.4 4.3-8.2.3-.4.5-.9.6-1.4.5-1.5 1.1-2.9 1.8-4.2.6-1 .9-2.1 1.3-3.2.3.1.2.6.6.5.2 0 .3-.2.3-.4.3-1 .7-1.9.8-2.9.1-1 1.1-1.5 1.2-2.7.1.6.2 1.1.3 1.5 0 .1.1.3.3.3.2 0 .2-.2.2-.4-.1-.6.3-1 .6-1.5.7-1.2 1.6-2.2 2.3-3.4.4-.7.6-1.5.9-2.3.2-.1.3.5.5 0 .1-.1.1-.2 0-.3.1 0 .1-.1.2-.1 1.1-2 1.8-4.2 2.5-6.4 0-.1 0-.1-.1-.2-.4 0-.4.3-.5.6-.5 1.2-.9 2.4-1.4 3.5-.1.2-.1.4-.3.4-.3.1 0-.4-.3-.4-.7 1.2-.9 2.6-1.7 3.7.1-.8-.2-1.5-.7-2-.1-.1-.3-.2-.5-.1-.1.2.1.2.1.4.5.6.6 1.3.5 2.1-.3 1.6-1.3 2.9-2.2 4.4-.2-1.1-1.2-1.5-1.1-2.6-.2.2-.2.2-.2.3 0 .1-.1.2-.1.2.3 1.2-.1 2.3-.6 3.4-.3.6-.4 1.3-.5 1.9-.2.6-.7 1.4-1.1 1.7-.1 0-.1.1-.1.2l-.3.6c-.4 1.5-1.4 2.8-2 4.2-.1.1-.1.2-.3.2-.8-.1-1.2.5-1.7 1-1.4 1.6-2 3.5-2.2 5.6 0 .3-.1.6.1.9.2.3.1.5 0 .8-.7 1.3-1.5 2.6-1.9 4-.2.9-.8 1.7-.8 2.6 0 .8 0 1.5-.3 2.1-.3.7-.4 1.5-.4 2.2-.2 1.7-.3 3.3-.6 5-.1.6.1 1.3-.3 1.8v1.4c.3.2.5.6.5.9.1.6.3 1.1.5 1.7.8 2.5 1.7 4.9 2.8 7.3.8 1.8 1.8 3.5 3.5 4.6.4.3.9.6 1.3.9.6.4 1.3.7 2.1.7.2.4-.2.6-.3.9 0 .2-.2.4 0 .5.2.1.3-.1.4-.3.2-.3.3-.6.5-.9h.7c.1.2.1.3.4.2 1.1.4 1.6 1 1.4 2.2-.1.4-.1.8.2 1.2l.6-2.7c0-.1 0-.1-.1-.2h.2c.2.1.4.3.6.4 1.5 1 3.1 2.1 4.9 2.5.7.1 1.1.5 1.5 1 .4.7.8 1.4 1.5 1.9.2-.8.1-1.6-.1-2.3 0-.2-.2-.4 0-.5.2-.1.4.1.5.3.5.8 1 1.7 1.3 2.6.4 1.1.8 2.1 1.3 3.2.1.2.2.4.4.4.3 0 .2-.3.3-.4.5-2 .1-4-.1-6-.2-.4-.1-.8-.5-1zM43.5 60c.2.3-.2.5-.3.7-1.4 2.2-3.5 2.7-6 2.3 1.2-2.3 3.2-3 5.5-3.2.3 0 .7 0 .8.2zm-11.3 1.4c-.6-.7-1.1-1.5-1.7-2.2-.2-.3-.3-.5-.1-.8 1 .5 1.3 1.6 2 2.4.2.2.3.6.2.9-.2.1-.3-.2-.4-.3zm.6.5h-.1c-.1-.1-.1-.1 0-.2 0 .1.1.1.1.2zm1.9-1.2c0 .8-.3 1.4-1 1.9.1-1.7-.4-3.1-1.1-4.5-.3-.6-.7-1.1-1.3-1.6-.6-.5-.6-1.3.2-1.5 1.1-.4 2.2-.4 3.3 0l.1.1c.2.2.8-.2.9.4 0 .3-.2.7-.3 1-.6 1.3-.7 2.8-.8 4.2zm1.6-4.7c.1-.5.4-.8 1-.7.9.2 1.8-.1 2.7-.1.4 0 .6.1.7.5.4.8.9 1.4 2 1.9-3.1.3-5.1 1.9-6.4 4.4-.5-.4-.6-.9-.6-1.4 0-1.6.2-3.1.6-4.6zm-1.8-20.8c.2-.8.3-1.7 1.1-2.3 0 .3 0 .6.1.9 0 .6-.5 1.1-.6 1.7-.4.2-.7.1-.6-.3zm1.9 37.7s0 .1 0 0c0 .1 0 0 0 0zm4.8 1.2c-1.4.1-2.8.1-4.1-.6-.3-.1-.6-.2-.7-.5.6.1 1.1.1 1.7-.2.1 0 .3-.1.4-.1 1.6.6 3.3.4 4.9 0h.6c-.8.8-1.7 1.3-2.8 1.4zM98.1 26.8c-.3-1.2-.6-2.3-.5-3.6.1-2.8-.7-5.4-2.4-7.7-.8-1-1.7-2-3.3-1.9-.4 0-.4-.3-.5-.5-.7-1.5-1.4-3.1-2.2-4.6-.4-.7-.8-.9-1.6-.7-.1 0-.2.1-.4 0-1.1-.2-2.1.2-3 .6-1.6.7-3 1.6-4.2 2.9-.3.3-.5.4-.6-.1-.2-.5-.5-1-.6-1.6.4-.2 1 .2 1.1-.3 0-.5-.7-.3-1.1-.4h-.2c-.6-.1-1.2 0-1.7-.5.4-.2.8.2 1.3 0-.2-.1-.3-.3-.4-.3-1.6-.5-3.1-1.1-4.7-1.6-.7-.2-1.4-.1-2.2-.2.4-.1.7-.3 1.1-.4.2-.1.6 0 .6-.3s-.4-.3-.6-.3c-1.7 0-3.3-.6-5-.8-.2 0-.5-.3-.6 0-.1.4.3.5.5.5 1.2.2 2.4.9 3.7.8-.3.8-.1 1 .6 1.1.2 0 .4.1.6.1.8-.1 1.2.6 1.8.8.7.3 1.5.5 2.3.8.2.1.6.1.6.4.1.5.4.7.8.8 1.1.3 1.5 1.2 2 2.1.1.1.1.2 0 .4-.6.9-1 2-1.8 2.7-1 1-1.1 2.2-1.4 3.4-.1.4 0 .9 0 1.3 0 1.1-.5 2-.6 3.1 0 .5.3 1 .2 1.5-.1 2.4-.3 4.8-.2 7.3.1 1.4.1 2.7.7 4 .1.2.1.5.4.4.3-.1.1-.3.1-.5-.2-1.5-.1-1.5 1.2-2.1.2-.1.5-.2.7-.2 1-.1 1.9-.4 2.8-.8 2.1-.9 3.8-2.4 5.4-3.9.1-.1.3-.3.2-.5h-.5c-.6.8-1.5 1.3-2.3 2-1.1 1-2.4 1.8-3.9 2.2-1.4.4-3 .5-4.2 1.8v-.6c.1-3.9.2-7.7.4-11.6.1-1.6 0-3.3.5-4.9.3-1 1.1-1.8 1.5-2.7 1.3-3.2 4-4.8 7.2-5.5 2.4-.5 2.5-.4 3.3 1.7 0 .1 0 .1.1.2.6 1.4 1.2 2.7 2.2 3.8.1.1.1.4.4.2.9-.5 1.2-.5 1.8.2 1.6 1.6 2.5 3.6 2.9 5.8.4 2.2.6 4.5.9 6.8.2 1.4.7 2.9-.4 4.2v.1c.3 2-.5 3.8-.8 5.7-.1 1.2-.6 2.2-1.3 3.1-1.2 1.6-2.4 3.1-4.5 3.5-.8.1-1.5.3-2.2.7-.2-.1-.4-.1-.4.1s.2.2.4.1c.3.2.6.1 1 .1.9-.1 1.7-.3 2.6-.7.6-.3.9-.2.8.5-.1 1-.1 2.1-.1 3.1 0 1.8.1 3.6.6 5.4-.3.1-.3-.2-.4-.3-.4-.6-.7-1.2-1.1-1.8-.1-.1-.2-.4-.4-.3-.3.1-.1.3 0 .5.7 1 1.2 2.2 1.7 3.3.1.2.2.3.4.4.4.7.1 1.4.1 2.1.1 2.3.3 4.5.6 6.7.1.4 0 .9.5 1.2-.2-2.5-.4-5-.7-7.6h.2c.2.5.5 1.1.7 1.6.2.5.4 1.1.8 1.5 0-.6-.2-1.1-.6-1.5 0-.5-.1-1-.2-1.5-1.2-4.3-1.9-8.6-1.7-13 0-.3-.1-.6.2-.9.7-.6 1.2-1.4 1.7-2.1.5-.8 1.5-1.5 1.6-2.5.3-2.4 1-4.8 1.4-7.2.1-.3 0-.7.3-1V27.6c-.1-.1 0-.5 0-.8zm-4.2 30.3c.1.1.1.1.1.2s0 .2-.1.1c0 0-.1-.1-.1-.2 0 .1.1 0 .1-.1z"/><path class="st0" d="M45.6 11.8c.1-.4.6-.5.5-.9-.1-1.1.4-1.8 1.1-2.6.6-.6 1.2-1.1 1.9-1.6 1.6-1.1 3.1-2.4 4.9-3.1.2-.1.3-.3.6-.1.3.3.7 2.3.4 2.6-.5.7-1.1 1.3-1.7 2-.1-.3 0-.4 0-.6.1-.2.1-.5-.2-.6-.3-.1-.4.2-.5.4-.2.4-.2.8-.2 1.2 0 .3.1.6.4.7.2.3.4 0 .5-.2l2.4-3c0 .4.2.5.5.1.5-.5.6-1.2 1.3-1.5 0 .2-.1.3.1.4.3.1.3-.4.5-.4-.1-.2 0-.3.2-.3 0-.5.2-.9.4-1.3.1-.2.1-.3-.1-.5-.2-.1-.3 0-.4.2l-.6.9c-.2.1-.3.2-.3.4-.2 0-.4.5-.5.4-.4-.6-.3 0-.4.1-.2.3-.3.5-.4.6-.6-.2-.3-.5-.1-.9.3-.7 1.1-1.1 1.3-1.9.1-.2.3-.6-.1-.7-.3-.1-.4.2-.5.4-.3.8-.6 1.4-1.1 2-.2-.4-.3-.6-.2-1.1.3-.9.5-1.9.1-2.9h-.2c-.4.7-.3 1.5-.5 2.3 0 .2 0 .5-.2.4-.7-.4-.9.4-1.4.5-.9.3-1.7.8-2.4 1.4-1.1.9-2.2 1.7-3.2 2.6-.7.6-1.4 1.3-1.7 2.3-.4 1.1-.7 2.3-1 3.4-.1.3-.2.7.1 1.2.3-.9.6-1.6.7-2.3zM73.5 37.4c-.5-.9-1.2-1.5-2.1-2-.9-.5-1.8-1-2.8-1.3-1.1-.4-1.9-.1-2.6.7-.5.5-1 1.1-1.4 1.6v.2c-.1-.1-.2-.1 0-.2-.1-.3.1-.8-.3-1.1-.7 1.2-1 2.4-1.3 3.6-.5-.1 0-.4-.1-.6-.1-.1 0-.4-.2-.4-.2-.1-.3.1-.4.3-.3 1.2-.6 2.5-1.1 3.7-.1.2 0 .5.3.3.5-.3 1.1-.3 1.4-.9.1-.3.4-.5.7-.9v.9c0 .3.2.5.3.8.2.5.1 1 0 1.4 0 .3-.6.2-.9.3-.4.2-.8.3-1.2.5-.1.1-.3.1-.3.3.1.2.3.2.4.1.1 0 .2-.1.3-.1 1.3-.8 2.5-.5 3.6.3 1.5.9 3 1 4.7.4.2-.1.4-.3.6-.1.3.5.5.1.6-.1.5-.6.9-1.2 1.2-2 .3-1.1 1-2 1.3-3.1.2-.7.4-1.1 1.2-1.1 0 0 .1-.1.1-.2-.7-.2-1.5-.5-2-1.3zm-8 2.9c-.3-.1-.7 0-.8-.5-.1-.4.4-1 .8-1 .5 0 .8.2.8.7 0 .5-.3.7-.8.8zM78 72c-.3.3-.2.4-.2.6h-.3c-.5-.9-1-1.7-1.5-2.6-.8-1.8-2.1-3.3-3.5-4.7 0 .1.1.2.2.3 1.1 1.5 2.5 2.8 2.7 4.8l.1.1c1.1 1.7 2.1 3.4 2.7 5.3.3 1 .2 2-.3 2.9-.1-.3-.1-.6-.1-.9 0-1 0-1.9-.2-2.9 0-.2 0-.5-.3-.5s-.3.3-.2.5c0 .2 0 .4.1.6 0 .6.2 1.2 0 1.9-.2-.2-.2-.3-.3-.5-1-1.8-2.3-3.6-4-4.9-.8-.6-1.4-1.3-2-2-.8-1-1.6-1.9-2.6-2.6-.4-.3-.4-.3-.8-.1 1.2.9 2.2 2 3.2 3.1.7.8 1 2.2 2.4 2.4 1.8 1.7 3 3.8 4.2 5.8.1.2.2.7-.2.7-.5.1-1.1.2-1.5-.4-.6-.9-1.2-1.9-1.8-2.8-.2-.3-.1-.9-.4-.9-.5.1-.1.7-.2 1l-.1.1c-.9-.8-1.8-1.5-2.8-2-.2-.1-.5-.5-.7-.2-.2.3.3.4.5.6 1.5 1 2.8 2.2 4.1 3.5.2.2.5.3.4.7-.3.1-.5-.1-.7-.1-1.3-.5-2.5-1-3.8-1.3-.9-.3-1.3-.7-1.3-1.7 0-.7 0-1.4-.6-2 .1.9.1 1.7.2 2.4 0 .5 0 .7-.6.5-1-.3-2-.6-3-.6.5.3 1 .5 1.6.6.3.1.6.1.5.5-.1.9-.1 1.8-.3 2.9-.7-1.1-1.3-2.1-2-3-1.3-1.9-1.7-2.4-2.3-2.5 0 .4.2.7.4.9 1.1 1.6 2.1 3.2 3.1 4.8.3.5.8 1 .6 1.7 0 .1.1.2.1.2.8-.2.7.5 1 .8.3.3.6.7.9 1.2.1-.3 0-.5 0-.7-.3-.7-.7-1.4-1.1-2.1-.1-.3-.3-.5-.3-.8.1-1 .2-1.9.2-2.9.1-.7.3-.8.8-.4.3.2.2.4.3.7.1 1.3.1 2.7.4 4 0 .2 0 .5.3.5s.1-.3.1-.5c-.1-1.4-.2-2.8-.3-4.3 1.7.7 3.4 1.4 5 1.9 1 .3 1.9.6 2.5 1.5h.1v-.2c0-.2-.3-.4 0-.6.2-.1.4-.1.6-.1.3.1.1.3.2.5 0 .2 0 .5.1.7-.1 0-.4 0-.3.1.2.3 0 .8.3 1 .2.1.2-.1.2-.3 0-.3-.1-.6-.1-.9-.1-1.4 1.4-2.1 1.6-3.4.1.4.2.8.4 1.1v.1c.2.3 0 .9.5.8.2 0 0-.6-.1-1-.4-2-1.4-4.3-1.8-6.9zm-3.5 7.2s0-.1 0 0c0-.1 0-.1 0 0 0-.1 0-.1 0 0zM85.3 23.8c-.1.1-.1.3.1.4.1 0 .2-.1.3-.2.5-1.1 1.4-1.8 2.3-2.5.2-.2.6-.3.4-.7-.2-.3-.5-.2-.8-.1-.4.1-.9.3-1.5.5.6-1.5 1.6-2.8 2.1-4.2-.6.4-.8.9-1.1 1.5-.1 0-.1-.1-.2-.1.4-.7.8-1.4 1.1-2.1.2-.4.4-.4.6 0 .5.7 1 1.5 1.3 2.4.7 1.8.9 3.8 1.3 5.7.1.5.2 1 .1 1.4-.5 1.2-.2 2.6-.7 3.8 0 .1-.1.3 0 .4.3.5 0 1-.2 1.4-.4 1.4-1.3 2.6-1.8 4 0 .1-.1.2 0 .2.1.1.1 0 .2-.1.7-1.3 1.9-2.4 2-4 .1-.7.5-1.4.7-2.1.1-.2.2-.5 0-.6-.4-.2-.2-.5-.1-.8.1-.5.3-1 .4-1.5.1-.2.2-.4 0-.6-.5-.4-.5-.8-.3-1.4.1-.4.1-.7.2-1.1.2-2-.7-3.7-1.4-5.5-.4-.9-.8-1.7-1.6-2.3-.1-.1-.2-.2-.2-.4 0-.7-.4-.5-.6-.2-.8 1-1.5 2-2.2 3.1-.1.2-.2.3.1.6.2.2.6.8.4 1.2-.4.7-.6 1.7-1.6 1.9-.2 0-.4.2-.4.4.1.2.3.2.5.2.3-.1.6-.2 1-.2.2-.1.5-.2.7 0-.2.3-.5.5-.7.8-.1.3-.2.6-.4.8zM48.7 55c-.1.2-.2.3 0 .5.2.1.3 0 .4-.1 1.2-1.1 2.6-1.6 4.1-2 2.8-.8 5.7-1.5 8.5-2.1.7-.1 1.5-.3 2.2-.5v-.2c-.6-.1-1.3-.1-1.9 0-2.9.3-5.7 1.2-8.5 1.9-1.3.3-2.5.7-3.6 1.4-.5.4-.9.6-1.2 1.1zM63 82c0-.8 0-1.5-.1-2.3-.1-.9-.1-1.8-.4-2.6-.2 1.8 0 3.7 0 5.7-.3-.3-.4-.5-.6-.7-1.5-1.8-3.1-3.6-4.8-5.1-.1-.1-.3-.4-.5-.2s0 .4.2.5c2.2 2.5 4.3 5.1 6.6 7.4.2.2.3.3.7.2-.9-.8-1.2-1.8-1.1-2.9zM62.3 68.7c.1.1.2.3.4.1.1-.1 0-.2-.1-.3-.5-.7-.9-1.3-1.5-1.9-2.9-2.9-6.2-5.3-9.9-7.1-.3-.2-.8-.2-.1-.9-.7.3-.9.4-.9.6 0 .3.3.5.5.6.1.1.3.1.4.2 3.2 1.7 6.2 3.8 8.8 6.3l2.4 2.4zM56.2 78.3c-.9-1.2-1.6-2.5-2.6-3.6-.4-.4-.8-.9-1.4-.9.7.6 1.2 1.3 1.7 2 1.9 3.1 4.2 5.9 5.8 9.1.2.4.4.9 1 .9 0-.5-.2-.8-.4-1.1-1.2-2.2-2.5-4.4-4.1-6.4zM57.2 68.9c.2.1.4.3.5.1.1-.2-.1-.3-.3-.4-.3-.2-.6-.4-.8-.7-2.8-2-5.5-4.1-8.6-5.7-.4-.2-.9-.4-1.2-.5-.2 0-.3 0-.4.1-.1.1 0 .2.1.3.1.1.2.2.4.3 3.1 1.7 5.9 3.7 8.8 5.7.5.1 1 .5 1.5.8zM46.1 53.3c0 .2 0 .3.2.3s.2-.1.2-.2c.6-1.5 1.4-2.9 2.2-4.2 1-1.7 2.1-3.4 3.2-5.1.3-.2.5-.5.5-.9-.4.1-.5.4-.7.7-2.3 2.6-4.1 5.4-5.5 8.5 0 .3 0 .6-.1.9z"/><path class="st0" d="M87.1 27.4c-.3-.3-.5.1-.8.2-.7.4-1.4.8-2.3 1-.1.1-.2.1-.2 0 0 0 .1-.1.1-.2 1.2-1.6 2.3-3.2 3.6-4.8.2-.2.5-.4.3-.7-.2-.2-.5.1-.7.3-.4.4-.7.8-1.1 1.2-.8 1-1.5 2-2.2 3.1-.2.3-.7.6-.2 1 .1.1-.1.2-.2.2-.2.1-.5.1-.5.4.6.2 1.1 0 1.6-.2.7-.3 1.4-.7 2.2-1 .1-.2.7-.2.4-.5zM86.8 28zM85.5 52.3c3.4 2.1 4.7 5.8 6.7 9 .2-.5 0-.8-.1-1.1-.9-2.2-2.1-4.2-3.5-6-.6-.7-1.2-1.4-2.1-1.8-.4-.2-.7-.4-1-.1zM65.4 60.8c-2-1.3-4.3-2.2-6.6-3-1.7-.6-3.5-1-5.4-1.2-.1 0-.2 0-.2.1s.1.1.2.1c4.3.8 8.4 2.3 12.3 4.5 0-.3-.1-.4-.3-.5zM58.4 4.5c0-.1-.1-.1 0 0-.1-.1-.1-.1 0 0-.1-.1-.1-.1 0 0-.1-.1 0-.1 0 0z"/><path class="st0" d="M58.2 4.7c.2.2-.1.5.2.6.6-.8 1.4-1.4 2.4-1.7.2-.1.5-.3.7.1.1.2.3.1.4 0 .7-.4 1.4-.6 2.2-.6.1-.1.1-.2.2-.3-.2-.4-.5-.4-.8-.4-1.8.2-3.6.5-4.9 1.9-.1.1-.1.1-.2.1.1.2 0 .3-.2.3zM88.9 39.2c-1.1 1.6-1.8 4-1.2 4.5.1-1.6.9-3 1.5-4.4.6-1 1-2.2 1.6-3.2.2-.2.5-.5.2-.8-.3-.3-.6 0-.8.2-.6.3-1.1.8-1.7 1-.1-.3.2-.6 0-.8-.2.2-.5.5-.3.7.5.4 0 .4-.2.6-.1.1-.3.2-.2.3.1.2.3.2.5.1.6-.1 1-.4 1.5-.7h.2v.2c-.4.8-.9 1.5-1.1 2.3zM76 65.2c.1.4.4.5.7.7 1.7 1.3 3.2 2.7 4.7 4.2.2.2.4.7.6.4.2-.2-.1-.5-.3-.8-.1-.1-.1-.2-.2-.2-1.2-1.3-2.5-2.5-4-3.5-.4-.3-.8-.7-1.5-.8zM89.9 61.6c.2.6.7.9 1.1 1.4l3.6 4.5c.2.3.5.7 1.1.6-2.1-2.2-3.4-4.8-5.8-6.5zM91.7 57.4c0-1.7-2.7-6.3-4-7 1.7 2 2.7 4.6 4 7zM84.1 68l.2-.2c-1.5-2.6-3.6-4.6-6.2-6.1 1.2.9 2.3 1.8 3.2 2.9 1 1.1 1.9 2.3 2.8 3.4zM48.6 66.7c-.2-.2-.5-.4-.9-.1 1.9 1 2.2 3.1 3.2 4.6-.4-1.7-1-3.3-2.3-4.5zM52.5 69.7c.1 0 .1-.1.2-.1 0-1.3-.7-2.4-1.5-3.4-.2-.3-.5-.6-.8-.8-.1-.1-.3-.1-.4 0-.1.2 0 .3.2.4.9.7 1.4 1.6 1.8 2.7.2.4.3.8.5 1.2zM64.6 36.5zM49.6 10.4c-.2 0-.3.2-.3.3-.1.7-.3 1.4-.2 2.1 0 .2.1.4.3.4.2 0 .3-.1.3-.3.2-.8.7-1.4 1.1-2.1 1-.3 1-1.2 1.3-2-.3.5-.9.6-1.2 1.1-.3.6-.7 1.2-1 1.8h-.1c0-.3 0-.6.1-.8-.1-.3-.1-.5-.3-.5zM86.1 56.1c-.1-.1-.2-.2-.3 0-.2.2 0 .3.1.4.9.8 1.8 1.7 2.4 2.8.2.4.4.8.8 1.1-.1-1-2.2-3.9-3-4.3zM85.2 17.3c.8-.7 1.5-1.5 2.1-2.3.1-.2.3-.3.1-.5-.2-.2-.4 0-.5.2-.7.8-1.3 1.6-2 2.4-.1.1-.3.2-.2.4.2.1.3-.1.5-.2zM43.2 66.8c.7 1 1.1 2.1 1.5 3.3 0 .1.1.2.3.2.2-.1.1-.3.1-.4-.3-.9-.6-1.7-1.1-2.5-.2-.3-.4-.7-.8-.6zM58.2 4.7zM67.7 62.3c-.4-.6-1-.8-1.6-1.1.4.6.9.9 1.6 1.1zM78 70.5c-.1-.1-.3-.3-.4-.3-.5 0-.4.3-.3.6 0 .2.1.3.1.5 0 .1 0 .2.1.3 0 .1.1.3.2.3.2 0 .1-.2.1-.4 0-.1 0-.2-.1-.3 0-.1-.1-.3-.1-.4.1-.1.5 0 .4-.3zM75.5 65.1c.1 0 .2.2.3 0 .1-.1 0-.2-.1-.2-.3-.4-.7-.4-1.2-.4.3.3.6.5 1 .6z"/><path class="st0" d="M93.2 68.7c-1.2-2.5-2.6-4.9-4.2-7.2-.2-.2-.3-.6-.6-.5-.4.1-.3.5-.4.8 0 .4 0 .9-.1 1.3 0 .6 0 1.3-.2 2.1-.7-.9-1.4-1.7-1.8-2.7-.8-2-1.5-3.9-2.6-5.7-.3-.5-.6-1-1.2-1.2-.1.3.1.5.2.6 1.6 2.1 2.4 4.5 3.2 6.9.1.2.2.4-.1.5-.4.1-.2.4-.2.6.3 1.1.6 2.2.8 3.2.5 2.1.8 4.1.5 6.2-.1.3 0 .8-.5.8s-.6-.3-.6-.8c-.2-1.6-.4-3.3-1-4.8-.1-.2-.1-.6-.4-.5-.3.1 0 .4 0 .6.2 1.6.5 3.1.8 4.7-1-.5-1.9-1.2-2.6-2-.7-.8-1.5-1.5-2.4-2-.4-.2-.8-.4-1.3-.4-.2 0-.4.1-.4.3 0 .3.2.2.4.2.4 0 .8.2 1.1.5 2.4 1.8 4.1 4 5.4 6.7.1.2.2.5.5.5-.2-1.1-.7-2.1-1.3-3.1.8.2 1 .7 1.1 1.3 0 .3 0 .8.3.8.4 0 .1-.5.2-.8 0-.2-.1-.5.2-.4.7.1 1.1-.3 1.4-.9.4.6.2 1.4.6 1.9.2 0 .2-.1.2-.2-.2-1.6-.1-3.3-.5-4.9-.4-1.8-.5-3.7-.6-5.6.5.4.8.8.8 1.4-.1 1-.1 2.1-.2 3.1 0 .2-.1.4.2.5.2-1.1.3-2.2.4-3.2.2-.1.2 0 .3.1.6.8 1.4 1.6 2.1 2.3.1.1.3.4.5.1.1-.2 0-.3-.2-.5-.4-.5-.8-1.1-1.3-1.6-1-1.1-1.6-2.2-1.3-3.7.2-.6 0-1.3.3-2.1 1.6 2.4 2.8 4.9 4.3 7.1.1.3.2.8.5.6.4-.2-.1-.5-.1-.8-.1 0-.2 0-.2-.1zM64.1 3.3c-.4.1-.8.2-1.1.4-.2.1-.6.1-.5.4.1.4.4.2.7.2.1-.1.2-.1.4-.2 0 .1 0 .1.1.1s.1-.1.2-.1c-.1 0-.1.1-.2.1-.1.1-.2.2-.3.2-.1.2-.2.5.1.4.5-.1 1-.3 1.5-.4.5-.1 1.1-.2 1.6-.3.7-.1 1.3 0 2.1-.4-.6-.4-1.2-.2-1.7-.2h-1.3c-.2.1-.4.1-.6.1.2 0 .4 0 .6-.1-.2-.1-.3-.1-.5-.2-.2-.3-.6 0-.8 0 0-.2.1-.3-.1-.5-.1.1-.1.2-.2.3v.2zm.6.5zM87.2 49.7c-.1-.2-.2-.3-.3-.2 0 0-.1.1-.1.2.1.1.2.2.3.1 0 .2.2.3.3.4.1 0 .1.2.2.1s0-.1-.1-.2c0-.3-.1-.4-.3-.4zM89.6 61.4v.1z"/></svg>