<svg version="1.1" id="Calque_1" xmlns="http://www.w3.org/2000/svg" x="0" y="0" viewBox="0 0 126.4 85.6" style="enable-background:new 0 0 126.4 85.6" xml:space="preserve"><style>.st0{fill:#f8ac2b}</style><path class="st0" d="M100 22.8c0-1.1-.6-1.9-1.3-2.7-.2-.2-.5-.4-.8-.4-1.2 0-2.4.2-3.6.4-.3.1-.6.1-.7.4-.1.4-.4.4-.7.6-1.3.5-2.6.9-3.7 1.7-1.8 1.3-3.6 2.6-5.6 3.6-.9.5-1.7 1.2-2.2 2-.1.2-.2.3-.4.4-.5.2-.9.6-1.2 1-.8 1.1-1.5 2.3-2.3 3.4-.7 1.1-1.4 2.1-2.3 3.1-.2.2-.4.3-.6 0-.1-.1-.3-.2-.3-.5.8-2.9.8-5.9 1.4-8.8.5-2.7.5-5.5.9-8.3.5-4.4.6-8.8-.1-13.2-.1-1-.3-1.9-.7-2.9-.1-.2-.2-.6-.6-.5-.3.3-.3.6-.2.9 0 1.4 0 2.8-.2 4.2-.6 3.8-1.5 7.6-2 11.4-.4 3.2-1.2 6.4-1.9 9.6-.6 2.5-1.4 5-2.1 7.5 0 .2-.2.4-.2.4-.3-.3-.6.1-.9-.2-.1-.2-.3-.2-.6-.1 0 .2.1.2.1.4-.3 0-.4-.1-.6-.3-.8-.5-.8-.5-1 .1-.1.2-.1.1-.2 0-.2-.1-.3-.2-.5-.3-.2-.1-.4-.1-.5.1v.1l-.1-.1c-.4 0-.7-.1-1 .3-.1.1-.3.1-.4-.1-.3-.4-.5-.8-1-.3h-.1c-1-.2-1.9-.1-2.8.3-.2.1-.3.1-.5 0-.8-.4-.8-.4-1.4.2-.5-.4-.7-.4-1.3 0-.5.4-.5.4-.6-.3-.2-1.8-.4-3.5-.8-5.3 0-.2-.1-.3 0-.5.3-.4.1-.8 0-1.2-1-4-1.3-8.1-2.2-12.1-.7-2.9-.8-6-.9-9-.1-2.3-.2-4.7-.7-7-.1-.3 0-.8-.4-.8-.3 0-.4.5-.4.8-.4 1.9-.7 3.9-.8 5.8-.1 2.5.1 5-.1 7.5v1.8c0 2.2.5 4.4.5 6.6.1 3.9.3 7.7.3 11.6 0 .1.1.3-.2.4-.3-.5-.7-1.1-1-1.7-.8-1.5-1.9-2.7-3.2-3.8l-1.2-.9c-1.2-1.3-2.6-2.5-4-3.6-.8-.6-1.8-1.2-2.5-2s-1.6-1.3-2.5-1.9c-2-1.4-4.1-2.6-6.7-2.6-.5 0-.9.1-1.2.6-.5.9-.8 1.8-1 2.8-.2.8-.3 1.6-.2 2.4 0 .2.1.5.2.5.4-.2.3.1.3.3.5 1.9 1 3.8 2.4 5.3.2.2.2.5.3.7.6 1.6 1.2 3.2 1.9 4.8.5 1 .9 1.9 1.6 2.7.3.3.7.5 1 .8.6.8 1.4 1.5 2.1 2.2.2.2.4.4.7.4.8.1 1.5.5 2.3.9.6.3 1.1.7 1.8.8.8.1 1.4.5 2 .9.3.2.7.5.9.8.1.4.4.7.7 1 .8 1.3 1.8 2.5 1.6 4.2 0 .2 0 .5-.4.3-.2-.1-.5-.1-.6.1-.1.3.2.2.3.3.3.2.5.3.2.7-.3.4-.5.8-.5 1.3-.2 1.5.4 2.9 1.4 3.9.7.7 1 1.4 1.1 2.3.5 3.1.9 6.3.5 9.5-.3 2.5.2 5 1 7.5.1.4.3.8.1 1.2-.4 1.1-.5 2.3-.4 3.5 0 .4.1.8.3 1.2.6 1 1.4 1.8 2.2 2.5.3.3.7.7 1.2.7.7 0 1.2.5 1.9.7h1.1c0-.1.1-.1.2-.1.8-.2 1.6-.3 2.3-.8.2-.1.5-.2.6-.1.7.3 1.2-.1 1.8-.3 1.1-.4 2.2-.7 3.3-1 .8-.2 1.6-.6 2.4-1 .2-.1.5-.2.4-.4-.2-.3 0-.3.2-.4 1.5-1.2 3.1-2.4 4.4-3.8.2-.2.4-.4.7-.5 2.4-1.5 4-3.5 4.5-6.3.1-.4.1-.8.3-1.2.7-1.9 1.1-3.9 1.1-5.9 0-2.9.1-5.8.3-8.7.1-.8.5-1.3.7-2 0-.1.1-.2.2-.1.3.2.3-.1.4-.2.2-.3.3-.7.4-1 .2-1.3.2-2.6 0-3.9-.1-.5 0-.7.4-1.1 1-.9 2-1.6 3.3-2 .5-.2.9-.5 1.3-.8.8-.7 1.7-1 2.8-1.1 1.6-.1 3.1-.7 4.4-1.7.8-.6 1.6-1.1 2.4-1.5.6-.3 1.1-.8 1.4-1.4 1.2-2 2.2-4.2 2.7-6.5s1.4-4.4 1.9-6.6c.1-1.1.2-1.9 0-2.6zm-19.6 8.5c0 .1 0 .1 0 0 0 .1 0 .1 0 0-.1.1-.1.1 0 0-.1.1-.1.1 0 0zm-4.7 6c0-.2.1-.5.3-.6 1.1-1.1 1.9-2.4 2.7-3.7.4-.6 1.2-.8 1.5-1.5l.1.1c-.3.7-.7 1.4-1 2.1-1 2.1-1.9 4.2-2.3 6.5-.2.9 0 1.9-.1 3-.4-.9-.8-1.6-1-2.3-.3-1.1-.4-2.3-.2-3.6zm-5.8-3.5c.7-2.3 1.4-4.6 2-6.9.2-.8 0-1.6.3-2.3 1.1-3 1.5-6.2 1.9-9.3.4-2.8 1.1-5.4 1.4-8.2.1-.8.1-1.7.2-2.6.2.4.2.8.3 1.2.7 4.7.6 9.3-.1 14-.2 1.2-.2 2.5-.2 3.7-.1 2.8-.7 5.6-1.3 8.4-.2.5-.4 1.2-.4 1.9 0 1.7-.4 3.3-.9 4.9 0 .1-.1.3-.2.5-.1-.2-.2-.4-.4-.3-.2 0-.3.2-.2.4 0 .5-.4.7-.6 1-.2.2-.4 0-.4-.1-.2-.5-.9-.3-1.1-.7H70c-.4.2-.5.1-.6-.4 0-.3.3-.9-.6-.7.3-1.6.6-3.1 1.1-4.5zm-2.5 2.5zM49.6 16.2v-5.5c.1-1.6.3-3.2.1-4.8-.1-1.3.2-2.6.3-3.9 0-.2.1-.3.1-.5h.1l.3 3.3c.2 3.9.4 7.9.9 11.8.2 1.5.4 2.9.9 4.3.4 1.1.3 2.3.5 3.4.2 1.3.6 2.6.7 3.9.3 2.7 1 5.4 1.2 8.1 0 .3.1.5-.1.7-.1.1 0 .2.1.3.3.4.2 1.7-.1 1.9-.3.2-.5.3-.7.6 0 .1-.3-.1-.4-.2-.3-.2-.5-.4-.8 0 0 .1-.1.1-.2.1-.2-.4-.8-.3-1-.6-.1-.1-.2-.1-.4-.1-.1 0-.2.1-.3.1-.8.3-.9.2-.7-.6.4-2 .4-4 .4-5.9 0-2.4-.1-4.7-.1-7.1 0-.5-.2-1-.2-1.5.3-2.6-.6-5.2-.6-7.8zm-7 11.1c.9.9 1.7 1.9 2.7 2.6 1.6 1.1 2.6 2.8 3.5 4.4.1.1.1.2.2.3.8.8.9 1.8.6 2.9-.4 1.9-.9 3.7-2.3 5.2-.2-.4-.2-.8-.3-1.1-.5-2-.8-3.9-1.6-5.8-1.2-3-2.3-6.1-4-8.9-.2-.3-.4-.7-.6-1 .7.4 1.2.9 1.8 1.4zM46 40c-.5-.2-.5-.6-.7-.9-.1-.2.1-.2.2-.2s.2-.1.2.1c.1.3.2.6.3 1zm.9 13.4c-.5 0-.7-.3-.7-.8.1-.2-.1-.5.3-.6.4 0 .8.6.8 1.1 0 .4-.2.3-.4.3zm1.1 4.8c-.1-.2-.1-.3 0-.5.7-1.3.5-2.7.2-4.1-.2-.7-.6-1.2-.8-1.9-.2-.8-.5-1.7-.4-2.7.4.3.6.6.7.9.6 1.5 1.2 2.9 1.4 4.5.2 1.1.1 2.3-.6 3.3-.1.3-.2.5-.5.5zM55.3 80c-.7 0-1.4-.2-2.1-.4-.6-.2-1.1-.4-1.4-1 .3-.1.6.1.9.2 1.5.6 2.9.4 4.3-.2.6-.3 1.3-.7 1.7-1.6.1.8.1 1.4-.7 1.7-.4.2-.8.5-1.1.8-.5.3-1.1.5-1.6.5zm43.3-53.1c-.4 1.1-.8 2.2-1 3.4-.5 2.5-1.5 4.8-2.7 7-.3.6-.8 1.1-1.4 1.4-.9.4-1.7 1-2.5 1.6-1.2.9-2.6 1.7-4.2 1.7-.9 0-1.7.4-2.4 1-.7.5-1.4 1-2.2 1.3-1 .4-1.7 1.3-2.5 1.9-.7.5-.6 1-.5 1.6.2 1.5-.2 2.9-.8 4.3-.1.1-.1.3-.3.3-.2 0-.2-.2-.2-.3-.7-1.9-2.3-2.6-4.1-3-.2 0-.3 0-.5-.2-.2-.3-.4 0-.5.1-1.2 1.1-2.3 2.4-3 3.9-.4.9-.7 1.8-.9 2.7-.1.6-.3 1.2.1 1.7.1.1 0 .3 0 .5-.2 2-.1 3.9-.1 5.9 0 .3 0 .7.2 1 .2-.2.2-.4.2-.6 0-1.6 0-3.2.2-4.8.1-1.2.1-2.5 1-3.5.2 1.5 1.3 1.9 2.6 2 .7.1 1.3 0 1.7-.8.4-.6.8-1.2 1-2 .2-.7.1-1.4-.1-2.1-.1-.4.1-.4.3-.3h.2c.5.1 1.1 0 1.4.3.3.3-.1.9-.1 1.3-.3 2.5-.4 5-.3 7.5 0 2.8-.4 5.6-1.3 8.3-.2.5-.4.9-.2 1.5 0 .1-.1.3-.1.5-.7 1.7-1.8 3.1-3.3 4.2-2 1.6-3.9 3.3-5.8 5.1-1 1-2.3 1.3-3.8 1.7 1-1.3 2-2.4 2.6-3.9-.5.2-.7.5-.9.7-.5.6-1.1 1.2-1.6 1.9-.6.7-1.4 1.3-2.1 1.9-.1 0-.1.1-.2.1-.9.4-3.6.4-4.5-.3.1-.2.4-.2.6-.2.6-.2 1.1-.5 1.4-1.1.1-.2.2-.3.4-.3.2-.1.5-.2.4-.5-.1-.3-.4-.1-.6-.1-.1 0-.2.1-.3.1-.3 0-.5-.1-.6-.3-.1-.3.1-.5.3-.5.9-.1 1.5-.7 1.8-1.4.4-.9.4-1.9 0-2.9-.1-.2-.2-.3-.3-.5-.2-.1-.3-.4-.5-.2s0 .3.1.5c.2.2.1.4 0 .6-.3.4-.6.8-1.1 1-.8.3-1.7.8-2.6.8-1.2.1-2.4 0-3.2-1.1-.1-.2-.2-.3 0-.4l.1-.1c.2-.2.6-.5.4-.6-.2-.2-.6.1-.8.3-.2.1-.4.3-.4.6.2.8.1 1.8.8 2.4.2.2.4.5.5.8.2.3.1.4-.3.4-.2 0-.3-.1-.5-.1-.1 0-.4-.2-.4.1-.1.2.1.3.2.4.4.2.6.6.8 1 .5.7 1.2 1 1.9 1.1.2 0 .4 0 .4.2.1.2-.2.3-.3.4-.8.6-1.6.7-2.4-.1-.6-.6-1.3-1.2-1.8-1.9-.3-.4-.4-.8-.4-1.2v-1.8c0-.1 0-.3.1-.4.7-.7.3-1.4.2-2.1-.3-1.4-.7-2.7-.8-4.1-.1-1.1-.1-2.3-.1-3.5.1-3.1-.1-6.1-.7-9.2 0-.2-.1-.3.1-.5 1.6-1.7 1.8-3.7 1.1-5.8-.6-1.6-.9-3.2-2.1-4.5-.3-.3-.4-.8-.6-1.2-1.3-2.5-3.4-4.2-5.9-5.4-1.2-.6-2.5-1.1-3.9-1.3-.2 0-.3-.1-.4-.3-1.2-1.2-2.5-2.4-3.6-3.8-.7-.9-1.2-2.1-1.6-3.2-1.2-3-2.3-6.1-3.7-9-.9-1.8-.7-3.6.1-5.3.1-.3.3-.4.6-.4.5.1 1 .1 1.5.2.2.1.5.2.6-.2l-.1-.1c0-.1.1 0 .1 0 1.6.4 2.9 1.2 4.2 2.1.4.3.8.5 1.1.8.3.2.7.3.7.8 0 .1.2.2.3.3.5.3 1.1.6 1.4 1 .7 1 1.8 1.6 2.4 2.7 1.2 2.3 2.4 4.5 3.2 7 0 .1.1.3.1.4.4 1.5 1.5 2.7 1.6 4.4-.5-.6-1.1-1-1.2-1.8 0-.3-.3-.5-.6-.6-.3-.1-.3-.3-.1-.5.3-.4.4-.9.2-1.4-.1 0-.3-.1-.3-.1.1-.7-.8-1-.8-1.8-.3.5-.4 1-.4 1.4.3.3.4 0 .7-.2 0 .5-.3 1.1.2 1.6.1.1-.1.3-.3.5-.1.2-.2 0-.4 0-.7-.4-1.3-.9-2-1.1l-.6-.3c-.3-.1-.6-.5-1.1-.2l-.4-.2c.1-.2.6.1.3-.3-.3 0-.4-.3-.6-.4-.7-.4-1.6-.5-2.2-1-.2-.2-.5-.3-.7-.5-.3-.4-.5-.1-.7 0-.2.1-.1.4.1.4.6.2.9.7 1.4 1 .2.1.4.6.7.1.1-.1.5.2.7.4.4.6 1.1 1 1.6 1.1.5.1.9.5 1.5.4.2 0 .3.2.4.3.3.2.6.6 1.1.5.1 0 .2.1.3.2.5.7 1.2 1.3 1.9 1.9.1.1.2.2.2.4 0 .8.4 1.5.9 2.1 1 1.1 1.4 2.3 1.5 3.7 0 .3.3.4.4.5.1.1.2-.1.2-.2-.2-.8.3-1.2.8-1.7.6-.6.9-1.4 1.2-2.2.2-.4.3-.7.8-.4.1.1.4 0 .5 0 .2 0 .4.1.5.1.5.1.9.3 1.4.5h.1c.5-.5.8-.1 1.1.2.4.2.6.1.7-.3.1-.4.4-.5.8-.2.2-.7.2-1.4.1-2-.1-.6-.1-1.2.7-1.4.2 0 .3-.3.5-.5.2.1.2.5.5.5s.4-.2.6-.4c.1-.1.2-.2.4-.1.4.3.7.2 1.1.1.3-.1.7-.1 1-.2.2 0 .3.1.4.2.4.2.8.3 1.2.3.2 0 .3-.3.4-.5.5.4 1 .6 1.6.3.1-.1.2 0 .3 0 .2.1.3.2.5 0s.3 0 .4.1c.4.2.7.4 1.1 0 .1-.2.3 0 .4.1.3.1.6.3.9-.1.2-.2.4.1.7.1.2 0 .1.2.1.4-.2.6-.4 1.3-.3 2 0 .3.1.4.4.4h.2c0 .5.2.6.7.6.2.6.7.4 1.1.4.3 0 .4 0 .5.2.3.4.6.4.9 0 .2-.3.6-.1.8-.4 0-.1 0-.2.1-.1.1 0 0 .1 0 .2v.2c0 .1-.1.3.1.3.2.1.2-.1.3-.3.3-1 .6-2 1-3 .1-.2.1-.4.3-.6.4.2.5.8 1 .7.1 0 .1.3.1.4-.2 2.5.6 4.7 2 6.7 0 0 .1 0 .1.1.1-.4.2-.5.5-.1.2.3.4.1.4-.2-.1-.5.3-.4.5-.4.1 0 .3 0 .4.1.4.3.8.1 1-.3.3-.4.8-.6 1.1-1 .2-.2.5 0 .7-.3.3-.5.7-.8 1.2-1 .6-.3.8-.9.9-1.4.1-.2 0-.5.4-.5.3 0 .3-.3.2-.5-.1-.5-.2-1.1.4-1.5.1-.1.1-.3.2-.5.2-.8.5-1 1.3-.9h.3c.3-.5.7-.2 1.1-.2.8 0 1.4-.5 2-1 .2-.2.3-.4.5 0 .2.3.5.1.6-.2.3-.6.8-.9 1.4-.9.3 0 .7-.2.7-.6 0-.1.1-.2.2-.2.5-.2.4-.8.5-1.2.1-.4-.4-.2-.6-.1-.8.4-1.7.3-2.4.9-.1-.3.2-.4 0-.6-.2-.2-.3 0-.5.2l-.6.6c-.1.1-.3.3-.5.3-.7-.1-1.2.3-1.7.6v-.4c-.3-.2-.1-.5-.1-.7-.2-.5.3-.4.5-.5.2-.1.2-.2.1-.4s-.2-.4-.1-.7c.2 0 .5.3.5 0 0-.4 1-.3.4-.9.5 0 1 .1 1-.6 0-.1.5-.5 1-.5.2 0 .5.1.7-.2.2-.3-.2-.4-.3-.7.2-.1.4-.3.6-.1.4.2.6 0 .4-.4-.1-.3-.1-.4.2-.4.4.1.6-.2.7-.6.1-.2.1-.5.5-.3.2.1.4-.1.5-.3.1-.1.2-.4.3-.4 1.1-.1 1-1.1 1.4-1.7.3-.4-.3-.7-.5-1-.2-.3-.4.1-.6.3-.4.4-1 .6-1.4 1-.5.4-1.2.3-1.6.8 0 .1-.1.2-.2.1-.6-.6-.7.1-.9.3-.1.2-.2.6-.3.8-.1.2-.1.3.1.4.2.1.3 0 .4-.1.5-.6 1.1-1.1 1.9-1.3.1 0 .2-.1.3-.3 0-.1.1-.2.1-.2.7.1.9-.7 1.5-.8.1 0 .2-.2.3-.1.1.1.2.3.1.4-.2.3-.4.6-.7.8-.5.4-1.3.5-1.5 1.3 0 .1-.1.3-.4.2-.3-.1-1 .3-1.1.6-.1.3-.2.4-.5.3-.5-.1-.6.2-.7.6 0 0 .1.1 0 .1 0 .1-.1 0-.1 0-.3.1-.8-.1-.7.5 0 .2-.1.2-.2.2-.2 0-.5-.1-.6.2-.1.3.3.3.4.6-.5-.1-.9-.1-1.2.3-.2.4-1 .6-.7 1.3v.1c-.6 0-.6.7-1.1.9-.4.1-.3.4.1.8-.5.4-.4.6 0 1 .7.7 1.2.3 1.7-.1s1-.4 1.5-.6c.2-.1.2.1.4.2.5-.2 1-.5 1.6-.8-.1.5-.5.6-.7.9-.3.4-.6-.1-.9 0-.3.3-.7.5-1 .8-.5.3-.9.4-1.5.4s-1.3.3-1.9.4c-.3.1-.8.5-.9 1.1 0 .1 0 .2-.2.2-.7-.1-.6.4-.7.8v.7c0 .5 0 .9-.5 1.2-.2.1-.3.4-.4.7-.1.3-.2.7-.7.7-.1 0-.2.2-.3.3-.2.2-.2.6-.6.3-.1-.1-.3.1-.4.2-.2.3-.3.7-.6.9H80l.1-.1c0-.2.1-.4-.2-.5-.3-.1-.5.2-.5.4.1.7-.7.6-.8 1.1h-.2c-.3-.1-.6 0-.9.1-.3.2-.5.1-.5-.3.2-3.2.8-6.3 2.5-9.1.7-1.2 1.1-2.5 1.8-3.6.8-1.2 1.7-2.3 2.5-3.5.2-.3.4-.4.7-.5 1.5-.8 2.9-1.8 4.3-2.8 1.2-.9 2.6-1.6 4.1-2.1.4-.1.8-.3 1.1-.5 1.1-.8 2.4-.7 3.6-.8.2 0 .4.1.5.2.6.7.9 1.5 1 2.4.4 1.6 0 2.8-.5 4zM71.7 52.7c-.3.5-.9.9-1.3 1.4-.5.6-.8 1.2-.9 1.9 0 .4-.4.7-.5 1.1-.1-.3 0-.5 0-.8.6-2.3 1.5-4.5 3.2-6.2.4-.4.8-.6 1.3-.5 1.5.3 2.9.9 3.7 2.3 0 .1 0 .1.1.2-.7-.2-1.4-.3-2.1-.4-.6-.1-1.3-.1-1.9 0-.6.2-1.2.3-1.6 1zm1.4 1.3c-.1.7-.5 1-1 1.3-.5.3-.9.1-1.3 0-.1 0-.1-.2-.1-.3.3-.7.7-1.3 1.3-1.8.2-.1.4-.2.6 0 .3.2.5.5.5.8z"/><path class="st0" d="M52.6 57.2c-.4-.6-.6-.6-.9 0-.4.7-.7 1.3-1.3 1.9-.2.2-.3.4-.6.3-.4-.2-.3.1-.2.3.1.3.3.6.4 1 .7 2.4 1 4.8 1.1 7.2.1.9-.1 1.8.1 2.9.6-1.3.8-2.4 1.2-3.6.4-1.1.5-2.2.8-3.3.3-1.5.7-2.9.2-4.4-.2-.8-.3-1.6-.8-2.3zm.1 1.5s0-.1 0 0c0-.1 0 0 0 0zM52 57c.3.5.7 1 .6 1.6-.3-.3-.5-.5-.7-.8-.2-.3.1-.5.1-.8zm-.2 9.3c-.2.1-.3-.1-.3-.2 0-.2-.2-.5 0-.8.2.3.3.4.4.6.1.2.1.3-.1.4zm.3-1c-.3-.8-1.2-1.4-1-2.4.3.2.3.6.5.9.2.2.3.6.7.6.1.3-.1.6-.2.9zM51 62.9s0-.1 0 0c.1 0 .1 0 0 0 .1 0 0 0 0 0zm1.5 1.1c0 .1 0 .3-.2.4-.2-1.3-1-2.3-1.6-3.4-.2-.3-.3-.5-.4-.8 0-.1-.1-.2 0-.3.1-.1.2 0 .3.1.3.3.5.6.7 1 .4.6.8 1.3 1.3 1.9.3.4-.1.7-.1 1.1zm.4-1.5c-.7-1.1-1.2-2-2-2.8-.2-.2 0-.3.1-.4.1-.1.2-.1.3 0 .6.9 1.1 1.8 1.7 2.8 0 0 0 .1-.1.4zm-1.5-3.9c-.1-.1 0-.2.1-.3.1-.1.1-.1.2 0 .5.8 1.3 1.5 1.3 2.6-.5-.8-1-1.6-1.6-2.3zM66.5 56.7c-.1 0-.2 0-.2.1-.3.7-1 .9-1.5 1.3s-1 .9-1.6 1.2c-.2-.1 0-.4-.2-.4-.3.2-.3.6-.3.9-.1.9 0 1.8.1 2.7.1 1.1.7 2.2.4 3.4 0 .1 0 .3.1.3.4 0 .3.3.4.5.3.8.6 1.7 1.1 2.3.1.1.1.3.4.3.2-.1.2-.3.2-.4v-.2c.2 0 .2.5.5.3.2-.1 0-.4 0-.6-.2-1.3-.5-2.6-.4-4 .1-2.6.1-5.1 1-7.6.1.1.1 0 0-.1zM64 59.4c-.1 0-.1 0 0 0-.1 0-.1 0 0 0zm-.8 1.5c-.4-1-.3-1.2.7-1.5-.2.5-.5 1-.7 1.5zm.9 3.7c.4-.9.7-1.8 1-2.7.1 1.5-.2 3-.8 4.4-.3-.6-.4-1.1-.2-1.7zm.7 3.2c-.5-.7-.1-1.2.1-1.9.2.7.3 1.3-.1 1.9zm-.1-6.4c.2-.4.4-.9.6-1.3.1.5.1.5-.6 1.3zM63.5 63c-.4-.7-.3-1 .5-2.8.4-.9.9-1.8 1.9-2.3-1.1 1.6-1.8 3.3-2.4 5.1zM38.6 28.3c.1.5.2.6.6.3 0 .1.1.1 0 .2 0 .2.2.4-.1.5-.3.1-.4 0-.6-.2-.1-.1-.2-.2-.4-.2-.2-.1-.4-.1-.4.1-.1.2.2.2.2.3.4.5 1.1.7 1.1 1.5 0 .2.1.4.3.5.3.1.2-.3.4-.3l.6.9c.3.4.9.5.9 1.1 0 .2.3.2.5.2.1 0 .2-.2.2-.3-.2-.6-.1-1.3-.3-1.9-.2-.9-.3-.9-1.1-.7 0-.3-.1-.6-.2-.9 0-.2-.2-.4-.5-.3v1c0 .2.1.4-.2.5-.1 0-.2 0-.2-.1 0-.2-.3-.6-.1-.7.4-.2.2-.5.3-.8-.2-.3.1-1-.7-.7 0-.6 0-1.2-.4-1.7-.1-.1-.1-.3-.3-.2-.1.1-.1.2-.1.3.4.5.4 1.1.5 1.6zm2 2.5c.1-.3.3-.2.5-.3.2-.1.2.1.2.2v1.2c-.3-.3-.3-.7-.7-.9-.2.1 0-.1 0-.2z"/><path class="st0" d="M31.4 23.2c.4 0 .2-.5.3-.8.4.4.4.9.6 1.4.1.2.1.5.4.5.3 0 .1-.3.2-.5l.1-.1c.1.3.1.6.2.9.1.3.3.6.5.1 0-.1.1-.2.2-.1.1.2.2.4.3.7.1.2.3.4.5.2.5-.4.4 0 .4.2.1.4 0 .8.5 1 .4.1.6-.3.8-.5.4.3.1 1.4 1.1.9 0 .3 0 .5.1.8 0 .1.1.3.2.3s.3 0 .3-.1c.1-.1.2-.3.1-.5-.2-.2-.2-.4-.3-.7-.1-.2-.2-.4-.4-.4-.4.1-.4-.2-.5-.4-.2-.5-.6-.6-1-.4-.4.3-.5.1-.5-.3-.1-.3-.1-.7-.6-.7-.4.1-.4-.1-.5-.4-.2-.6-.4-.6-.9-.3-.1-.2-.2-.7-.4-.6-.6.1-.5-.3-.6-.6-.2-.3-.3-.7-.7-.6-.3.1-.3-.1-.4-.3-.1-.4-.3-.8-.9-.8.4.4.4.9.5 1.3.2.3.1.8.4.8z"/><path class="st0" d="M34.8 28.4c.3-.1.2-.3.1-.5-.2-.4.1-.5.4-.6.4-.1.4.2.5.4.1.2.1.4.1.6.1.3.3.6.7.3.3-.2.2.1.3.2.1.3.2.7.4 1 .1.1.2.2.4.1s.2-.2.1-.3c-.2-.5-.4-.9-.7-1.4 0-.1-.2-.2-.3-.2-.6.3-.5-.2-.7-.5-.3-.7-.4-.8-1.2-.5-.1 0-.3.2-.3 0-.2-.4-.7-.5-.8-.9-.2-.4-.6-.6-1-.8-.2-.1-.4.1-.5 0-.4-.5-1.2-.5-1.6-1.2-.1-.1-.2-.4-.4-.2s0 .3.2.5c.8.7 1.7 1.2 2.3 2 .1.1.2.2.3.1 0-.2-.1-.3-.1-.4 0 0-.2-.1-.1-.2h.2c.6.2.4 1.1 1.1 1.3 0 0 0 .2.1.3 0 .2.1.3.2.5 0 .2.1.4.3.4zM84.7 32.9c-.8-.4-1.6.2-2.3-.5h-.1c-.2 0-.3 0-.4.1-.1.1 0 .2.1.3.1.1.3.2.3.3 0 .8.1 1.5.2 2.3 0 .1 0 .2-.1.3-.7.5-.7.6-.3 1.3.1.2.2.5.4.4.2-.1.5-.3.4-.7-.1-.3-.2-.6-.3-1 .5 0 .5-.3.5-.6-.1-.5-.3-1.1-.2-1.6.3 0 .6.4.7 0 .1-.3.3-.2.5-.2.3 0 .6.1.7-.2.4-.6.2-1.3.1-2.1-.3.7-.3 1.3-.2 1.9zM40.8 32.9c-.1-.1-.2-.3-.5-.3s.1.3-.2.4c-.5-.4-1.1-.8-1.8-.8.1.4.5.5.7.8.6.3 1.2.5 1.7.7.3.1.7 0 1.1.1.3.1.3-.2.4-.4-.1 0-.1-.1-.2-.1-.4.3-.8 0-1.2-.4zM81.8 39.3c-.2-.1-.3.1-.3.2-.3.4-1 .4-.9 1.2l-.2.1c-.1.1-.2.2-.3.4-.1.1-.1.3.1.4.1.1.2 0 .3-.1.1-.1.2-.1.3-.2.6-.3.9-.9 1.3-1.3.1-.1 0-.2.1-.2-.2-.3-.3-.4-.4-.5zM88.1 26.9c-.3 0-.3.3-.3.5 0 .1 0 .2-.1.3-.5.3-.4.9-.5 1.3 0 .1-.1.3.1.4.2.1.3-.1.3-.3.1-.2.1-.4.1-.5 0-.1 0-.3.1-.3.6 0 .4-.5.5-.8.1-.2.1-.5-.2-.6zM54.2 74.6c-.1.1-.3.2-.2.4.1.2.2.2.4.2.7-.2 1.5-.3 2.2.1.1.1.3 0 .3-.2 0 0-.1-.1-.1-.2-.5-.4-2.1-.6-2.6-.3zM86.4 28.6c-.2 0-.2.2-.3.4 0 .3.1.7-.1 1 0 .3.1.5.1.8.2.2.4 0 .4-.2.2-.5.2-1.1.1-1.7.2-.2.1-.4-.2-.3zM85.6 29.7c0 .5-.6.6-.6 1.1 0 .2 0 .3.1.5s.3.3.3.1c.1-.3.4-.3.5-.5V30c0-.2-.3-.4-.3-.3zM82 37.6c-.3 0-.3.6-.4.9-.1.4.6.2.8.4.1.1.2-.1.2-.3-.2-.3-.2-.9-.6-1zM90 26.1c-.3 0-.3.3-.4.5v.3c0 .2 0 .4.2.5.3.1.3-.2.4-.4 0-.1.1-.2.1-.3 0-.2.1-.6-.3-.6zM89.1 26.5c-.3 0-.2.3-.3.6.1.2-.1.5.3.5.3 0 .3-.3.3-.5 0-.3.1-.6-.3-.6z"/></svg>