<svg version="1.1" id="Calque_1" xmlns="http://www.w3.org/2000/svg" x="0" y="0" viewBox="0 0 126.4 85.6" style="enable-background:new 0 0 126.4 85.6" xml:space="preserve"><style>.st0{fill:#f8ac2b}</style><path class="st0" d="M38.5.8c.5.2 1 .6 1.4.9 1.2.9 2.4 1.7 3.8 2.3.9.4 1.8.9 2.5 1.5 1.5 1.3 3.2 2.2 5.1 2.6.9.2 1.7.3 2.5-.3.2-.1.4-.3.5.1.2 1.2 1.1 2.1 1.2 3.2-.4.1-.4.3-.2.6.3.6.6 1.1.9 1.7.2.3.2.8.7 1.1.1-.9-.4-1.6-.8-2.2-.2-.3-.3-.7-.3-1.1v-.4l.1-.1c.2.2.3.4.6.4.1-.1.1-.2 0-.3-.9-.9-1-2.1-1.2-3.3 0-.3-.1-.5-.2-.8 0-.2-.1-.4-.3-.4-.2 0-.2.2-.3.4 0 .5-.4.6-.7.4-.4-.2-.6 0-.9.1-.2.1-.5.2-.8.1-2-.5-3.8-1.3-5.4-2.5-1-.8-2.1-1.4-3.3-1.9-1.8-.8-3.3-2-5-2.9h-.3c-.1.3-.5.1-.5.4.3.3.7.3.9.4zM29.4 43.8c.2-.2.4-.5.2-.8-.2-.3-.5.1-.8 0 .6-1.4 1.4-2.7 1.3-4.3-.1-.9.4-1.7 1.1-2.3.2-.2.6-.4.3-.7-.3-.4-.6 0-.8.2-1.5 1.2-2.5 2.7-3.4 4.3-.1.1-.2.3 0 .4.1.1.2 0 .3-.1.5-.4.9-.9 1.4-1.3l.1-.1v.2c-.2 1.1-.8 2.1-1.1 3.2-.3 1.4-1.2 2.4-2.2 3.2v.2c.2.2.6-.1.8.1 0 .3-.3.5-.3.9.3-.1.6-.2.8-.5 1-.9 1.7-1.7 2.3-2.6zM37.3 60.8c0-.1 0-.1 0 0 0-.1 0-.1 0 0 0-.1 0-.1 0 0zM30.4 35.8c.2-.2.4-.4.6-.5 1.9-1.3 2.8-3.5 4.5-5 1.3-1.1 2.3-2.7 3.3-4.1.7-.9 1.5-1.5 2.6-1.8v.3c-.1.3-.3.7.1.9.4.2.7-.1.9-.4.9-.8 1.8-1.7 2.7-2.5.3-.3.4-.5.8-.1.5.5 1.1.2 1.4-.4.2-.4.4-1 1.1-.9.7 0 1.4-.2 2-.6 1.5-.8 2.9-1.6 4.4-2.5 1.6-.9 1.8-1.4 1.4-3.2 0-.2-.1-.4-.3-.4-.2 0-.3.2-.3.4 0 .4-.1.9-.1 1.3s-.1.7-.4.9c-1.8 1-3.6 2.1-5.4 3.2-.3.2-.6.4-1 .3 0-.1 0-.2.1-.2 2.3-4.5 1.2-8.8-2.9-11.8-.2-.2-.4-.3-.6-.5-1.6-1.7-3.2-3.2-5-4.6-.7-.5-1.4-.7-2.2-.9-.2-.1-.6-.1-.7.1-.1.3.3.4.5.5.6.3 1.3.4 1.8.8 1 .9 2.1 1.8 3.1 2.9 1.2 1.2 2.4 2.4 3.5 3.6.4.4 1 .5 1.2 1 .8 1.4 1.3 2.8 1.4 4.4.2 2.3-1.3 4.1-2.3 6-.1.2-.3.3-.5.1-.6-.8-1-.3-1.3.2-.6.8-1.4 1.3-2.2 1.7l-.1.1c0-.1 0-.1.1-.2.4-1.1.4-2.3.5-3.5.1-1.1.3-2.1 0-3.3-.2-.9-.3-2 0-3 .1-.3.2-.6-.4-.8-.3-.1-.5-.6-1-.6-.1-1.2-1.1-1.4-1.8-1.9-.3-.2-.7-.5-.6-1 .4-1.2.4-1.3-.5-2.1-.3-.3-.5-.6-.7-.9-.1-.1.4-.3.6-.6.1-.2.3-.4.1-.6-.2-.2-.4-.1-.6 0-.5.3-1 .7-1.5 1-.2.2-.4.4-.2.6.5.5.2.9.1 1.4-.2.8-.2 1.7.1 2.5.5 1.3 1.1 2.5 1.6 3.8.1.2.2.4.7.4-.8-.9-.6-1.8-.2-2.6.1-.2 0-.7.5-.4.3.2.7.2.5.8-.3.8-.6 1.6-.5 2.5h.4c.4-.7.4-1.6.7-2.3 1.2.7 1.2.7.9 2l-.6 2.7c-.1.5-.4 1 .4 1.3.4.1.2 1-.3 1.3V20.3c-.3-1.1-.4-2.3-.9-3.3 0-.5-.8-.9-.2-1.5h-.4c-.2.1-.4-.3-.6-.1-.1.2 0 .4.1.5.3.4.4 1 .8 1.3.1 1 .4 2 .7 3v.1c0 .1 0 .1.1.2s.1.2.2.3c.2.6.5 1.1.9 1.5.4.5.3.8-.4 1-1.7.6-3.2 1.3-3.9 3.2-.1.2-.2.6-.6.5-.4-.1-.3-.5-.3-.8.3-2.8 0-5.5-.4-8.2-.4-2.5-1.1-4.9-1.3-7.3-.3-3.2.1-6.3 1.7-9.1.3-.4.6-.9.9-1.4-.5 0-.7.3-.9.5-.5.7-1 1.3-1.3 2.1-1.3 3.3-1.5 6.7-.9 10.2.3 1.7.5 3.3.9 5 .7 2.8.5 5.7.4 8.6 0 .3-.2.8.1 1 .5.5.2.8 0 1.2-.3.5-.6.9-1.2 1.2-.6.3-1.1.7-1.7 1.1-.2.1-.5.4-.2.6.6.4.2.6-.1.9-.6.7-1.3 1.4-2 2-.2.2-.4.3-.5.5-.2.2-.5.5-.2.7.4.4.6.1.8 0zm8.3-24.1c-.2.5-.2 1.1-.6 1.5-1-1.6-1.5-3.2-1-5 0-.1-.1-.4.2-.4.2 0 .2.2.3.3.4.6.2 1.3 0 1.9-.1.7 0 1 .7 1 .5.1.6.3.4.7zm2.6 7.2c.3-1.6.6-3.1.9-4.7h.2c0 1.7-.5 3.2-1.1 4.7zm.8 2.1h.2c-.1.4-.2.7-.3 1.2-.7-.5 0-.8.1-1.2zm-.6 3.3c-.1 0-.1 0 0 0-.1 0-.1 0 0 0-.1 0-.1 0 0 0zM68.8 41.7c.1.2.4.1.6 0 .3-.2.6-.3.9-.5 1.6-1.3 3.5-1.1 5.3-.8-.7.3-1.4.1-2.1.1-1.5-.1-3.6.8-4 2.9-.2 1-.4 2-1.1 2.8-.1.2-.2.3 0 .5.1.2.3.2.5.1s.4-.2.7-.3c.8-.4 1.6-.9 2.5-.7.3.1.6 0 .7-.2.3-.6 1-.7 1.5-1 .8-.4 1.4-1 1.8-1.8.2-.4.5-.7.7-1.1.7-.8.6-1.4-.4-1.8-3.1-1.1-5.4-1-7.6 1.3.1.1-.1.2 0 .5zm5.1 1.6c-.7.4-1.4.6-2.2.6-.6.1-.6-.7-.9-1.1-.3-.5.2-.7.5-1 .3.7.6 1.4 1.5 1.2.8-.2.8-.9.7-1.7.4.1.9-.1 1 .4.1.6 0 1.3-.6 1.6zM48.2 41.8c.7 1.3 1.8 2.1 3.3 2.4.3 0 .5.2.7.3.5.4.6.9 1 1.4.3.4.7.5 1.1.4.2 0 .3-.4.2-.5-.4-1.4-.2-2.8-.3-4.2-.1-1.1-.5-2.1-1.7-2.4-1.2-.3-2.4-.3-3.6-.1-.4.1-.7.2-.9.6.2.1.3.1.5.1 1.2-.3 2.4-.2 3.6 0 1.1.2 1.5.7 1.5 1.9-.9-.9-1.8-1.8-3.2-1.6-.9.1-1.7.3-2.6-.1-.1-.1-.3 0-.4.1-.1.2 0 .3.1.4.1.5.4.9.7 1.3zm4.7.9c.2.1.2.4.1.6-.3.5-.7 0-1 0 .4 0 .4-.8.9-.6zm-3.4-1.2c0-.2.1-.5.3-.6.4-.1.8-.1 1.1.1.2.1.1.2 0 .3-.4.7-.3 1.3.5 1.9-1.5-.2-2-.8-1.9-1.7zM82.1 67.7h-.2c-.3.8-1.1.4-1.6.6-2.6.7-5.2 1.7-7.8 2.5-.1 0-.2 0-.2.1l-.2.2c0 .1.1.2.2.2.2 0 .5 0 .7-.1 1.6-.3 3.1-.8 4.6-1.3.8-.3 1.6-.6 2.6-.9-.2.5-.3.8-.5 1.2-.1.2-.1.6-.5.5-.3-.2-.1-.4.1-.6.1-.1.2-.2.1-.3-.1-.2-.3-.1-.4 0-.3.3-.6.7-.7 1.1-.1.6-.5.8-1 1-2.5.8-4.9 1.6-7.3 2.6-.4.2-.8.2-1.2.6.3.2.5.1.7 0 .8-.2 1.6-.4 2.4-.7 1.6-.5 3.1-1 4.7-1.5-.2.7-.2 1.5-1.1 1.9-.7.4-1 1.3-1.5 2-.4.7-.8 1.3-1.3 2.1-.4-.9-.4-.9-1.1-1.4v-.2c-.1-.2-.1-.4-.2-.6-.1-.1-.1-.4-.3-.3-.2.1-.1.2-.1.4.3 1.6.6 3.2.8 4.9 0 .1.1.2.3.1.1-.8 0-1.7-.1-2.7.6.3.4 1 .9 1.2.1-1.8 1.7-2.7 2.4-4.1.3 1.3-.6 2.4-.4 3.8.6-.6.6-1.4.9-1.9.3.1.3.6.7.6 0-.5-.1-.9-.3-1.3-.5-1.2.3-2.1.6-3.1.1-.3.6-.4 1-.3 0 .3-.1.6.2.8.5-.7.1-1.8.8-2.5.3.3 0 .6.3.8.4-.6.7-1.3 1.5-1.5l.1-.1c.3-1.2.9-2.2 1.4-3.3.1-.3.1-.4 0-.5zm-1.9 3.5c-.1 0-.1-.1-.2-.1.4-.9.7-1.7 1.1-2.6.1 0 .1.1.2.1-.3.9-.7 1.7-1.1 2.6zM69.6 12.2c.3.1.5-.3.7-.6.1-.3.3-.7.4-1 .3-.9.5-1.8.8-2.9.1 1.2.1 2.2.2 3.2 0 .3.1.5.4.6.4.1.5-.1.6-.4.5-1.1.6-2.3.7-3.5 0-.2 0-.4-.2-.4-.3 0-.2.2-.2.4 0 .7-.2 1.4-.5 2.1-.2-.3-.1-.6-.1-.8-.1-.8 0-1.6-.2-2.3 0-.2-.1-.3-.3-.4-.2 0-.2.1-.3.2-.2.8-.6 1.5-.8 2.3-.1.6-.3 1.2-.5 1.8h-.2V7.1c0-.2.1-.5-.2-.5-.2 0-.3.3-.3.5 0 1.4-.1 2.9-.1 4.3-.2.3-.2.7.1.8zm2.5-2.2s.1 0 0 0c.1.2.1.3.1.4h-.1V10zm-2.2.8s0 .1.1.1c0 .1-.1.1-.1.2 0-.1-.1-.1-.1-.2l.1-.1zM72.6 12.1c-.1.1-.2.1-.3.2-.6.9-1 2-1.3 3 0 .1 0 .3.1.4.3.2.2.5.2.8-.2 1.4.5 2.5 1.7 3.1 1.3.6 2.4 1.5 3.7 2.2.5.3 1 .5 1.5.7.2.1.5.2.7-.1.1-.3-.1-.4-.3-.6-1.3-.8-2.7-1.7-4.2-2.3-.7-.3-1.3-.7-1.8-1.3-1.2-1.5-.9-3.6.5-4.8.2-.1.5-.5.3-.6-.5-.1-.2-.7-.8-.7zM30.6 49.5c-.1-.2-.3-.2-.5-.2-.4.2-.8.4-1.5.6.4-.9.5-1.7 1.1-2.3.4-.4.1-.5-.3-.6l-.1.1c-.1-.1 0-.1 0-.2.3-.4.2-.9.3-1.3 0-.2 0-.3-.1-.4-.2-.1-.3-.1-.4 0-1 .9-1.7 2.1-2.1 3.5.4 0 .4-.4.7-.3.2.3-.2.9 0 .9.8-.1.3.5.3.7.1.6-.4 1-.8 1.3-.2.2-.6.4-.4.7.2.3.6 0 .8-.1l2.7-1.8c.3-.3.4-.4.3-.6zM96.6 38.7c.1.2.3.3.6.5h-.6c-2.1 0-4.1.4-6.2.7-.2 0-.5 0-.5.3s.3.2.5.2c.4 0 .8 0 1.1-.1 1.3-.2 2.7-.3 4-.5 1.3-.2 2.5-.8 3.8-.4l.2-.2c-.8-.8-1.9-.8-2.9-1.1-.1 0-.2.3 0 .6zM67.5 13.3c0 .1 0 .1.1.3.2-.1.3-.2.3-.3.5-2.1 1-4.1.9-6.2 0-.2.1-.6-.2-.6-.4 0-.3.4-.3.6-.1.8-.2 1.6-.5 2.5-.2-.9-.4-1.7-.6-2.4-.1-.2-.1-.7-.5-.6-.3.1-.1.5 0 .7.4 2 1.2 3.9.8 6zM34.6 57.3c-.1-.4-.6-.3-.9-.2-.2 0-.4.1-.5.1-.4.1-.8.5-1.4.4.5-.6.9-1.1 1.4-1.7.1-.1.3-.3.2-.5-.2-.2-.4-.1-.6 0-.7.4-1.1 1.1-1.5 1.8-.3.6-.1 1.4-.6 1.9v.2c.2.2.3 0 .4 0 .9-.5 1.8-1 2.8-1.4.3-.1.8-.1.7-.6zM86.8 6.5c-.2 0-.3-.1-.4 0-1.6.3-3.1.9-4.1 2.3-.4.6-.9 1.1-1.5 1.5-.6.4-1.3.8-1.3 1.7-1.5 1-2.5 2.5-2.8 4.3-.1.5 0 1 .5 1.3.3.2.6.4.5.7-.2 1.2.9 1.9 1 3 0 .3.4.6.8.3.3-.2.2-1.8-.2-2-.7-.3-1.1-.8-1-1.6 0-.3-.1-.5-.4-.6-.8-.2-.6-.7-.3-1.2.3-.4.6-.8 1-1.2.1-.2.4-.3.2-.5-.4-.4 0-.5.2-.7.7-.6 1.4-1.2 2-1.8.1-.1.3-.2.2-.4-.1-.2-.3-.1-.5 0 0-.4.4-.5.6-.7.4-.3.9-.4 1.1-.8.8-1.5 2.3-2 3.7-2.8.1-.3.5-.3.7-.8zM64.8 37.8c0 2.2.3 4.4 1 6.4.1.4.3.8.7 1 .2-.1.2-.2.2-.3-.6-2.4-1-4.7-1.4-7.2 0-.2.1-.6-.3-.6-.2.2-.2.5-.2.7z"/><path class="st0" d="M69.9 79.2c-.4-.3-.4-.6-.5-.9-.2-.4-.4-.7-.7-.9-.1-.1-.3-.1-.4 0-.2.1-.1.2 0 .3.8 1 1 2.3 1.3 3.5.2.7.3 1.4.7 2.1.4-2.7.2-5.6-.4-6.4v2.3zM58.5 37.1c.1 2.8-1.1 5.1-2 7.5 2-1.8 3.3-6.2 2-7.5zM64.2 82c-.1-.3-.1-.4-.2-.6-.2-.5-.3-1-.8-1.4-.2-.2-.5-.2-.6 0-.2.2.1.3.2.4.3.3.4.6.5 1 .2.7.3 1.4.3 2.2 0 .2-.1.5.3.5.3 0 .2-.3.3-.5V82c.3.6.3 1.3.8 1.8.1-1.7-.3-3.1-.4-4.6-.5.8-.2 1.7-.4 2.8zM51.8 36.5c.2-.1.5-.1.6-.4 0-.2-.2-.3-.4-.3-1.4-.3-4.4 1.1-5.2 2.4-.1.2-.3.3-.1.5.2.2.4 0 .6-.1l1.8-1.2c.8-.5 1.7-.7 2.7-.9zM62.2 10.2c0 .2 0 .5.4.5.1-1.2-.3-2.4-.1-3.6.3 1 .5 1.9 1.2 2.6.1-1.1-.2-2-.5-3-.1-.3 0-.7-.4-.7s-.1.5-.4.7c-.1-.2-.1-.3-.2-.4-.1-.2.1-.6-.2-.6-.3 0-.2.4-.1.6 0 1.4.2 2.6.3 3.9zM72.9 35.7c-.4 0-.9 0-.9.5s.6.1.8.2c1.8-.1 3.2.7 4.5 1.7.2.1.4.5.6.2.2-.2-.1-.4-.2-.5-1.2-1.6-2.9-2.2-4.8-2.1zM98.1 41.7c-.3 0-1 0-.9.5.1.4 0 1.2.9 1.1.3 0 .5.1.8.1.3 0 .7.1.8-.2.1-.4-.4-.3-.6-.5.3-.4.8-.1 1-.6-.6-.1-1.3-.4-2-.4zM31.7 52c-.2-.2-.4-.1-.6.1-1.2 1.1-2.2 2.4-2.8 4 1.3-1 2.3-2.2 3.3-3.5.2-.1.3-.4.1-.6zM59.6 8.1c.2-.8.3-1.5.2-2.3 0-.2 0-.4-.2-.4s-.2.2-.3.3c-.2 1.3-.5 2.6-.7 3.9-.1.4-.1.7.2 1.2.6-.9.6-1.8.8-2.7zM98.9 49.1c-.5-.1-1-.3-1.3-.8-.1-.2-.1-.4-.4-.3-.3.1-.1.4 0 .6.2.7.8 1.3.5 2.1-.4.6.2 1.4-.4 2.1 0-.5-.1-.9-.1-1.5-.5.4-.4.8-.4 1.2 0 .4-.1.6-.5.6-2.2.1-4.3.9-6.4 1.4-.5.1-1.4 0-1.3.6.1.5 1 .3 1.5.2 2-.4 4.1-.9 6-1.6.5-.2.7-.2.8.4.1.6.2 1.2.4 1.8.7-.7.8-1.5.8-2.3.4.2.3.6.8.6 0-1-.6-1.9-.8-2.8.7.2.9-.1.6-.7 0-.1-.1-.2-.1-.3-.2-.4-.1-.6.4-.6.2 0 .6 0 .6-.3-.1-.4-.5-.4-.7-.4zM66.3 6.7c0-.2-.1-.3-.3-.3-.2 0-.2.2-.2.4 0 .9-.1 1.8-.2 2.7-.1.8-.3 1.5 0 2.3.7-1.7.8-3.4.7-5.1zM66.4 77.5zM67.1 77.3c-.1-.2-.3-.4-.5-.3-.3.1-.1.3-.2.5.4.1.4.4.5.7.3.9.4 1.8.5 2.8.1.5.2 1 .2 1.6.4-1.5.3-3.3-.2-4.6-.1-.3-.2-.5-.3-.7zM66.4 77.5z"/><path class="st0" d="M65.8 78.1c-.2 1.1-.4 2.2-.5 3.4 0 .6-.1 1.2.2 1.8.6-1.9.5-3.9.9-5.8-.4.1-.6.3-.6.6zM64.7 11.1c.3 0 .2-.3.2-.4.2-1.2.1-2.5.2-3.7-.1-.3.2-.8-.2-.8s-.4.5-.4.8c-.1 1.3-.1 2.5 0 3.8 0 .1 0 .3.2.3z"/><path class="st0" d="M95.8 56.8c-.1 0-.1-.1-.2-.2-.1 0-.2-.1-.2-.2l-.2-.2c-.2-.1-.3-.3-.3-.5-.1 0-.1-.1-.2-.2s-.3-.1-.2-.3c-.2.1-.3-.1-.4-.1-.2-.1-.3-.4-.5-.3-.3.2 0 .4 0 .6v.2c-.1 0-.1 0-.2-.1h-.3c-.4.2-.5.5-.5.8 0 .1-.1.2-.1.3-.1.9-.7 1.2-1.5 1.4-1.3.3-2.7.7-3.9 1.3-.2.1-.6.1-.5.4.1.3.4.2.6.2 1.2-.1 2.3-.5 3.4-.9.3 0 .4.1.4.4-.1 1-.9 1.2-1.6 1.4-2 .5-3.9 1-5.9 1.5h-.2l.1-.1c.1-.1.1-.2.2-.3.4-.5 1-.8 1.5-1.4 1.6-2.5 2.8-5.2 3.6-8 .1-.3.2-.6.6-.6 1.9-.3 3.6-1 5.4-1.6.5-.2 1-.4 1.5-.8h-1c-2.1.3-4.1 1.2-6.2 1.9.2-1.3.6-2.4.7-3.6 0-.2.2-.2.3-.3 2.3-.2 4.4-1.1 6.5-1.6.7-.2 1.3-.5 2.1-.2.3.1.8.1 1.2 0-.2-.6-1-1.5-1.6-1.4-.3.1-1 0-1 .6 0 .3-.2.3-.4.3-.4.1-.8.1-1.2.2l-5.4 1.5c.2.2-.2.4-.2.1-.1-.7 0-1.5 0-2.3 0-.2.3-.2.5-.2 2-.4 4-1.2 6-1.7.2 0 .4 0 .4-.4-.5-.2-1 0-1.5.2-1.6.4-3.2.9-4.8 1.4-.3.1-.6.2-.7-.3-.1-1.7-.4-3.4-.9-5-.1-.2-.1-.4.2-.5 1.8-.4 3.5-1.1 5.2-1.6.7-.2 1.3-.4 2 .1.3 1.2 1.3.9 2.1 1.1.1 0 .3 0 .3-.2s-.1-.2-.2-.3c-.4-.2-.8-.3-1.2-.3-.2 0-.5 0-.3-.3.6.1 1.2 0 2-.1-.9-.6-1.5-.6-2.1-.6-1-.1-1.2-.3-1.3-1.1.6.3 1.1.7 1.8.7.1 0 .3 0 .4-.1.1-.2-.1-.3-.2-.4-.4-.2-.7-.4-1.1-.7-.6-.4-1.4-.9-1.5-1.5-.2-.9-.7-1.4-1.2-1.9-1.1-1.2-1.3-2.7-.9-4.2.3-1.2 1-2.2 1.4-3.3.3-.9.5-1.9.4-2.9-.1-.4-.4-.6-.3-1.1.1-.9.2-1.7.2-2.6.3-2.7.7-5.4.4-8.2-.3-2.7-.7-5.2-3.2-6.8-1.3-.9-2.7-1-4.1-.3-.8.4-1.3.8-1.8 1.3-.4.3-.8.9-1.2.9-1.1 0-1.6 1.1-2.7 1.3-.7.2-1.2.9-1.6 1.5-.2.4-.3.6-.5.9.2-.3.3-.6.5-.8-.3-.1-.5-.4-.8.1v.1c-.4 0-.5.3-.7.5-.4.4-.7.8-1.1 1.2-.3.3-.3 0-.3-.2 0-.1 0-.2-.1-.1-.3-.1-.5.1-.7.3-.7.7-.7.7-1.4.3-.5-.3-1.2-.6-1.2-1.4v-.1c-.1-.1-.1-.2-.3-.2-.2 0-.3.2-.3.3-.1 1.1-.1 2.2-.2 3.2 0 .2 0 .4.2.4.3 0 .3-.2.3-.4.2-.4.1-.9.3-1.3.6.6.7 1.1.2 1.8-.3.5-.6 1-.9 1.6-.1.2-.4.5-.1.7.3.2.5-.1.7-.3.2-.4.4-.9.7-1 .7-.2 1-.8 1.3-1.3.2-.3.4-.7.7-.9h.1c.4.2.6-.1.8-.3.4-.5.8-1 1.2-1.4h.2c.1.7.4.2.5.1.5-.5.9-1.1 1.4-1.7.2-.2.4-.5.5-.5 1.1.2 1.4-.8 2-1.3.1-.1.2-.4.5-.2.6.4.9-.1 1.1-.4.7-.9 1.8-1.4 2.8-1.9 1-.5 2-.3 3 .3 2.2 1.5 3.4 4.3 2.8 7-.1-.3-.2-.5-.3-.7-.7-1.7-1.9-2.9-3.5-3.6-1.5-.7-2.9-.7-4.2.3-.2.2-.6.3-.4.6.2.3.4 0 .6-.1 1.3-.5 2.6-.6 3.9 0 .2.1.6.2.4.5-.3.6.1 1.1.2 1.8-.3-.4-.5-.7-.7-1-.1-.1-.2-.3-.4-.2-.1.1-.2.2-.1.4.4.7 0 1.4.1 2.1 0 .2.2.6-.3.6-.1-.2-.3-.4-.4 0 0 .4.1.8.1 1.1v.1c-.1-.2-.3-.5-.4-.7-.1-.1-.2-.3-.3-.3-.2 0-.2.3-.2.5 0 .4.1.8.2 1.4-.4-.5-.7-.9-1-1.3-.1-.2-.3-.3-.5-.2-.2.1-.2.3-.1.5.2.4.4.7.6 1 .2.2.1.4-.1.6-.2.2-.4.1-.5-.1-.3-.3-.7-.5-.8-1 0-.2-.2-.3-.4-.2-.2.1-.6.1-.4.3.4.6.2 1.3.5 1.9.1.2.3.6.6.1.1-.1 0-.4.3-.3.2.1.3.3.1.5-1 1.6-1.4 3.6-2.8 5.1-.1.1-.2.4-.3.6-.1.2 0 .3.1.4.2.1.3 0 .4-.1.2-.3 1.5-.1 1.6.2.1.2 0 .4-.2.5-.7.1-.4.5-.3.9.2.5.3 1.3.1 1.4-1.5.6-.4.8.1 1.1.1.1.3.2.3.4.1.5.5.8.7 1.2.4.6.8 1.2 1.3 1.8-.5 0-.9.5-1.2 0-.5-.7-1.4-.5-2.1-.8-.5-.2-1-.2-1.5.1-.2-.1-.3-.5-.7-.4.1.4.4.7.8 1 .2.2.3 0 .3-.2.6-.1 1.1.1 1.8.4-.3.2-.5.3-.6.4-.2-.1-.3-.1-.5 0-.1-.1-.3-.4-.5-.2s0 .4.1.5c1.9 2.6 3.2 5.5 4.5 8.5.1.2.2.4.3.7 0 .1.1.3.1.4 2.3 7.9 1 15.2-3.3 22.1-.5.8-1.1 1-1.8 1.1-1.9.2-3.7.7-5.4 1.4l-.1.1c-.1-.1-.1-.1 0-.2.4-1 .6-2.2 1.5-2.9 1.4-.4 2.8-.9 4.1-1.3 0-.1 0-.1-.1-.2-1.1.1-2.1.4-3.2.8-.3.1-.6.3-.9.1-.4-.6-.7-.2-.9.2-.3.5-.6 1-1.2 1.3-.8.3-1.5.8-2.1 1.4.8-.2 1.5-.6 2.1-1.1.1 0 .1-.1.2-.1h.2c-.5 1.2-.5 2.7-1.9 3.4-.4.2-.6.3-.8-.2-.1-.2-.2-.6-.5-.5-.3.1-.4.4-.5.6-.2.5-.4 1-.6 1.4-.3.6-.4 1.2-1 1.9.2-2.3-.2-4.4 0-6.5.2-3.2.8-6.3 1.5-9.4.1-.2.3-.6-.1-.7-.3-.1-.4.3-.4.6-.5 2.2-1 4.4-1.4 6.7-.3 2-.8 3.9-.4 5.9.2 1.2.2 2.4.3 3.7.1.6 0 1.1-.3 1.6-.5 1.2-1.2 2.2-2.4 2.8-.4.2-.8.6-1.1.9-.3.3-.6.7-1 .8-1.9.7-3.8.7-5.8.2.2-.7.5-.9 1.2-.9.9 0 1.8.1 2.5-.8 1.2-1.7 1.5-3.6 1.1-5.7 0-.2-.2-.4-.3-.6-.1-.2-.3-.3-.5-.1-.2.1 0 .3 0 .4.4.8.3 1.7.3 2.5 0 .4-.1.4-.4.2-.4-.3-.9-.5-1.5-.7-2.5-.8-5-.5-7.5.1-.2 0-.4.2-.6 0 .1-.5 0-1.1.1-1.6s.5-1 .8-1.5c-2.4.7-2.1 4.1-.8 6.4.4.5.8 1.1 1.3 1.4.5.4 1.1.6 1.7 0h.3c.1 0 .2-.1.3-.1h.3c.5-.1.7.3.7.7.1.5-.4.3-.6.3-1.1.2-2.1.3-3.2.5-1 .1-2.4-.4-2.8-1.1-1.1-2.3-1.7-4.8-1.2-7.4.2-1.2.2-2.4.4-3.6 0-.4.1-.8-.2-1.1-.4-.4-.4-.9-.4-1.3-.3-1.9-.5-3.9-1.5-5.6 0 0 0-.1-.1-.1-.1-.4-.3-.5-.6-.7.1.3-.1.6.3.8 0 .1.1.1.1.2.9 2.7 1.2 5.4 1.4 8.2 0 .4 0 .6-.5.5l-1.8-.3c-.2 0-.4-.2-.4-.4-.2-.7-.5-1.3-.7-2-.1 0-.2 0-.2-.2h.3c1 .3 1.7.9 2.5 1.6-.3-1.4-4.5-3.5-6.4-3.1.4.2.7.3 1.1.4 1.4.2 2.1 1.2 2.5 2.4 0 .1 0 .1.1.2.1.2.2.5.1.7-.2.3-.5 0-.7 0-.7-.1-1.4-.2-2.2-.3-.8-.1-1.6-.1-2.4 0 .1.3.3.3.5.3 1.5.2 2.9.5 4.3.8.6.1.8.3.9.9.2 1.5.8 2.9 1.6 4.1.6.9 1.2 1.7 1.3 2.7.1.1.1.2.1.3 0-.1 0-.2-.1-.3-.6-.1-.5.7-.9.8-.1-.7-.5-1.4-.8-2-.1-.2-.2-.3-.4-.2-.2.1-.2.3-.1.5.5.8.6 1.7 1.2 2.4.2.1.2.5.5.5.3-.1.2-.4.3-.7.1-.3-.1-.6.3-.8.3.4.1.9.1 1.3 0 .2-.1.6.2.6.6 0 .6.6.9.9.3.5.7.8 1.2.9.5.1.9.4 1.3.7-2.2.3-4.2.6-6.3.9-.2 0-.4.1-.4-.1-.2-.6-.8-1-.8-1.7 1.3-.3 2.7 0 4-.6-.4-.3-.8-.3-1.2-.3-1.1 0-2.2.1-3.2.2-1.5.1-1.6.1-2.2-1.3-.1-.2-.2-.4-.4-.3-.2 0-.3.2-.3.4 0 .3 0 .7-.1 1.2-.4-.8-.8-1.5-1-2.2-.1-.4-.2-1 .6-1s1.7-.2 2.5-.1c.8 0 1.8-.6 2.2.9.1-.9.2-1.6-.2-2.2-.2-.3-.3-.9-.7-.8-.4.2.1.6.1.9 0 .1.2.3 0 .4h-.2c-.2 0-.2-.2-.2-.4s.1-.4.1-.6c0-.1-.1-.3-.2-.2-.4.4-.4-.1-.5-.3-.3-.5-.6-.9-1-1.3-.1-.1-.2-.2-.4-.1-.5.3-1.1 2-.8 2.7.6-.4.6-1.2 1.2-1.7l1.2 1.8c-1.6.1-3.1.2-4.6.3-.2 0-.3-.1-.4-.3 0-.3 0-.7-.3-.8-.3-.1-.3.5-.6.5-.2-.6 0-1.5-.9-1.7 0 0-.1-.1 0-.1.1-.3 0-.8.3-.8.4-.1 1.2-.2 1.3 0 .2.8.6.3.9.2.5-.1.8-.5 1.4-.4 0 .6-.7 1-.5 1.7.5-.4.9-.8 1.2-1.3.6-.8.6-.8-.4-1.1-.8-.3-1.4.6-2.3.2.5-.3 1-.3 1.5-.4.3 0 .7 0 .7-.4s-.5-.4-.8-.4c-.8 0-1.5.2-2.1.8-.7.7-1.5.2-2.2.3-.1 0-.2-.1-.2-.1.4-.6-.3-1-.2-1.5.1-.3.2-.6-.1-.8-.4-.3-.4.3-.8.4 0-.6-.1-1.2 0-1.7.1-.3.7 0 1-.2 0 0 0-.1.1-.2-.6-.6-1.3-.1-2 0 .2-.4.3-.7.5-1 .1-.2.3-.5.1-.7-.2-.2-.3.3-.6.3.1.2 0 .3-.2.3-.1.1-.1.3-.2.4-.4.5-.7.9-1.1 1.4-.1.2-.3.5-.1.7.3.2.5 0 .7-.2.2-.2.4-.4.5-.7.1.1.1.2.1.3-.2.9-.6 1.8-.6 2.8 0 .2-.1.4.1.4.2.1.2-.1.3-.3.2-.4.3-.7.6-1.2.1.9.2 1.6.1 2.3 0 .2-.2.5.2.5.3.1.6.2.8-.1.1-.2.2-.5.6-.4-.1.9-.7 1.6-.6 2.4.4.1.3-.4.7-.4 0 .5-.3.9-.2 1.5l.7-.7c.3.3-.1 1.1.5 1.1s.3.3.3.5c0 .5-.3 1 0 1.6.6-.5.6-1.3 1.2-1.7 0 1.1.4 2.1-.1 3.1 1.2-.1.8-1.3 1.5-1.8.5 1.3 1.1 2.6 1.6 3.9.5-.4.5-1.2.9-1.8.6 1.1.7 2.4 1.4 3.5.4-1 .1-1.8-.1-2.6 0-.2-.4-.6 0-.7.4-.1.4.4.4.6.1.9.1 1.8.2 2.7 0 .3 0 .7.2 1 .6-.5.3-1.3.7-2 .2.6.3 1.1.4 1.5.1.2.1.5.3.5.2 0 .5-.3.3-.6.5-.2.2-.8.5-1.2V80c0 .2 0 .5.3.6.3.1.4-.2.5-.4.2-.5.5-1 .8-1.6.1.7.2 1.1.3 1.6.1.2.1.7.4.6.3-.1.6-.3.6-.7 0-.6-.1-1.2-.2-1.8-.1-.5-.6-.5-1-.6 0 0-.1.4-.5.5-.2 0-.4.3-.6.5.1-1.2.1-1.2 1.3-1.4 1.3-.2 2.6-.3 3.9-.5.4-.1.8-.1 1 .3.5.8 1.2 1.3 2.1 1.8-.9.2-1.6.3-2.4.5-.4.1-.4-.1-.3-.4.1-.2.1-.4-.1-.5-.3-.1-.3.2-.4.4-.1.1-.1.3-.2.4-.1.2-.2.4-.4.4-.3-.1-.1-.3-.1-.5s.1-.4-.2-.4c-.3 0-.3.2-.3.4 0 .6-.1 1.1.1 1.7.3 0 .2-.4.5-.4.2.2 0 .5.1.5.8.1.4.7.5 1 0 .2.1.3.1.5s.1.4.3.3c.2 0 .2-.2.2-.4v-1.8c.5.8 1.2 1.5 1.1 2.6 0 .2 0 .5.2.5.3 0 .3-.3.3-.5.4.6-.1 1.4.4 2.1.5-1.3.3-2.8 1.4-4 0 1.7-.2 3.2.3 4.6h.3c0-1.2.3-2.3 1.4-3.1-.1.5 0 .9.1 1.3-.1.3 0 .5.2.7.2-.3.1-.6.1-.9 0-1.1 0-2.1.1-3.2 0-.1 0-.4-.2-.3-.2 0-.2.2-.2.4-.6.3-1.3.2-1.9.2-.9-.1-1.1.4-1.4.9-.1.2-.1.6-.4.7v-.8c0-.2.1-.5.1-.7 0-.3.4-.6.1-.8-.5-.2-.5.4-.7.6H57c-.7-.8-.7-.9.3-1 1.7-.2 3.2-1 4.9-1.1.8-.1 1.4-.6 2.1-1 1.3-.9 2.4-2 3.5-3.1 1.3-1.3 2.5-2.6 3.4-4.2.2-.3.4-.6.8-.8 1.1-.4 2.1-1.1 2.8-2.1.1-.2.3-.3.6-.4 2.8-.6 5.4-1.7 7.2-4.2.1-.1.1-.2.1-.3 0 .1-.1.2-.1.3.3.4.7.3 1 .2.9-.2 1.7-.3 2.5-.5.9-.2 1.8-.4 2.9-.7-.9 1-1.8 3.5-1.6 4.4.3-.2.4-.5.5-.8.2-.7.4-1.3.7-2 0-.1 0-.3.2-.2.4.1.4.1.5-.2.2-.4.1-1 .5-1.4.2.2 0 .4 0 .6-.2.7-.3 1.4-.5 2.1 0 .2-.1.5.2.6.3.1.3-.3.4-.4.2-.5.3-.9.4-1.4.3-1.2.7-2.5 1-3.7 0 .4.1.8.1 1.1-.1.1-.1.2 0 .3 0 .3 0 .7.1 1 0 .1.1.2.2.2.2 0 .2-.1.2-.3v-1.4c0-.9.5-1.8 1.1-2 0 .8-.4 1.6-.5 2.4 0 .2-.1.5.2.5.2 0 .2-.3.3-.4.2-.9.3-1.7.5-2.6.1-.1.4-.2.3-.4-.2-.4-.6 0-.9-.2.1-.5.4-.9.6-1.4.6-.1.6.5.9.8.5.6.9 1.4 1.6 1.9.1-.4 0-.7-.2-1 .4-.5 0-.8 0-1.3zM77.6 9.2s0-.1.1-.1l-.1.1zm17.6 25.3.2.2c.1.1.2.1.1.2s-.2 0-.2-.1-.1-.1-.2-.2c0-.1-.1-.1-.1-.2s.1 0 .2.1zm-.9-.5c-1.2-2.2-3.3-3.2-5-4.7 2.4.7 4.4 1.7 5 4.7zm-3.5-7.4-.3 1.2c-.1.2.1.7-.3.6-.3-.1-.7-.3-.5-.8.2-.8.4-1.6.7-2.4.4.3.6.8.4 1.4zm.7.1c.3.3.5 2.2.3 2.4-.2.2-.4 0-.6-.1-.2-.1-.6-.2-.4-.5.4-.5.4-1.2.7-1.8zm-.7-18zm-5.2 14.1c-.1 0-.1-.1-.2-.1 0-.1.1-.2.2-.2s.1.1.2.2c0 0-.1.1-.2.1zm-.9-3.4c.1-.2.4-.3.6-.4.2-.1.6-.3 0-.5-.3-.1-.1-.3 0-.5.6-1.2 1.1-2.3 1.7-3.5.1-.2.1-.4.4-.4.2 0 .4-.1.2-.3-.2-.3-.2-.5 0-.7.1-.1.3.1.4.2.2.2.6.3.4.8-.4.8-.7 1.6-1.1 2.4-.4.9-.8 1.8-1.2 2.8-.3.6-.3.6-1.4.1zM87 25c-.1-.3.1-.5.2-.6.7-1 .9-2.2 1.2-3.4.4-1.5.7-3.1 1-4.6 0-.2.1-.4-.1-.5-.3 0-.2.2-.3.3-.7 2-1.5 4-1.8 6.1 0 .2 0 .4-.2.5-.2.1-.3-.2-.4-.3-.5-.5-.6-.9-.3-1.6.9-2.2 1.5-4.4 2.5-6.6.1-.3.1-.6.7-.5.5 0 0-.5 0-.8-.2-.2-.3-.4-.3-.7 0 .3.1.5.3.7.3 0 .5 0 .8.1v.7c-.4.3-.6.8-.6 1.3.4.2.2-.7.6-.2l-.3 1.8c0 .1-.1.4.1.4s.3-.2.3-.3c.2-.6.3-1.2.3-1.9.1-.2.1-.3 0-.5 0-.7 0-1.4-.2-2.1 0-.1 0-.3-.1-.4 0-.5 0-1-.1-1.6 0-.1-.1-.1-.1-.2.2-.3.3 0 .5.1.2.2.3.5.6.3.2-.2.1-.4 0-.7l-.4-.8c.3 0 .5.4.8.3.1-.7-.5-1.3-.4-2.1l-.1-.1c.1-.1.1 0 .1.1.3 0 .5.2.6.4 1.4 2 2.5 4.2 2.2 6.8-.1 1.3-.3 2.6-.5 3.8-.2 1.4-.1 2.8 0 4.1 0 .4 0 .8-.2 1.2-.4.9-.9 1.9-1.4 2.9-1-1.2-1.6-2.5-2.1-3.8h-.1.1c0-.2 0-.3-.1-.4-.1-1.4-.1-2.7.1-4 0-.2.2-.5-.1-.5-.2 0-.2.3-.3.4-.3 1.9-.5 3.9.3 5.7.2.4.2.7 0 1.1-.4.7-.5 1.5-.7 2.4-.6-.5-1-.9-.6-1.7.3-.7.6-1.5.6-2.2 0-.1.1-.2.1-.2v-.3h-.3c-.4.6-.6 1.3-.8 1.9-.1.3-.2.5-.5.5-.2-.2-.5-.1-.6-.3zm3.4-11-.1-.1c0 .1 0 .1.1.1zm-5.3 15.4c-.1-.5-.7-.7-.5-1.3h-.2s-.1 0-.1-.1l.1.1h.2c.8-.6 1.5-.1 2.2.3.4.2.5.4 0 .6-.3.1-.5.3-.7.5-.5.5-.8.4-1-.1zm2.8 6c-.6-1.6-1.2-3.2-2-4.8-.1-.3 0-.4.2-.5.3-.1.5-.3.8-.4 1-.7 1.4-.6 2.3.2.2.2.3.4-.1.5-.9.2-1.3 1.1-2.1 1.4-.2.1-.2.2-.1.4.1.1.2.1.4.1.4-.2.7-.4 1.1-.6 1.3-.8 1.8-.7 3 .4-1.2.6-2.3 1.1-3.7 1.8 1.3.1 2.2-.4 3.1-.8 1.4-.6 1.6-.6 2.7.8-1.7.5-3.3 1-4.8 1.8-.5.2-.7.1-.8-.3zm.6 1.9c0-.2-.1-.5-.2-.6h-.2.2c0-.3 0-.5.3-.6 1.6-.5 3.1-1.1 4.7-1.5 1-.3 1.4.4 2 1-2.3.4-4.3 1.2-6.2 2.2-.7.3-.4-.4-.6-.5zm-38.1 29c-.3-.8-.9-1.5-1-2.3 0-.2-.2-.5.3-.5.2 0 .5 0 .4.4-.1.5.2 1 .3 1.5 0 .3.1.6 0 .9zm1.3-1.1c-.6-1.5-.6-1.5.1-1.8.3.6-.1 1.2-.1 1.8zm-11.9 4.4zm2.7 2.6c-.1-.4-.3-.9-.1-1.2.2-.3.5 0 .9-.1-.3.5-.5.9-.8 1.3zm7 5.4c0 .3-.1.6-.1.9l-.3-.9c-.1-.2-.2-.4.2-.4.2.1.2.2.2.4zm11.3-7c0-2.2.2-2.3 2.2-1.9.7.1 1.4.3 1.9.9.2.2.3.4.2.6-.1.1-.1.3-.2.3s-.2-.1-.2-.2c-.2-.7-.7-.7-1.2-.6-.7.2-1.4.4-1.7 1.2-.1.4.2.6.5.7.6.2 1.2.2 1.8.2-.2.4-.4.6-.8.5-.3 0-.6-.1-.9-.1-1.6 0-1.6 0-1.6-1.6zm-1.2 1.6c-.5.1-1.1.2-1.5.5-.4.2-.7 0-1-.2-.4-.3-.8-.7-1.3-1.1-.1.1-.3.1-.4.2.1-.1.3-.1.4-.2-.2-.3-.1-.7.2-.8.2-.1.3.3.4.4.5.7 1.6.8 2.2.2.2-.2.1-.4 0-.6-.5-.6-1.1-1.1-1.9-1.4-.4-.1-.8 0-1 .4-.5-.6-.3-.9.4-1 1.3-.3 2.6-.5 3.9-.5.2 0 .5-.1.6.2 0 .1 0 .2-.1.2-.2.3-.3-.3-.6 0 .4.8.2 1.6.4 2.5.1.7 0 1.2-.7 1.2zm2.6 5.7c-.9.1-1.8.1-2.7.1-.4 0-.8-.2-1.1-.6-.6-.7-1.2-1.4-1.9-2 .7-.3 1.1-.3 1.7.3.7.8 1.8 1.1 2.9.8 1-.2 2.1-.5 2.8-1.3.1-.1.3-.2.4-.2l2.7-.6c0 .1.1.1.1.2-1.6 1.1-2.7 3-4.9 3.3zm11.4-10.1c.2-1.2.9-2.2 1.3-3.3.1-.5.7-.4 1.2-.7-.5 1.7-1.3 3-2.5 4zm9.3-5.4c.1 0 .1.1.1.1 0-.1 0-.1-.1-.1zm.1.1zm-.3-.2c-1.8 2-4.1 3.1-6.8 3.9.5-1 .9-1.9 1.3-2.8.1-.2.2-.3.4-.4 1.8-.7 3.6-1.4 5.5-1.4-.1.3-.3.5-.4.7zM94.8 55.7zM95.4 56.5z"/><path class="st0" d="M87.9 63.6c-.2-.1-.3 0-.4.1-.4.3-.4.9-.8 1.1-.3-.2-.6.1-.8-.1 0-.1 0-.2-.2-.2-.5.2-.9.5-1.4.6-1.6.5-3.2.9-4.8 1.4-.4.1-1.2.1-1.1.5.1.5.9.2 1.3.1 1.1-.2 2.2-.5 3.5-.9-.4 1.2-.8 2.3-1.2 3.4-.1.2-.4.5.1.6.3 0 .6.4.9-.2.5-1.1 1-2.3 1.5-3.4.2.4-.1.8.2 1.2.4-.5.6-1.1.7-1.7.1-.6.5-.9 1.1-.8 0-.1.1-.1.2-.1-.1 0-.1.1-.2.1-.1.9-.7 1.8-.5 2.8.7-1.4 1.3-2.8 2-4.1 0-.2 0-.3-.1-.4zM84.4 15.1c.1-.2.4-.2.3-.5 0-.1-.3-.1-.5-.2 0 0 0 .1-.1.1H84l.1-.1c.4-.7.4-1.3-.2-2-.2-.2-.2-.6-.5-.4-.3.2-.1.5 0 .8.1.3.6.5.5.9-.2.6-.3 1.1-.6 1.6-.4.6 0 .7.4.7 0-.4.5-.6.7-.9zM83.7 16.1zM56.7 9c.1.6.3 1.1.7 1.6.1-1.5-.4-2.8-.6-4.2 0-.2-.1-.4-.3-.4-.3 0-.3.3-.3.5.1.8.3 1.6.5 2.5zM31.8 54.4c.1-.2.5-.4.2-.7-.3-.3-.6 0-.8.3-.6 1-.9 2.1-1 3.5.4-.3.5-.6.7-.9.3-.7.6-1.5.9-2.2zM97.1 40.5c.3.8 1 .8 1.9 1 .3.1.5-.4.9-.6.2-.1.1-.4-.1-.4-.8 0-1.6-.3-2.4-.5-.4 0-.5.2-.3.5zM36 58.6v-.2c-.1-.1-.2-.1-.4 0-1 .6-1.9 1.3-2.7 2.1-.1.1-.1.2 0 .3 0 .1.1.1.3.1.6-.1 2.6-1.6 2.8-2.3zM40.5 65.2c.5.4 1.7-.1 2-.8-.6 0-1.2.6-2 .3.7-.4 1.2-.5 1.8-1.2-.6.1-1.1.2-1.5.3-.3.1-.7.1-.8.4.4.2.2.8.5 1zM30.8 51.1c0-.2-.1-.3-.3-.2-.5 0-2.1 1.5-2.2 1.9-.1.2-.1.3.2.3.4 0 2.2-1.6 2.3-2zM60.6 6.1c-.4 1.4-.8 2.9-.6 4.4.6-1.4.6-2.9.6-4.4zM37.1 61.1zM37.3 60.7c.1-.5-.1-.7-.6-.5-.5.1-1 .4-1.3.7-.2.2-.7.4-.5.8.2.3.6-.1.9-.1.5-.1.8-.7 1.4-.5-.2-.2-.1-.3.1-.4zM97.4 46.9c0 .2.1.4.3.4.8.2 1.7.4 2.7 0-1-.6-1.9-.6-2.7-.7-.1-.1-.3.1-.3.3zM58.2 10.2c.2-1.3-.1-2.3-.2-3.4 0-.2.1-.5-.3-.4-.3 0-.3.3-.3.5.1 1 .3 2.1.8 3.3zM59.8 63.4c-.2 0-.5 0-.5.3s.3.3.5.3c.6 0 1.1.1 1.7.3.2.1.5.2.6-.1.1-.3-.3-.4-.5-.5-.4-.2-.9-.3-1.4-.3h-.4zM83.7 16.1zM83.3 17.8c.2.1 1.3-1 1.2-1.3-.1-.4-.5-.4-.8-.5-.2.4-.5.8-.6 1.3 0 .3 0 .5.2.5zM95.4 56.5zM95 55.9c-.1 0-.1 0 0 0-.1 0-.1 0 0 0-.1 0-.1 0 0 0zM94.6 55.4zM94.8 55.7c.1 0 .2 0 .2.2.3 0 .3.3.3.5.1 0 .2.1.2.2l.2.2.2.2c.2.1.3.4.7.4-.3-.8-.7-1.5-1.2-2.1-.1-.2-.3-.5-.5-.4-.3.1.1.4 0 .6-.1-.1 0 0-.1.2zm1 1.1zM38.9 62.9c-.1 0-.3.1-.3.2 0 .2.1.2.2.3.7.2 1.4.1 2.1-.3-.6-.3-1.3-.2-2-.2zM96.1 54.3c.3 1 .6 1.9.8 2.8.1 0 .1 0 .2-.1.1-.9-.3-2.2-1-2.7zM89.2 22.5c-.2-.1-.3.1-.3.3h.3c.1-.2.2-.3 0-.3zM89.9 17.5c.2 0 .1-.2.2-.3 0-.1 0-.2-.2-.2s-.2.1-.2.3c0 .1.1.2.2.2z"/></svg>