<svg version="1.1" id="Calque_1" xmlns="http://www.w3.org/2000/svg" x="0" y="0" viewBox="0 0 126.4 85.6" style="enable-background:new 0 0 126.4 85.6" xml:space="preserve"><style>.st0{fill:#f8ac2b}</style><path class="st0" d="M101.1 53.4c1.2-.9 2.1-1.6 3-2.3.3-.2.7-.6.4-1-.3-.5-.8-.3-1.2-.1-1.1.7-2.3 1.3-3.2 2.2-1.3 1.3-2.8 1.5-4.4 1.7-3.9.5-7.7 1.5-11.1 3.7-1.8 1.1-3.2 2.5-4.4 4.3-.2.3-.4.7 0 .9.3.2.5-.1.7-.3 3.3-3.6 7.5-5.6 12.2-6.6 4.4-.9 8.9-1 13.3-.9 1.5 0 3.1 0 4.5-.4v-.3c-3-1-6.3-.7-9.8-.9zM89.6 71.7c-2.2.2-4.1-.3-6-1.4-.4-.2-1-.1-1.1.4-.2.6.4.6.8.8.3.2 1.1.2.9.7-.6 1.4.5 1.2 1.2 1.2.9 0 1.4.4 2 .9 2.5 2.4 5 4.8 7.2 7.4 1.3 1.5 3 2.6 4 4.3h.6c-3-4.8-7.2-8.6-11-12.8.3-.5 1.1-.5 1.4-1.5zM27.3 28.4c.9-.3 1.8 0 2.7.2 1.7.5 3.3 1.4 4.8 2.3.6.4 1 .7.9 1.6-.1.7.1 1.4.4 2.1.1.3.3.6.6.4.2-.1.3-.4.4-.6 0-.6 0-1.3-.1-2.2 1.2 1.1 2.7 1.5 3.4 2.9.3-.2.5 0 .6.3.8.3 1.4.7 1.8 1.7-1.6-.7-2.4-.2-2.8 1.2-.1.5-.3.9-.6 1.3-1.6 2.1-2.1 4.5-1.6 7 .7 3.9 2.5 5.7 6.1 4.7 1-.3 1.9-.9 1.9-1.9-.1-3.9.5-8-2.1-11.6 1.2-.1 1.9 1.3 3.2 1.1-.8-1.4-1.9-2.4-3.2-3.3-1.7-1.3-3.2-2.9-5.1-3.8-1.1-.6-.5-1.4-.3-2.2.3-1 .7-.7 1.3-.3.2.1.5.1.6-.1.1-.2 0-.5-.2-.6-1-.7-.9-1.7-.9-2.7.1-1.4.4-2.7.8-4.1.6-1.9 1.2-3.9.9-5.9-.5-2.9.1-5.6.5-8.4 0-.4 0-.9.5-1.1.4.5.7 1.2 1.3 1.6 1.6 1.1 2 2.7 2.1 4.5.1 1.1.6 2 1.6 2.4 1.6.8 1.8 2.5 2.5 3.9 1.6 0 1.6-.1 1.3-1.8.6.3 1.2 1.5 1.9.1-.8-.6-.8-1.7-1.7-2.1-.6.2-.1.9-.6 1-.4-.8-.9-1.4-1.6-1.8-1.3-.7-1.8-1.8-1.8-3.2-.1-1.7-.7-3.1-2.3-3.9-.9-.5-1.5-1.2-1.9-2.1-.3-.7-.7-1-1.3 0-1.5 2.4-1.9 5.2-2.1 7.9-.2 3.6-.4 7.1-1.7 10.6-.7 1.8-.3 3.8-1 5.7-.5 1.3-.5 1.2-1.5.7-1.7-1-3.4-1.9-5.4-2.4-.9-.2-1.9-.4-2.8.2-.3.2-.5.5-.4.8.2.2.6.1.9-.1zm16.1 12.8c.2.4.2.8.3 1.2 0 .3.1.6-.2.7-.3.1-.5-.1-.6-.3-.2-.4-.5-.7-.6-1.1-.2-.6-.3-1.5.4-1.7.5-.3.5.7.7 1.2zM74.4 78.4c-1.1-.3-2.2-.5-3.3-.8-3.2-.9-4.5-2.5-4.6-5.7-.1-1 .3-1.5 1.4-1.5 2.1.1 3.4-.8 4.1-2.7.7-1.9.6-3.9 0-5.8-.2-.5-.3-1.2-1-.9-.6.2-.2.8-.1 1.3.7 2.8-.3 5-3 6.2-1.2.6-2.4.5-3.8.5-3.5-.2-6-1.2-6.2-5.2 0-.3-.1-.6-.5-.6-.3 0-.5.3-.6.5-.6 1.2.2 5.4 1.2 6.3 1 .9 2.1 1.2 3.4 1.2.7 0 1.3 0 1.9.5 1.9 1.7 1.5 5.6-.8 6.7-2.1.9-4.5 1.3-6.6 2.5-.2.1-.8.2-.3-.4.2-.2.3-.3 0-.5-1.1-.1-1.5 1.3-2.6 1.3.1.7-.6.7-.9 1.1-.5.6-1.3.9-1.2 1.8.1.3.3.2.5.1.8-.1 1.5-1.2 2-.9.9.6 1.5 0 2-.3 1.6-1.1 3.7-.5 5.4-1.4.1-.1.4 0 .5.1 1 1.1 2.4 1.2 3.7 1.5 2.2.5 4.3.3 6-1.5.9-1 1.8-2.2 3.5-1.9.2 0 .6-.1.6-.5-.1-.7-.4-.9-.7-1zM90.8 44.1c.4-.9.5-1.8.5-2.8-.1-3.2-1.4-5.9-3.8-8.1-1.1-1-2.2-.9-3.5-.2-1.4.7-1.8 1.9-2 3.2-.3 1.7.1 3.6-.6 5.3-.5 1.4-.1 2.1 1 3 1.3 1.1 2.9 1.3 4.4 1.6 2 .5 3.2-.2 4-2zM84.1 38c-.1.3-.3.5-.6.5s-.3-.3-.3-.5c-.1-.9-.1-1.7.2-2.7.7.9 1 1.7.7 2.7z"/><path class="st0" d="M100.2 47.8c-1.5.4-3 .9-4.5 1.3-.4.1-.8.4-1-.3-.2-.4-.5-.9-1.1-.8-.6.2-.4.8-.4 1.3-.1 1-1.1 1.4-1.4 1-1.1-1.2-1.4-.1-2 .4-.3.3-.4.8-1 .8-.1-.6 1.1-2.2-1-1.4-.1 0-.2-.3-.4-.4-.9-.4-1.2.4-1.4 1-.2.4-.5.9.2 1.2.3.1.6-.5.8.1.1.5-.4.6-.7.7l-3.6 1.8c-2.4 1.4-4.5 3.2-5.7 5.7-.6 1.2-.3 1.8 1.1 1.9-1-.8-.4-1.5.1-2.1 1.5-1.7 3.2-3.1 5.2-4.3 2.6-1.7 5.6-2.4 8.4-3.6 2.3-1 4.8-1.7 7.2-2.5.5-.2.9-.4 1 .4.1.5.7.8.9.3.6-1.6 1.9-2.2 3.3-2.9H103c-.2-.6.4-1 .1-1.7-.5.4-1 .8-1.4 1.2-.6.3-.9.7-1.5.9zM39.4 61.5c1.8.2 3.7.4 5.7.6.5 0 1.1.2 1.2-.4.1-.6-.5-.7-.9-.9-2.4-.8-4.9-1.3-7.4-1.1-7.9.6-15.3 3.1-22 7.3-.3.2-.7.3-.5.7.2.4.6.1.9 0 3.8-1.8 7.9-3 11.9-4.3 3.6-1 7.3-1.7 11.1-1.9zM20.3 54.8c4.8-1.2 9.3.4 14.1 1.6-.5.3-.7.4-1 .6-.6.4-1.7 1-1.3 1.6.5.8 1.4-.2 1.9-.6 1.4-1 2.7-1.2 4.4-.7 2.4.7 5 1.1 7.5 1 .3 0 .8.1.9-.3.1-.5-.4-.6-.8-.6-1.4-.3-2.9-.6-4.4-.9-.2 0-.6 0-.4-.4.1-.3.4-.2.6-.1.3.6.6.2.8 0 .4-.4.8-.9 1.2-1.3.4.4 0 1.2.7 1.2.6 0 .6-.8.7-1.3.1-.3.1-.7.1-1 0-.4.1-.8-.3-1-.4-.2-.6.2-.8.3-1.1.4-1.4 1.5-2.2 2.1-.6-.2-.9.1-1.2.5-.5.6-1 .6-1.7.5-.9-.3.2-.9-.4-1.4-1.2 1.3-2.5.8-3.8.2.2-.8 1.4-1 1.1-2-.6-.3-1-.7-.5-1.5.3-.5.2-1.1.3-1.7 0-.2-.1-.4-.3-.4-.1 0-.4.1-.4.3-.6 1.2-1.6 2.4-.9 3.9-.5.4-.8 1-1.6 1-.1 0-.2 0-.3-.1-3.3-.9-6.7-1.6-10.2-1.3-.8.1-1.5.2-2.2.6-.3.2-.7.5-.5.9.1.6.5.3.9.3zM36.1 71.3c.5.3 1.2.4 1.3-.4 0-.8.5-.8 1-.9 1.7-.4 3.3-.9 4.9-1.5.5-.2 1.1-.5 1.2-1.2-.1-.6-.6-.6-1.1-.5-1 .2-2 .5-2.9.7-3.6 1-7.4 1.5-11 2.9-2.5.9-5 2-6.7 4.3-.2.3-.7.6-.4 1 .4.4.7-.1.9-.3 3-2.1 6.3-3.4 9.9-4.1 1.1-.3 2-.5 2.9 0zM106.8 69.3c-3.3-2.1-7.2-2.7-10.7-4.4-1.2-.6-2.5-.5-3.9-.4-1.7.2-3.4-.4-5.1-.6-1.5-.2-3-.2-4.5 0-.5.1-1.3.1-1.1.8.1.6.8.4 1.2.3 1.2-.2 2.4-.2 3.6 0 6.7 1 13.2 2.6 19.4 5.2.8.3 1.6.9 2.6.6-.2-.8-.9-1.1-1.5-1.5zM42.5 75.1c-.2-.3-.5-.2-.8-.2-.6 0-1.1.6-2 .2 3.1-2.1 5.9-4.3 9.5-5.2.5-.1 1.1-.1 1-.7 0-.6-.6-.7-1.1-.8-.8-.1-1.6.1-2.4.5-2.2 1-4.1 2.5-6 4-.5.4-.8.6-1.5.4-1.2-.2-2.4.2-3.5.6-.3.1-.6.3-.5.6.1.3.3.3.6.3h2.5c-1.7 2-3.7 3.6-4.8 6.1.9-.2 1.2-.6 1.5-1.1 1-1.6 2.4-2.8 4.4-2.9.9-.1 1.9-.5 2.7-1 .3-.2.6-.4.4-.8zm-3 .4c-.1 0-.1-.1-.2-.1.1 0 .2-.1.2-.1.1 0 .1.1.2.1-.1.1-.2.1-.2.1zM51 78.9c.2-.2.3-.3-.1-.4-1-.3-1.4.7-2.3.8-.2-1.4-1.4-.1-1.9-.7.2-.3.8-.5.6-1-.3-.5-.8-.1-1.2 0-1.8.4-3.7.5-5.6.6-.3 0-.8-.2-.9.3-.1.5.4.6.8.6.9.2 1.9.4 2.9.6-.4.5-1.1.4-1.3 1.1 1.8.5 3.5-.4 5.6-.5-.8.8-1.4 1.3-1.9 1.8-.2 0-.3.2-.3.3 0 .1.2.1.3.1 2.3-.6 4.1-1.6 5.3-3.6zM56.8 13.7c.9 2 3.4 1.4 4.7 2.7.1 0 .4-.2.6-.3.2-.1.1-.5.5-.2.8.7.8 0 .9-.6.1-.4.1-.9.2-1.4.5.7.8 1.2 1.2 1.7.2.3.5.4.9.2.3-.2.4-.6.2-.9-.6-1.1-.8-2.2-1.1-3.4-.1-.3-.2-.6-.5-.6s-.4.2-.5.4c-.7 1.3-2 2.3-1.6 4.1-.9-.5-1.2-1.3-1.7-1.9-.2-.3-.6-.8-.9-.2-.7 1.4-1.1.3-1.5-.1-.4-.4-.7-.9-1-1.4-.2-.2-.3-.7-.7-.5-.4.2-.2.6-.2.9.1.5.3 1 .5 1.5zM83 26c-.5-.1-.8.3-1.1.6-.7 1-1.4 2-2.2 2.9-.6.7-.9 1.7-.9 2.7 0 .4.1.7.5.8.5.1.7-.3.6-.6-.1-1.7 1.2-2.5 2-3.7.3-.4.5-.9 1.2-.4.7.4 1.3-.3 1.9-.7.2-.1.3-.4.1-.6-.6-.6-1.1.1-1.7.1-.3-.3.2-1-.4-1.1zM78.5 33.4c-.5-.1-.5.6-.7 1-.3.7.1 1.5-.4 2.1-1.1 1.3-1.1 3-1.6 4.5-.1.4-.2.9.3 1.1.5.2.8-.3.9-.7.7-2 2-3.9 1.9-6.2v-.7c-.1-.5.1-1.1-.4-1.1zM76.8 75.8c-.5.5.4.7.3 1.3-.7 0-1.3-.1-2-.1-.4 0-.8.1-.8.6 0 .4.3.5.7.6 1 .1 2 .3 3 .5.4.1.8.1 1.1-.2.5-.4-.2-.7-.3-1.1 1-.1 2 .5 3-.4-1.1-1-2.5-1.1-3.8-1.4-.4-.1-.9-.2-1.2.2zm1.1 1.5c-.1 0-.2-.1-.3-.2.1 0 .2-.1.2-.1.1 0 .2.1.3.1 0 .1-.1.1-.2.2zM56.6 17.9c.5-.1 1.1-.4.7-.9-.8-.9-1-2-1.4-3.1-.1-.3-.2-.6-.5-.6-.4 0-.5.4-.6.7-.3 1 .2 1.9.4 3-.8-.1-1-.8-1.5-1.2-.3-.3-.6-.9-1.1-.6-.5.3-.1.8-.1 1.2 0 .1-.1.3-.1.4 1.1 1.4 2.6 1.6 4.2 1.1zM52.4 16.8zM67.3 54c.1.4.4.9.7.4.6-1 1.1-1.9 2.4-2.4.8-.3 1.5-1.8 1.5-3.2-1.1.1-1.4 1.1-2.1 1.7-.2-.5.3-.9-.2-1.2-1.3.9-2.5 3.4-2.3 4.7zM57 50.7c-.7 1.6-.3 3-.1 4.4.1.9.5 1.5 1.5.5.1.4.1.7.2 1 .1.4.1 1 .6.9.4-.1.1-.7.1-1 .3-2.3-1.1-3.9-2.3-5.8zM50 45.9c.1-1.2.6-3-.1-3.4-1.1-.7-.6-1.4-.7-2-.1-.8 0-1.5 0-2.3 0-.5-.1-.9-.6-.9 0-.3 0-.6-.1-.9.1-.1.1-.2 0-.3 0-.3 0-.6-.1-.8-.1-.3-.1-.9-.5-.9-.6 0-.5.6-.6 1-.1.8-.2 1.7.1 2.5.1.1.2.3.3.4.2.2.4.2.6 0-.1.5-.2 1-.2 1.6.2 2-.7 4.4 1.9 6zM44.6 26c.3 0 .6-.3.5-.6-.2-1.1-.3-2.2-.9-3.1-.2-.2-.4-.5-.7-.4-.3.1-.3.4-.3.7v2.1c-.4-.6-.5-1.1-1-1.2-.4-.1-.5.2-.5.5 0 1.1.4 2 1.3 2.7.3.2.7.1.7-.2-.3-.7.4-.4.9-.5zM94.3 60.9c-.1.5.4.7.8.8 1.5.4 2.9.9 4.4 1.3.4.1.8.1 1-.4.2-.5-.2-.7-.6-.9-1.4-.8-3-1-4.4-1.2-.5.1-1.1-.1-1.2.4z"/><path class="st0" d="M70.8 14c.4.4 1.1.7 1.4.3.6-.7 1 0 1.5-.1.4-.2.3-.5 0-.7 0-.3.3-.3.6-.3.4.5 1.2.8 1.3 1.5.1.4-.4.9.1 1.1.6.3 1-.2 1.4-.5 1.4-1.1 2.8-2.1 4.2-3.3.1.3.1.5.2.6.1.4.2 1 .8.9.6-.1.4-.7.4-1.1-.2-2.4.5-4.8.7-7.1.1-1.5.8-2.8 2.5-3.6-.2 1.9.4 3.5.8 5.2.7 2.9 1.4 5.9.3 8.9-.5 1.5-.6 3.2-.5 4.8.1 1 .2 2.1 1.1 2.5.9.5 1.2 1.2 1.4 2 1.5 6.3 5.1 11 10.4 14.6.3.2.4.4.2.7-.2.5-.4 1.1.2 1.3.7.2.8-.4 1.1-.9.1-.3.3-.6.5-.9.5-.8.6-1.5-.9-1.1 1.3-2.4 1.3-4.7.6-7-.4-1.3-.8-2.7-1-4-.2-1.4-.9-2.4-2.1-3.1-.6-.4-.8-.8-.6-1.5.7-2.9.2-5.5-1.3-8.1-1.6-2.8-3.5-5.5-4.9-8.5-.9-2.1-2.3-3.9-3.5-5.9-.4-.7-1.1-.9-1.9-.6-2.2.7-4 2.8-4 5.4.1 3.1-1.5 5.1-3.7 6.9-.7.5-1.2.6-1.9.1-1-.8-2-1.5-3-2.2-.3.5-.2.8-.1 1.1.1.3.1.7.1 1L72 11.2c-.2-.3-.4-.5-.6 0 0 .3 0 .5.1.8.1.1.3.2.4.3 0 .2-.1.3-.1.5s.1.3.3.4c-.1-.1-.2-.2-.3-.4-.1-.2-.3-.4-.4-.6-.5-.5-.9-1-1.4-1.4-.2-.2-.5-.6-.8-.4-.4.2-.1.6 0 .9.2 1.1.8 2 1.6 2.7zm29.3 20.5v3.3c-1.8-1-1.8-1 0-3.3zM99 31c.6.8.8 1.5 0 2.3-.2.2-.3.4-.4.6-1.2 1.7-1.2 1.7-2.9.3 1.2-1 2.2-2.1 3.3-3.2zm-1.4-4.4c.6.1.7.8.9 1.4.1.2.1.5.1.7.1.4-.2.6-.4.9-1.1 1.1-2.1 2.2-3.1 3.4-.4.5-.6.5-.9.1-1-1.1-1-1.8 0-2.9l2.4-2.7c.2-.4.5-1.1 1-.9zm-1.4-4.4c-.2.7-.8 1.5-.4 2.1.8 1.4-.2 2-.9 2.7-.8.9-1.6 1.8-2.3 2.7-1.4-2.1-1.4-2.3.2-4.1.7-.8 1.3-1.6 1.9-2.4.6-.7 1.1-1.5 1.7-2.3.4.6-.1.9-.2 1.3zm-.4-4.1c.5.8.4 1.3-.6 1.9-1.6.9-2.5 2.5-3.5 3.9-.4.5-.7.9-1.1 1.4-1.2-1.9-1.2-1.9.3-3.4s2.8-3.3 4-5c.5.3.7.8.9 1.2zM89.2 7.3c.3-.1.4.3.5.5 1 1.8 1 1.9-.6 2.8-.1-1-.3-1.8-.4-2.7 0-.2.3-.5.5-.6zm1.9 3.5c1.1.9 1 1.6 0 2.5-.8.8-1.5 1.7-2.3 2.8.3-2.1.7-3.9 2.3-5.3zM89.2 18c1.1-1 1.9-2.4 2.9-3.6.2-.3.4-1.1 1-.6.5.5 1.4 1.2.7 1.9-1.8 1.9-3.1 4.1-5.2 6-.4-1.4-.7-2.6.6-3.7zm-14.9-5c0-.1-.1-.3-.2-.3.1 0 .1.1.2.3zm-.7-.6h-.2.2zM95.3 69.3c-1-1.4-4.6-2.8-6.2-2.4-.3.1-.6.2-.6.5 0 .4.3.4.6.5l2.1.6c1.3.3 2.6 1 4.1.8zM36.1 37.9c.4-.1.6-.4.4-.8-.5-.6-1.3-.8-2.1-.8-.3 0-.7.1-.7.5 0 .3.1.5.3.6.3.2.6.3 1 .5-.8.7-1.5 1.3-1.9 2.2-.1.3-.3.7.3.7.7.1 2.6-1.6 2.4-2.3-.1-.3-.3-.4.3-.6zM66.5 14.3c.1.4.5 1.2.8.8.5-.6 1.8 0 1.5-1.3 0-1.5-.2-1.7-1.5-1.6-.1 0-.3-.1-.4-.2-.3-.2-.5-.5-.9-.3-.4.3-.1.7 0 1.1.2.5.3 1 .5 1.5zM53 81.1c0-.1 0-.1 0 0zM53.8 79.4c-.2-.4-.6-.2-.9 0-1.8 1.1-3.6 2.1-5 3.8 2.1 0 3.4-1.4 5-2.1l.6-.9c.2-.3.5-.5.3-.8zM60.5 60.4c0 .3.2.6.6.5.3 0 .4-.3.4-.5-.1-2.2-.2-4.5-1.3-6.5-.3 2.2-.1 4.3.3 6.5zM64.9 59.1c.1 0 .3-.2.4-.3.6-1.8 1.3-3.6 1-5.6-1.4 1.6-1.8 3.4-1.7 5.4 0 .2 0 .5.3.5zM82.6 46.4c-.1-.2-.4-.3-.6-.2-.5.3-.4.8-.4 1.3 0 .4 0 .9.4 1.1.6.3.6-.5.9-.6.2 1.8.2 1.8 1.6.9.3-.2.7-.2.1-.7-.7-.5-1.6-.9-2-1.8zM97.7 58.8c1.2-.3 2.5-.7 3.6-1.6.2-.2.6-.4.4-.8-.2-.3-.5-.2-.8-.2-1.3.3-2.5.9-3.7 1.6-.3.1-.5.4-.3.7.1.3.4.3.8.3zM53.3 52.3c0 .3.3.5.6.5s.5-.3.5-.6c-.4-1.7.1-3.6-.9-5.3-.6 1.8-.5 3.6-.2 5.4zM33.5 49.5c.6.2.8-.4.9-.8.3-.9.7-1.9.9-2.9.1-.5.3-1.2-.6-1.3-.2-.3 0-.5.1-.8.2-.5.9-1.1.2-1.4-.5-.3-1 .4-1.3.8-.3.3-.5.7-.6 1.1-.3.7-.1 1.1.8 1.1-.2-.3 0-.5.3-.6.1-.2.2-.3.5-.3-.1.1-.3.2-.4.3.1.3-.1.5-.3.6-.3 1-.5 2-.8 3-.1.5-.2 1 .3 1.2zM34.3 44.7c-.1 0-.1 0 0 0-.1 0-.1 0 0 0-.1 0-.1 0 0 0-.1 0-.1 0 0 0zM55.7 49.1c0-.3-.2-.6-.5-.5-.2 0-.3.4-.3.6 0 1.1 0 2.3.1 3.4.1.6 0 1.7.8 1.5.7-.1.1-1.1.3-1.7-.1-1-.2-2.2-.4-3.3zM85.3 75c-.8-.2-1.7-.4-2.5-.4h-1c-.4 0-.9 0-1 .5 0 .5.4.6.8.7 1.3.4 2.5.5 3.8.1.3-.1.6-.2.5-.5-.1-.1-.4-.3-.6-.4zM30.8 67.3c0 .3.2.4.4.5 1.2.5 2.5.7 3.8.4.3-.1.6-.2.6-.5s-.3-.5-.5-.6c-.7-.3-1.4-.2-2.3-.3-.3 0-.9 0-1.4.1-.3.1-.5.2-.6.4zM73 45.5c0 .2.1.5.4.5.3 0 .4-.2.5-.4.3-1.5.9-2.9.6-4.9-1.4 1.7-1.6 3.2-1.5 4.8zM48 17.9c-.2-.1-.7-.4-.7-.1-.2.9-1.3 1.4-1 2.5.1.4.2 1 .7.9.7 0 .4-.6.4-1s-.3-.7 0-1.1c1.4.8 1.7.7 1.9-.7-.6.1-.9-.3-1.3-.5zM49.2 18.5zM89.4 69.5c-.2.3 0 .6.3.7 1.2.8 2.4 1.6 4.2 2-1-1.6-2.3-2.4-3.7-2.9-.3 0-.6 0-.8.2zM46.3 34.7c.4-2-.3-3.5-1.4-4.8-.3-.3-.5-.9-.9-.8-.6.2-.3.9-.1 1.2 1.1 1.2 1.6 2.8 2.4 4.4zM43.3 30.7c.4-.4-.1-.9-.4-1.2-.3-.4-.7-.7-.5-1.4.2-.6-.5-.7-.8-1-.2-.1-.4-.2-.5 0-.4.4-.1.8.1 1.2l.9 2.1c.3.1.7.8 1.2.3zM42 30.3zM51.5 46.1c0-.6-.1-1.2-.7-1.8-.3 1.8-.1 3.5-.1 5.1 0 .4.2.7.6.6.4-.1.4-.4.3-.8-.2-1 0-2.1-.1-3.1zM32.3 65.2c.7-.4 2 .2 2.3-1 .1-.5-.6-.7-1.1-.6-.9.1-1.9.1-2.3 1.1-.1.5.6.4 1.1.5zM94 41.5c-.8.1-1.7 0-1.8 1.1-.1.5.3.7.9.6.6-.5 2 .1 2.3-1 .1-.6-.8-.7-1.4-.7zM62.3 59.5c.2.1.5.1.6-.1.5-.7.1-1.5-.2-2.2-.2-.4-.2-1.2-.7-1.1-.7.1-.3.8-.5 1.3.3.7.1 1.6.8 2.1zM33.9 45.3s.1 0 0 0c.1 0 .1 0 0 0 .1 0 0 0 0 0zM69.2 34.5c-.9 1.5-.9 2.7-.6 4.1.1.3.2.6.6.5.3-.1.2-.4.2-.6 0-1.2.2-2.4-.2-4zM100.8 45.7c.2-1 .8-1.8.9-3.2-1.2.8-1.7 1.7-1.9 2.8-.1.3-.1.7.3.8.3.2.6-.1.7-.4zM52.4 16.8zM96 44.9c-.1-.9-.9-1.1-1.7-1.3-.4-.1-1 0-1 .5.1.9 1 1 1.7 1.2.5 0 1.1.1 1-.4zM71.7 36.2c0-.2-.1-.4-.3-.4-.2 0-.3.2-.4.3-.5 1.2-.6 2.4-.1 3.7.5-1.2.7-2.4.8-3.6zM71.9 44.6c0-.6-.1-1.1-.2-1.7 0-.2-.1-.4-.3-.4-.2 0-.3.2-.4.3-.1.3-.1.6-.1.9 0 .4 0 .7.1.9.1.5.1 1.5.7 1.4.7-.1.2-.9.2-1.4zM40.5 30.5c-.2.5.2 1 .5 1.4.3.3.6.5 1 .3.6-.4.1-.8-.1-1.2-.1-.2-.2-.4 0-.5-.1.1-.2.1-.2.1-.4-.2-.9-.8-1.2-.1zM41.9 30.4c.1-.1.1-.1 0 0 .1-.1.1-.1 0 0 .1-.1.1-.1 0 0zM93.8 46.5c.2.6.6 1.1 1.3 1.2.4 0 .5-.3.5-.6-.2-.6-.5-1.1-1.3-1.1-.3-.1-.5.2-.5.5z"/><path class="st0" d="M86.2 28.6c-.6.1-1.1.4-1.2 1.1 0 .3.2.5.5.4.6-.1 1-.5 1.2-1 0-.4-.2-.5-.5-.5zM86.6 30.8c-.3 0-.7 0-.8.4 0 .5.4.7.9.7.4 0 .6-.1.7-.6-.1-.3-.4-.4-.8-.5zM40.3 35.2zM40.3 35.2c-.5.1-.9.2-.6.8.1.3.4.6.7.6.8-.1.3-.7.5-1.1-.3.1-.5 0-.6-.3zM40.9 35.5z"/></svg>