<svg version="1.1" id="Calque_1" xmlns="http://www.w3.org/2000/svg" x="0" y="0" viewBox="0 0 126.4 85.6" style="enable-background:new 0 0 126.4 85.6" xml:space="preserve"><style>.st0{fill:#f8ac2b}</style><path class="st0" d="M75.7 70.6c.1 0 .1 0 0 0 .3.3.6.5.9.3.2-.2.1-.5-.1-.7-.5-.8-.8-1.6-1.5-2.2-.9-.8-1.3-3.1-.7-3.3 1.4-.4 2-1.7 2.9-2.6 1.3-1.2 1.6-4.1.4-5.5-.3-.3-.6-.5-.4-1 .9-1.8.2-3.5-.5-5.2-.3-.7-.8-1.6-.3-2.1s1.2.4 1.8.6c1.9.8 3.8 1.3 5.5 0 1.6-1.2 1.7-3 1.6-4.8 0-.4-.2-.8-.3-1.1-.1-.2-.4-.5 0-.7.2-.1.5 0 .7.2.4.4.8.8 1.4.9.3.1.6.3.8-.1.2-.4-.1-.6-.4-.8-.8-.4-1.3-1.2-2-1.8-1.5-1.3-3.1-2.4-5.3-1.6-1.2.4-2.2 1.1-3.2 2.1-.3-.5-.3-1-.4-1.5-.3-1.6-.7-3.3-1-4.9-.1-.5-.4-.7-.8-.7-.5 0-.6.3-.7.6-.1.4-.2.8-.3 1.1-.6 3.7-1.3 7.5-1.9 11.2-.1.6.1 1.1.3 1.7.8 2.2 2.2 4 3.3 6 .2.3.9.8.2 1.2-.7.4-1.2 1.6-2.2 1-1.4-.8-2.4-.5-3.4.5-.4.4-1 .7-1.6.9-1 .4-1.1 1.1-.4 1.7 1 .9 1.8 2 3.3 2.3 1.3.3 1.8 1.2 1.6 2.5-.3 2.2-1.9 3.8-4.2 4.3-1.3.3-2.3.9-3.3 1.6-.3.2-.9.5-.6 1 .3.6.9.2 1.3 0 1.4-.9 3-1.4 4.5-2.1 2.7-1 2.9-1.1 5 1zm1.6-27.7c.5-.5 1.1-.9 1.7-1.3.3-.2.8-.3 1.1.1.3.3.2.7.1 1-.1.4-.5.5-.9.4-1-.3-1 .4-.9 1 .2 1.7 1.3 2.9 2.4 2.8 1.1-.1 1.8-.6 1.9-1.8 0-.5 0-1-.1-1.5-.2-1.6-1-2.3-2.7-2.5 1.5-.9 2.2-.8 3.1.3 1 1.5 1.2 3.2.9 4.9-.3 1.4-1.7 2.1-3.1 1.9-1-.1-2-.4-2.9-.9-1.6-.9-1.9-2.9-.6-4.4zm-1.7-4.2c-.4 1.8-1.2 3.2-2 4.5.7-1.3.1-3.2 2-4.5zm-2 9.4c-.3 0-.4-.3-.5-.5 0-.2-.1-.6.1-.7 1.1-1.1 1.6-2.7 2.4-4-.1 1.2 0 2.3-1 3.3-.4.4-.5 1-.7 1.6.1 0 0 .3-.3.3zm1.2 2.7c-1-.9-.1-1.6.2-2.4.1.8.4 1.7-.2 2.4zm1.1 2c-.7-.6.1-1.2 0-1.7.2.5.9.9.4 1.6-.1.1-.3.3-.4.1zm-3.2 8.6c-.4-.9-1.2-1.4-2.2-1.4-.4 0-.7 0-1.1-.5 1.1-.3 2.1-.5 2.8-1.4.2-.2.5 0 .7.1.9.2 1.8.2 2.7-.4.3-.2.6-.7 1-.4.4.4.6 1 .3 1.5-.7 1.1-1.3 2.3-1.5 3.6-.1.4-.4.5-.8.3-.7-.3-1.5-.5-1.9-1.4zM60 67.7c-1.7-.4-2.9 0-4 .7-1.3.9-2.7 1.7-3.8 2.9-1.6 1.9-3.7 1.9-5.9 2-.3 0-.7.1-.8-.3-.2-.4.2-.5.5-.7 2.1-1.7 4.3-3.3 6.8-4.6.7-.4 1.6-.5 2.2-1.2-.4-.3-.6-.1-.9 0-3.3 1.2-6.4 3-9.1 5.2-.5.4-.9.8-1.6.6-1.5-.5-3.1-.9-4.7-1.4-.3-.1-.8-.1-.9-.5-.1-.5.5-.6.8-.8 5-3 10-5.9 16.1-5.5.3 0 .7.1.7-.3s-.4-.4-.7-.5c-2-.6-3.9-.3-5.9.2-4.1 1-7.7 3-11.2 5.3-.9.6-1.6.6-2.4-.1-.6-.5-1.4-.9-1.9-1.6-.8-.8-1.5-1.7-2.9-2.5.6 1.4 1.5 2.2 2.4 2.9.7 1 1.9 1.6 2.9 2.5-2.2 1.5-4.4 2.9-6.4 4.6-.2.2-.8.3-.5.8.3.4.5-.1.7-.2 2.3-.8 4-2.4 6.1-3.7.5-.3.9-.7 1.6-.3 1.7.9 3.5 1.8 5.7 2.1-1.6 1.7-3.4 3.1-4.4 5 1.9-1.1 3.4-2.6 5.1-3.9.4-.4.9-.9 1.5-.6 1.1.5 2.3.6 3.5.8-1 1.2-2.1 2.1-3 3.1-1 1-1.8 2.1-2.9 3.3.9 0 1.3-.4 1.7-.8 1.2-1.1 2.4-2.3 3.7-3.4.7-.6 1.4-1.4 2.4-1.6 2.2-3.5 5.4-5.9 9.5-7.5zM60.4 46.9c.4.3.8.8 1.2.4.6-.4 0-.9-.2-1.2-.7-1-1.3-2.1-2-3.1-2.2-3.3-4.5-4.2-8.3-3.1-1.8.5-3.8 1-3.6 3.7.1 1.5 0 2.9.8 4.3.7 1.1 1.8 1.6 2.7 2.4 1.6 1.5 3.2 1.5 5 .3.8-.6 1.7-.7 2.6-.7.6 0 1.1.1 1.7.1.4 0 1 .2 1.1-.4.1-.5-.6-.6-1-.7-.5-.1-1.1-.2-1.7-.2.3-.8.7-1.6 1-2.5.4.3.6.5.7.7zm-2-1.2c-.3 1.6-1.6 2.4-2.6 3.4-1.5 1.5-2.1 1.6-3.8.4-1.4-.9-2.9-2-2.8-4 0-1.3.3-2.5.9-3.6.7-1.3 2.1-1.4 3.3-1.5 2.6-.3 5.5 2.8 5 5.3zM104.4 72c-3.7-2.7-7.9-4.5-11.9-6.5-1-.5-2-.9-1.7-2.3 0 0-.1-.1-.2-.1-.6 1.3-.6 1.3-2 .7-1.4-.5-2.8-1.2-4.3-1.5-.7-.1-1.4-.4-2.3.1 2.4 1.1 4.9 1.5 7.1 2.8-.5.4-.9.7-1.5 1.2.5 0 .7.1.8 0 1.2-.9 2.2-.5 3.4.1 3.4 1.8 6.7 3.9 10.3 5.4.9.4 1.8.7 3.1.7-.5-.3-.6-.5-.8-.6z"/><path class="st0" d="M57.4 75.3c.8-1.2 1.5-2.5 2.2-3.8.5-1 1-2 1.2-3.3-1 .6-1.4 1.5-1.8 2.2-1.2 2.1-2.3 4.2-4.2 5.9-1.2-1.2-2.6-1.5-4.2-1.1.5.5.6 1-.3 1.3.8.3 1.4.1 1.9.1.8-.1 1.6-.4 2.4.2-2.3 3.1-5.3 5.6-8.1 8.4.8.3 1.3-.1 1.8-.4 1.9-1.3 3.5-2.8 5.1-4.4 1.3-1.3 2.2-3.2 4.5-3.4-1.1-.4-1-.9-.5-1.7zM93.1 59c.1-1 .2-1.9.4-2.9.2-.7.1-1.4.6-2 .7-.9 1-2.1.8-3.1-.4-1.5.1-3.3-1.1-4.6-.1-.1 0-.3.1-.4.2-1.5-.8-2.8-.8-4.3 0-.3-.5-.7-.8-1-.2-.1-.7-.1-.5.3.9 1.6.6 3.4 1.4 5-.1.7.1 1.5.2 2.2.1 1.1 1.1 2.3.7 3.3-.9 2.5-.9 5.1-1.6 7.5-.3 0-.6 0-.9-.1-.1-.1-.3-.1-.4-.2-3.9-1.1-7.5-.8-9.1 1 3.6-.7 6.9-.5 10.1.4.2.5-.3.4-.5.6-.3.3-.3 1 0 .9.9-.3.7.7 1.3.9.1-.7.1-1.4.2-2h.3c.2.1.4.1.6.2l9.9 3c-.3-.5-.6-.9-1-1.1-1.6-1.1-3.5-1.6-5.4-2.2-1.5-.5-3.1-.6-4.5-1.4zM27.9 25.1c1.2 3.8 3.5 7.1 5.3 10.6.1.2.3.4.6.2-.1-1.2-.7-2.3-1.3-3.3-2.2-4.4-5.1-8.6-4.7-13.9.1-.8-.2-1.8-1.6-2.4.8 1.5 1 2.8.9 4.1-.1 1.6.3 3.1.8 4.7zM95.2 74.1c-2-1.1-4.3-1.9-6.2-3.3-1-.7-2.1-1.3-2.7-2.4.4-.4 1.1-1 .6-1.4-.5-.4-.7.7-1 1.1l-.1.1c-.2-.1-.4-.2-.5-.4-.7-.7-1.4-1.4-2.3-1.9-.3-.2-.8-.5-1.1 0-.3.4.2.6.5.8.9.8 1.7 1.6 2.6 2.4 0 .1 0 .2.1.3.4.3.8.5 1.2.8 2.1 1.8 4.5 3.2 7.1 4.2.8.3 1.7.6 2.6.5-.2-.6-.5-.7-.8-.8zM41.4 34.8v.3c.3 0 .5.1.8.1 2.5-.2 5-.8 7.4-1.2 2.2-.4 4.4-.7 6.3 1 .2.1.4.2.7 0-.5-1.4-1.5-2.1-3-2.3-2-.3-3.9.2-5.9.7-2.1.4-4.2.9-6.3 1.4zM35.9 34.9s.1 0 0 0c.1 0 .1 0 0 0 .1 0 .1 0 0 0 .1 0 .1 0 0 0zM35.4 34.6zM34.8 35.5c.6 1.1 1.7 1.5 2.6 2.2 2.2 1.7 4.6 2.9 7.4 2.9 1.5 0 3.1.1 4.6-.8-.7-.3-1.2-.2-1.7-.1-3.1.4-5.9-.2-8.5-1.8-1.2-.8-2.6-1.4-3.2-2.9-.4.3-.5 0-.5-.3-.2 0-.3-.1-.3-.3-1.2 0-.6.6-.4 1.1zM45.9 30.3c1.2 1.1 2.8.6 4.1 1 .2.1.4-.1.4-.4.3-1.1-1.7-3.3-3-3.2.2.6 1.1.8 1.1 1.6v.3c-.1 0-.2-.1-.3-.1-.4 0-1.2-.5-1.1-.1.5 1.4-1 .3-1.2.9zM38.6 33.8zM38.6 33.8c-.1-.2 0-.3.2-.3s.4.1.4.3c.5-.2 1 .3 1.5.3.4 0 .9.1 1-.4.1-.5-.4-.5-.7-.6-1.5-.4-2.8-1.2-4-2.3-.3-.3-.6-.6-1.2-.6.3 1.3 1.2 1.9 2 2.6.3.2 1 .3.6.9.1 0 .1 0 .2.1zM64.3 50.5c-.2-.2-.4-.6-.7-.4-.4.2-.1.6 0 .8.7 1.5.7 2.9-.3 4.3-.2.2-.4.5-.2.9 2.2-1.1 2.7-3.8 1.2-5.6zM40.2 31.4c1 1.4 2.4 1.7 3.9 1.9.3 0 .7-.1.8-.5 0-.3-.2-.4-.4-.4-1.5-.2-2.6-1.5-4.3-1zM81.7 30.5c0-.2-.8-.3-.8-.8-.3 0-.5.2-.6.4-.3.5-.4 1-.7 1.4-.6.7 0 .9.4 1.2.4.2.7.1.9-.2.5-.7.9-1.3.8-2zM25.4 57.3c-.5-.2-.8-.4-.3-.9.2-.2.2-.5 0-.7-.3-.2-.6-.1-.8.1-.4.5-.9.8-.2 1.5.8.8 1.8 1.1 2.9 1.8-.3-1.1-1-1.4-1.6-1.8zM67.3 50.8c1 1.8 1.7 3.4 2.6 5.1.3-1.7-1-4.2-2.6-5.1z"/><path class="st0" d="M25.1 50c.5-1.4 0-3 .5-4.4.5-1.6.7-3.3 1.9-4.7.5-.6 1.8-.5 1.6-1.3-.1-.7-.9-1.3-1.5-2s-1.3-1.4-2-1.9c-.4-.3-.7-.7-1-1.2-1-2.2-1.4-4.6-1.5-7 .4.8 1.3 1.3 1.4 2.2.3 1.8 1.5 3.1 2.6 4.4.5.6 1 1.2 1 2.1 0 .6.3 1.2.9 1.3 1.2.2 2.4-.1 3.8-.6-1.2-.4-2 .1-2.8 0-.4-.1-1-.2-1-.9-.1-1.2-.8-2-1.5-2.8-.8-.9-1.4-1.9-1.8-3.1-.5-1.4-1-2.8-1.9-4-.3-.7-.7-1.3-.7-2-.2-3.2-1-6.3-.5-9.5.4-2.9-.3-6.1 2.7-8.2 1.2-.9 2.4-1.4 3.6-.9 2.1.9 4.3 1.7 6 3.5 2.7 2.9 5.6 5.6 8.3 8.6 1.9 2 3.8 3.9 5.2 6.3 1 1.8 1.8 3.6 2.4 5.5.1.5.3.9.5 1.4.4-3.3-.6-6.1-2.6-8.7 1.8 1.2 3.8.9 5.6.7 2.2-.2 4.3-.9 6.5-.1.4.1 1 .2 1.3 0 1.1-.7 2.3-.3 3.5-.3.7 0 1.5 0 2.1-.5.4-.3.9-.1 1.2.1 1.2.8 2.5 1.5 3.3 2.8.9 1.5 2.3 2.7 2.8 4.5.1.3.3.6.6.7.7.2 1.7.5 1.9.8.3.7-.8 1.3-.9 2.1 0 .1.1.1.2.4 2.1-2 3.6-4.5 5.7-6.4 2.1-2 4.2-3.9 6.9-5.5-.1 1 .2 1.8-.3 2.4-1.2 1.5-1.5 3.4-1.9 5.2-.5 2.3-.9 2.7-3.2 2.5-.5-.1-1 0-1.3.4-.8.7-1.4 1.5-2 2.4 1.3.6 1.9-1.1 3.2-.7-1.4.7-.4 1.4-.1 2.1.3.7 1 .1 1.4.1.9-.2 1.8-.2 2.8-.2.7.1 1.6 0 .8 1.1-.2.3-.1.7.4.8.5.5 1.3.9 1.4 1.8.1.4.4.7.8.5.4-.2.2-.7 0-.9-.5-.7-1-1.3-1.5-2 .5-.7 1.1-.4 1.8-.2 3.6 1.3 8.4 0 10.2-2.7-1.1.1-2 .8-2.9 1.3-2.2 1.1-4.5 1.5-6.9.7-.7-.2-1-.5-.7-1.2.4-1.1.6-2.2.5-3.4-.1-.8.3-1.2 1-1.4l7.2-2.4c.2 0 .3 0 .3-.2s-.2-.3-.3-.2c-2.5.2-4.9.8-7.2 1.6-.3.1-.9.6-1-.2-.4-2.2-1.9-4.1-1.3-6.6.2-1 .5-1.8 1.4-2.3 1.4-.8 2.6-1.7 3.9-2.5-1.8 0-3.1 1.2-4.8 1.8.1-1.3.4-2.4.3-3.5-.2-1.7.1-3.3.8-4.9 1.3-2.9 1.2-6.2 1.9-9.2-.3-.6-.1-1.2-.5-1.4-.4-.2-.7.3-.9.6-1 1.4-2.4 2.3-3.7 3.3-2.1 1.7-4 3.3-5.7 5.4-2.5 2.9-5.5 5.3-8.2 8.1-3 3.1-6.6 4.1-10.9 3.9-1.7-.1-3.5.4-5.2 0h-.4c-2.3.3-4.6.6-6.9.1-.4-.1-.8-.1-1.1.2-.2.1-.4.2-.6.1-1.4-1.1-3.2-1.4-4.3-3.1-1-1.7-2.6-3.1-4.1-4.4-1.6-1.4-3-2.8-4.4-4.4-1.7-1.9-3.6-3.3-6-4.2C28.9 4.6 26.6 4 25 2c-.8-1-.6.4-.8.6-.6-.2-.7-.8-1.1-1.2-.1-.2-.4-.3-.6-.1-.1.1-.2.3-.1.5.1.3.2.7.3 1 .1.5.1 1.3-.2 1.3-1.5.3-.4 1-.2 1.3.5.9.7 1.8.1 2.7-.2.3-.4.7-.4 1.1-.5 3.4-.9 6.7-.5 10.2.2 2.4.7 4.7.6 7.2-.1 3.1-.2 6.3 1.9 9.2 1.1 1.5 1.6 3.4 1.4 5.4-.2 1.7-.1 3.4-.5 5 0 .1-.1.3-.1.4v3.2c-.4 1.4-1.1 2.6-1.2 4.2 1.6-1 1.4-2.6 1.5-4zm48.7-25c-.5-.7.9-3.2 2.7-4.9.1.7 0 1.3-.5 1.8-.9.9-1.5 2-2.2 3.1zm16.9 6.2c0 .6-.1 1.2-.2 1.8-.3 1.9-.5 2-2.4 1.4-.1-.3.3-.4.4-.6.1-.2.2-.4.1-.5-.1-.2-.4-.2-.6-.1l-.6.3c-.6.4-1.1 0-1.4-.3-.3-.4.2-1 .5-1.2 1.2-.6 2.4-1 3.6-1.4.5-.1.6.3.6.6zm-.2-2.5c.1.4 0 .7-.4.9l-2.4.9c.6-1.4 1-2.8 1.4-4.1.1-.2.1-.6.4-.6.3 0 .5.3.5.5.1.7.3 1.6.5 2.4zm-9-16.5c2.1-1.9 3.9-4.1 6.2-5.8 1.2-.9 2.4-1.7 3.9-1.9.3-.1.9-.2.7.4-.5 1.5-.2 3.3-1.1 4.7-.9 1.6-.7 3.3-1.1 5-.3 1.6-.5 3.2-.6 4.8 0 .6-.5.8-.9 1-3.1 2.2-6 4.6-8.6 7.5-.4.4-.7.5-1.2.4-.7 0-1.5-.3-1.7.8 0 .2-.2.4-.5.4-.4-.1-.3-.4-.3-.6v-.7c.6-4.3 1.2-8.6 2.8-12.7.6-1.4 1.4-2.4 2.4-3.3zm-9.1 10.5c1.4-1.6 2.1-3.7 3.6-5.1.2-.2.3-.4.9-.3-1.6 1.7-2.7 3.7-3.8 5.6-.1.2-.2.6-.5.4-.3-.1-.4-.4-.2-.6zm-.3-1.8c-.2.4-.2 1.1-.9 1.1-.1 0-.4-.3-.4-.3.2-.5.8-.6 1.3-.8zm-23.5.8c0 .1.1.1.1.2-.1 0-.1.1-.2.1s-.1-.1-.2-.2c.1-.1.2-.1.3-.1zM26.8 59.9c1.5 2.2 2.7 3.3 3.7 3.5-.8-1.5-2.6-3.2-3.7-3.5z"/><path class="st0" d="M46.7 32.4c.2 0 .5-.1.6-.4.1-.3-.2-.4-.5-.5-.9-.3-1.8-.5-2.7-.7.5 1.2 1.5 1.6 2.6 1.6zM35.4 34.6zM35.2 34.3c-.1.1 0 .1 0 0 0 .1 0 .1 0 0 0 .1 0 .1 0 0zM35.4 34.6c.3-.2.4.1.5.3.7.3 1.4.5 1.8-.3.6.3 1.2.6 2 .1-.2-.3-.7-.3-.6-.8-.2.1-.3.1-.5 0v.2c-.1 0-.1-.1-.2-.1 0 0 0-.1.1-.1 0 0-.1 0-.1.1-.3-.1-.5-.1-.8-.2-.5-.8-.8.7-1.4.1-.9-.8-.8.2-1 .6.2-.2.3-.1.2.1zm3-.8zM73 77.4c-.3-.1-.4.3-.3.5.1.5 0 1.2.6 1.4.3.1.3-.3.3-.6-.1-.4 0-1.1-.6-1.3zM39.1 33.8zM38.6 33.8zM61.3 61c0-.4-.3-.6-.7-.6-.4 0-.5.3-.5.6 0 .4.2.7.7.6.3 0 .5-.2.5-.6zM64.3 64.6c0-.4-.3-.5-.6-.5-.3.1-.6.3-.6.6 0 .4.3.6.7.6.3-.1.5-.4.5-.7zM65.8 64.6c0 .4.2.6.6.6.4 0 .5-.2.6-.6 0-.4-.2-.6-.6-.6-.4 0-.6.2-.6.6zM64.6 68.1c.2-.1.4-.2.4-.5s-.2-.6-.6-.5c-.3 0-.5.2-.5.5.1.3.3.5.7.5zM60 65.1c0 .4.2.6.6.6.3 0 .5-.2.5-.5s-.2-.6-.6-.5c-.3-.1-.5.1-.5.4zM66 78.2h-4.1v-.1h-.1v-.6c0-.3.1-.7.1-1 .2-1.7.5-3.5.2-5.3-1.1 1.9-1.1 4-1.2 6-.8.1-1.6.3-2.3.7-.2.1-.5.2-.4.5.1.3.4.3.7.3.6.1 1.2-.6 1.9-.2 0 2.3-.1 4.7.5 7 .2-1.8.4-3.5.5-5.2 0-1.3.5-1.6 1.6-1.4.9.1 1.8.2 2.7-.3.5.1 1 .4 1.5-.1.2-.1.1-.3 0-.5-.6-.3-1.1.3-1.6.2zM83.4 69.7s0-.1 0 0c0-.2 0-.4-.2-.4s-.2.2-.1.4c-.1.4-.2.8-.2 1.2-.1 0-.2.1-.2.1-1 1.4-2.7 2.1-3.9 2.1-1.6 0-1.5 1-2.1 1.7-.1.1-.2.3-.4.4-1.3.5-1.5 1.8-2 2.8-.1.3-.3.6.1.8.3.1.5-.2.6-.4 1-2 2.8-3.1 4.4-4.5.3-.2.6-.5.9-.5 1.4 0 2-1 2.7-1.8.7.2.5.9.7 1.3 1 3.5 1.9 7 3.5 10.3.3.7.7 1.4 1.5 1.7.1-.9-.2-1.5-.5-2.1-1.6-3.6-2.8-7.3-4-11.1-.2-.7-.3-1.1-.2-1.5.5-.2.8-.5 1-1 0-.1 0-.2-.1-.3-.4.4-.7 1-1.5.8zM53.9 44.2c-.6.1-1-.1-1.4-.5-.2-.2-.1-.7-.6-.6-.4.1-.6.5-.6.9-.2 1.2.1 2.3.7 3.3s2.3 1.1 3.1.2c1-1.1 1.3-3.3-.2-5.1-.2.8-.1 1.6-1 1.8z"/></svg>