<?xml version="1.0" encoding="utf-8"?>
<!-- Generator: Adobe Illustrator 25.4.1, SVG Export Plug-In . SVG Version: 6.00 Build 0)  -->
<svg version="1.1" id="Calque_1" xmlns="http://www.w3.org/2000/svg" xmlns:xlink="http://www.w3.org/1999/xlink" x="0px" y="0px"
	 viewBox="0 0 126.4 85.6" style="enable-background:new 0 0 126.4 85.6;" xml:space="preserve">
<style type="text/css">
	.st0{fill:#F8AB2A;}
	.st1{fill:#FAB640;}
</style>
<path class="st0" d="M107.9,45.1c0.5-0.6,1-1.2,1.6-1.7c0.5-0.5,0.7-0.8,0.1-1.4c-1-1.1-0.4-1.6,0.8-1.9c0.3-0.1,0.7-0.1,1-0.1
	c0.7-0.1,1.5-0.1,1.7-0.7c0.2-0.6-0.5-1-1-1.4c-1-0.8-1.2-2.4-2.6-2.8c-0.2-0.1-0.3-0.5-0.3-0.7c0.1-0.4,0.5-0.4,0.8-0.4
	c1.4,0.1,2.8,0.1,4.2,0.3c2.1,0.3,4.2,0.3,6.7,0c-1-0.9-2-1-2.9-1.1c-1.5-0.1-3-0.5-4.4-1.1c-0.6-0.3-1.5-0.6-1.3-1.3
	c0.2-0.8,1.1-0.3,1.7-0.4c3.3-0.6,6,1.3,9,2.1c0.3-0.8-0.4-1-0.7-1.3c-2.3-2.2-4.3-4.5-5.6-7.4c-0.3-0.7-0.7-1.2-1.6-1.1
	c-0.5,0-0.9,0-1.4-0.2c-0.6-0.2-1.3-0.4-1.2-1.1c0.1-0.8,0.8-0.7,1.4-0.8c1.2,0,2.3,0,3.6,0c-1.8-2-3.6-2.5-5.7-1.7
	c-1.6,0.6-3.2,0.9-4.9,0.2c-0.6-0.2-1.1-0.6-1-1.3c0.1-0.8,0.8-0.8,1.4-0.8c1.3,0,2.5,0.2,3.8-0.5c-2.8-1-5.4-2.1-8.4-1.7
	c-1,0.2-1.9,0.2-2.6,1.2c-0.4,0.5-1,1-1.7,0.4c-0.7-0.6-0.3-1.2,0.1-1.8c0.3-0.5,0.7-1,1.1-1.6c-2.7-0.3-5.2-1-7.6,0.3
	c-1.5,0.8-2.9,0.1-4.4,0.8c0.1-0.5,0.1-0.8,0.2-0.9c1.7-2.3,1.6-2.2-0.2-4.5c-1.1-1.5-1.8-0.8-2.6,0.2c-0.5,0.6-0.6,1.6-1.7,1.8
	c-0.5-0.7,0-1.4,0.3-1.8c1.3-1.8,0.6-2.1-1.2-2c-5.1,0.5-9.9-0.6-14.4-3.2c-1.3-0.8-3.9,0.5-4.2,2C63.8,6,63.8,6.6,63.2,7
	c-0.7-0.2-0.5-0.9-0.5-1.3c-0.2-2.1-1-2.8-3.1-2.7c-0.7,0-1.4,0.2-2,0c-2.4-0.9-4.5-0.1-6.5,1.2c-2.3,1.6-4.9,0.7-7.3,0.7
	c-0.8,0-1.9-0.6-2.4,0.1c-0.5,0.6,0.4,1.3,0.7,2c0.2,0.6,0.7,1.3,0.1,1.6c-0.7,0.5-1.2-0.3-1.6-0.8c-0.4-0.4-0.5-1.2-1.3-0.6
	C36.7,9.1,33.8,8,31,7.9c-0.7,0-1.4-0.2-2.1,0.4c0.7,0.8,1.4,1.5,2,2.2c0.3,0.4,0.6,0.8,0.2,1.3c-0.3,0.5-1,0.4-1.3,0.1
	c-2.4-2.3-4.6-0.2-7,0.4c1,0.4,2,0.9,3,1.3c0.4,0.2,1,0.4,0.9,0.9c-0.1,0.7-0.7,0.7-1.3,0.7c-0.1,0-0.3,0.1-0.4,0
	c-2.7-1.4-4.8,0.7-7.4,1.3c1.3,1,2.5,1.7,3.5,2.6c0.5,0.4,1.3,0.8,1,1.5c-0.4,0.9-1.3,0.3-2,0.1c-1.6-0.5-3-1.4-4.3-2.5
	c-0.9-0.8-1.7-0.9-2.7,0.1c0.6,0.6,1.9,0.5,1.6,2c-0.1,0.7,1.1,0.2,1.7,0.3c0.6,0.1,1.3-0.1,1.5,0.7c0.2,0.8-0.5,1.1-1.1,1.2
	c-3.1,0.4-5.5,2.4-8.3,3.6c-1.6,0.6-3.1,1.1-4.9,0.6c0.1,1.2,1,1.5,1.7,1.6c2.3,0.5,4.6,1.2,7.1,0.9c0.5-0.1,1.1-0.2,1.6-0.1
	c0.7,0.1,1.7-0.4,1.8,0.6c0.1,0.8-0.8,1.2-1.5,1.4c-2.2,0.5-4.1,1.9-6.4,2.4c3,0,5.9,1,8.8,1.3c1.5,0.1,2,0.4,1.4,1.9
	c-0.4,1-0.9,2-1.7,2.6c-1,0.8-0.8,1.5-0.1,2.3c0.8,0.9,1.5,2,2.6,2.4c1.8,0.7,1.5,1.8,0.8,3c-0.2,0.3-0.5,0.6-0.7,0.9
	c-1.7,1.8-1.7,1.8,0.2,3.5c0.7,0.6,2.3,1.2,0.1,2c-0.4,0.1-0.7,0.8-0.5,1c0.5,0.6,1.1,1.2,1.7,1.4c1.8,0.4,2,1.8,2.2,3
	c0.2,1.9-0.1,3.9-0.2,5.8c-0.1,0.8,0.2,2.1-1,2c-0.8-0.1-1.5-1.5-1.2-2.4c0.4-1.1,0.1-2.1,0.2-3.2c-1.1,0.6-0.5,1.7-0.8,2.5
	c-0.2,0.4-0.4,1-0.9,1c-0.4,0-0.5-0.5-0.7-0.9c-0.6-1.5-0.7-2.9,0.2-4.4c0.3-0.5,0.6-1.2,0.2-2c-1.3,0.9-2.8,1.4-4.3,1.7
	c-0.4,0.1-1,0.5-1.3,0.1c-0.4-0.5,0.1-1,0.4-1.4c1.1-1.2,2.3-2.4,3.5-3.6c0.8-0.7,0.9-1.3,0-2.1c-0.8-0.7-1.4-1.7-1.5-2.7
	c0-0.9,0.1-1.9,1.3-2.2c0.7-0.2,1.2-0.8,1.6-1.7c-2.1-0.2-3.6-1.3-4.4-3.2c-0.8-1.9-1.1-3.6,1.6-4.9c-2.2-0.8-3.6-1.9-5.6-1.4
	c-1,0.3-2,0-2.9-0.5c-1.7-0.8-1.9-2.7-0.3-4.7c-3,0.3-3.7-2.6-5.7-3.8c-0.7-0.5-0.1-1.2,0.6-1.5c1.2-0.6,2.5-1.4,3.8-1.7
	c1.7-0.3,3.7-0.1,3.8-2.9c-1.1-0.5-2.6-0.8-3.8-1.7c-0.5-0.3-1.3-0.4-1-1.2c0.2-0.7,0.8-0.8,1.5-0.8c1.9,0,3.7,0.3,5.5-0.5
	c0.6-0.3,1.3-0.2,1.4-1.3c0-1.2,1.1-1,1.9-0.8c2,0.5,3.8-0.3,5.6-0.9c-0.3-0.7-1-0.8-1.5-1.2c-0.5-0.3-1.2-0.5-1.1-1.2
	c0.2-0.7,0.9-0.8,1.4-0.9c1.8-0.4,3.7-0.2,5.5-0.9c0.7-0.3,1.7-0.3,0.9-1.5c-0.3-0.4-0.1-1.1,0.4-1.1c1.4-0.1,2.4-1.1,4-0.9
	c3,0.3,6.1,0.6,9.1-0.4c0.5-0.2,1-0.2,1.2-0.9c0.6-1.8,2.4-2.7,4.2-2c4,1.5,7-0.3,9.9-2.6c0.4,0,0.8,0,1.2,0
	c2.6,1.2,5.6,0.8,8.1,2.4c0.1,0.1,0.5-0.1,0.7-0.2C66.6,1.4,69,1,71.5,2.4C72.7,3,74,3.5,75.2,4.2c2.5,1.4,5.3,0.4,7.9,0.5
	c2.2,0.1,4.2,0.2,5.9,2.1c1.9,2.2,4.2,3.6,7.3,3.3c1.5-0.2,3,0.4,4.6,0c1.2-0.2,2,0.1,1.9,1.5c-0.1,0.5,0,0.9,0.7,0.9
	c4.3,0.2,8.4,0.8,12,3.8c1.6,1.4,3.6,2.6,5.3,3.9c0.4,0.3,0.8,0.5,0.6,1.1c-0.2,0.5-0.6,0.6-1.1,0.7c-0.8,0.1-1.6,0.1-2.3,0.6
	c0.1,0.7,0.7,1.1,1,1.7c1.9,3.3,5.5,5.2,7.3,8.5c0,0.4,0,0.8,0,1.2c-3.8,1.6-7.6,3.5-12,2.8c0-0.1-0.1-0.1-0.1-0.2c0,0,0,0.1,0,0.1
	c0,0,0.1,0,0.2,0.1c0.5,1,1.3,1.6,2.2,2.2c1,0.7,1.5,1.8,2,2.9c0.2,0.6,0.4,1.2-0.2,1.6c-0.5,0.4-1,0.3-1.5,0.1
	c-0.1-0.1-0.2-0.1-0.4-0.2c-0.8-0.5-1.7-1.1-2.5-1.6c-1.9-1.2-1.2,0.8-1.6,1.4c-0.5,0.8-1.6,1.2-1.7,2.4c0,0.2-0.4,0.3-0.6,0.5
	c-0.2,0.1-0.4,0.2-0.5,0.2c-0.3,0-0.6,0.1-0.8,0.1c-0.4,0-0.8-0.1-1.1-0.1c0.1-0.1,0.1-0.3,0.2-0.4
	C107.8,45.6,107.9,45.4,107.9,45.1z"/>
<path class="st0" d="M92.5,37c-0.4,3.3-3.9,7.2-7.4,8.1c-3.6,1-7-0.2-9.3-3.4c-1.2-1.7-3-2.5-4.2-4.1c-2.6-3.5-2.8-4.7-0.6-8.4
	c0.2-0.3,0.4-0.7,0.6-1c1.4-2.4,3.2-4,6.1-4.5c2.6-0.4,5.1-1.4,7.2-3.2c1-0.8,1.7-0.2,1.4,0.8c-0.6,2.2,0.3,2.8,2.3,2.7
	c0.9,0,1.7,0.1,2.6,0.2c0.6,0.1,1.4-0.1,1.7,0.8c0.2,0.9-0.5,1.1-1.1,1.4c-0.3,0.2-0.6,0.4-1.2,0.8c1.9,1,3.7,1.9,5.4,2.7
	c0.6,0.3,1.4,0.4,1.2,1.3c-0.2,0.8-1,0.8-1.7,0.7c-0.8-0.1-1.7-0.4-2.6-0.1c0.3,1.3,0.9,2.5,0.3,3.9C92.5,35.9,92.3,36.4,92.5,37z
	 M74.4,32c0.3-0.1,0.6-0.3,0.9-0.4c2.6-0.9-0.4-1.4-0.1-2.1c2-1.6,3.8-3.6,6.6-4c0.8-0.1,1.4-0.5,1.1-1.5l0.1,0l0,0
	c-1.6,1-3.4,1.2-5.1,1.8c-4.1,1.4-6.7,4.9-6.1,8.1c-0.1,0.4,0,0.8,0.4,1c0.4,0.7,0.7,1.5,1.5,2.1C73.9,35.2,74.1,33.6,74.4,32
	L74.4,32z M84.1,30.1c-5.5,0.1-7.7,1.8-7.6,6.1c0.1,4.3,2.6,7.1,6.3,7c3.4-0.1,6.3-3.1,6.2-6.4C89,33.2,86.6,30,84.1,30.1z
	 M81.7,28.4c1.4-1,4.4,0.8,3.6-3.3C84.4,26.9,82.3,26.2,81.7,28.4z"/>
<path class="st0" d="M52.8,26.4c0,1.4,1.4,2.4,1.3,3.8c-0.1,3-0.6,5.8-3.1,7.9c-0.8,0.7-1,2.1-2.1,2.3c-3.2,0.5-6.1,2.3-9.5,1.9
	c-3.3-0.4-6.4-3.9-6.3-7.6c0-1.9-0.4-3.2-2.3-3.8C30,30.7,30,30.2,30,29.4c0-0.9,0.5-1.2,1.1-1.4c0.9-0.3,1.9-0.6,2.8-0.9
	c0-0.2,0.1-0.3,0-0.4c-0.7-0.8-2.1-1.5-1.4-2.8c0.6-1.2,2-0.7,3.1-0.7c1.9,0.1,3.8,0.8,5.7-0.6c-0.8-0.8-1.7-1.3-2.7-1.7
	c-0.5-0.2-1.2-0.2-1-1c0.2-0.6,0.8-0.7,1.3-0.6c3.3,0.3,6.4,1.2,9,3.3C49.5,23.9,51,25.4,52.8,26.4L52.8,26.4z M50,30.4
	c0-0.5-0.3-0.7-0.7-0.6c-0.1,0-0.2,0.1-0.2,0.2C49.3,30.2,49.7,30.3,50,30.4c0.4,0.7-0.7,1.1-0.5,1.9c0.6,0.1,1.2,0.2,1.3-0.5
	C50.9,31.2,50.7,30.6,50,30.4z M41.6,39.9c2,0.3,3.9-0.3,4.6-2.3c0.8-2.5,1.8-5.3-0.2-7.8c-0.2-0.3-0.5-0.6-0.9-0.8
	c-2.2-1-7.1,0.4-8.1,2.6c-0.5,1.2-1.9,2.1-1.7,3.6C36,38.4,38.2,40,41.6,39.9z M40.5,25.7c3.8-1.5,6.7-0.5,9,2.3
	c0.2,0.2,0.5,0.5,0.8,0.6c0.2,0.1,0.5,0.2,0.7,0.1c0.4-0.2,0.2-0.6,0-0.8c-0.4-0.5-0.8-1-1.3-1.5c-1.3-1.2-3-1.8-4.1-3.3
	c-0.9-1.1-2.5-1-3.3,0.1C41.8,23.9,41,24.5,40.5,25.7z"/>
<path class="st0" d="M52,76.4c1.6,0.1,1.9,1.6,2.8,2.8c0.4-1.3,0.7-2.4,1.1-3.6c0.1-0.4,0.3-0.8,0.8-0.8c0.5,0,0.5,0.5,0.6,0.9
	c0.3,1.8,2.4,0.9,3.1,2c0.8-0.5,2.2-0.3,2.1-1.8c0-0.3,0.2-0.6,0.6-0.7c0.4,0,0.6,0.2,0.7,0.5c0.5,1.9,2.7,2.8,3,4.9
	c0.7-1.1,0.4-2.6,1.5-3.2c1.2-0.6,2,0.5,3,1.6c0.5-1.9,0.8-3.5,1.2-5.1c0.3-1,0.5-2,2-1.3c1,0.4,1.3-0.1,1.1-1.1
	c-0.1-0.4-0.5-1,0.2-1.2c0.5-0.2,0.8,0.3,1,0.8c0.5,1.1,0.8,2.2,1,3.8c0.2-2.7,0-4.9-0.7-7.1c-0.1-0.4-0.4-0.8,0.1-1
	c0.5-0.3,0.9,0.1,1.2,0.5c0.6,0.7,0.8,1.7,1,2.6c0.3,1,0.6,2,1.7,3c0-2,0-3.7,0-5.4c1.2-0.2,1,0.9,1.5,1.2c0.7-0.2,0.1-1.3,0.9-1.3
	c0.6,0,0.7,0.8,0.8,1.2c0.4,1.5,1.7,1.3,2.6,1.3c1,0.1,0.5-1.1,0.6-1.7c0.2-1,0.2-2.1,0.3-3.2c0-0.5,0.1-1.2,0.7-1.3
	c0.8-0.1,0.8,0.8,0.9,1.3c0.1,1,0.1,2,0.1,3c-0.1,2.1-0.1,4.2-0.2,6.4c0,0.5,0.1,1.2-0.7,1.2c-0.6,0-0.9-0.4-1-1
	c-0.1-0.7-0.2-1.3-0.4-2c-0.2-0.7-0.5-1.6-1.5-1.4c0,0-0.1-0.1-0.1-0.1c0,0,0.1,0.1,0.1,0.1c0,1.1,0.8,2,1.1,3
	c0.2,0.5,0.5,1.1-0.1,1.5c-0.7,0.4-1.2-0.2-1.4-0.7c-0.6-1-1.1-2.1-1.9-3.6c-0.1,1.6-0.2,2.9-0.3,4.1c-0.1,0.7,0,1.6-0.8,1.9
	c-0.7,0.2-0.8-0.8-1.3-1c-0.2-0.1-0.4-0.2-0.7-0.4c-0.3,1.6-0.4,3-0.7,4.4c-0.2,1-0.7,1.8-1.6,0.3c-0.6-1.1-1.3-0.3-2,0.2
	c-0.4-2,0.4-4.1-1.6-6c0.1,3.3-2.4,5.4-2.1,8.5c0.1,0.6,0,1.6-0.8,1.6c-0.9,0.1-0.8-0.9-0.9-1.5c-0.3-1.1-0.2-2.4-0.9-3.6
	c-0.9,0.8-0.5,2-0.9,2.9c-0.3,0.7-0.6,1.4-1.4,1.5c-0.8,0.1-1.1-0.7-1.4-1.3c-0.6-1-0.7-2.3-1.7-3.4c-0.5,1.3-1,2.5-1.4,3.7
	c-0.2,0.5-0.1,1.2-0.7,1.3C61,84.9,61,84,60.6,83.5c-1-1.2-0.9-2.7-1.5-4.1c-0.3-0.7-0.6-1.5-1.4-1.5c-0.7,0.1-0.5,1-0.6,1.5
	c-0.4,1.7-1.3,3.2-2,4.7c-0.2,0.4-0.3,1-1,0.8c-0.6-0.1-0.5-0.7-0.6-1.2c-0.3-2.2-0.4-4.4-1.5-6.4C52,77.2,52,76.8,52,76.4z"/>
<path class="st0" d="M65.8,46.5c-1.5,1.9-0.2,3.1,1.3,4.5c0.7,0.6,0.6,1.3,0.3,2.4c-1.5,4.2-2.6,8.5-3.8,12.8
	c-0.5,1.9-2.2,2.5-3.5,3.4c-1.2,0.8-1.9-0.4-2.4-1.4c-1.3-2.2-1.6-4.6-1.8-7c-0.1-1.5-0.5-3-1.3-4.1c-1.8-2.5-1-4.6,0.5-6.7
	c0.6-0.9,1.4-1.6,0.4-2.7c-0.4-0.5-0.5-1.4,0.1-1.8c0.6-0.5,1.1,0.1,1.5,0.6c0.7,0.9,1.1,0.2,1.6-0.2c1.8-1.4,2.5-1.4,4,0.3
	c1.3,1.5,1.5,0,2.1-0.6c0.3-0.3,0.3-1,1-0.7C66,45.4,65.9,45.9,65.8,46.5z M65.2,54c-0.1,0-0.1-0.1-0.2-0.1
	C65.1,53.9,65.1,53.9,65.2,54c0.1,0.7-0.3,1.4,0.6,1.8C66.3,54.9,67,54.1,65.2,54z M62.5,49.7c0-0.2,0-0.4,0-0.7
	c-0.1-1.5-1.6-1.8-2.4-2.7c-0.3-0.3-1.1,1-1.5,1.6c-0.7,0.9-1.3,1.8-2.2,2.6c-1.9,1.6-2.2,3.8-0.9,5.9c0.9,1.6,1.5,3.3,1.6,5.1
	c0.2,2,1,3.8,1.5,5.8c0.1,0.6,0.5,1.2,1.2,1.2c0.6,0,0.7-0.7,0.8-1.2C61.2,61.4,61.8,55.6,62.5,49.7z M63.4,54.5
	c-0.5,0.7-0.6,1.3-0.2,2c0.1,0.2,0.5,0.3,0.6,0C64.1,55.8,63.9,55.1,63.4,54.5z M64.5,53.3c0.4-0.9,0.2-1.3-0.4-1.8
	C64,52.1,64.1,52.6,64.5,53.3z M66.4,52.3c-0.3,0.1-0.4,0.4-0.3,0.6c0.1,0.2,0.3,0.4,0.4,0.4c0.3-0.1,0.3-0.4,0.2-0.6
	C66.8,52.4,66.7,52.2,66.4,52.3z"/>
<path class="st0" d="M51.6,77.6c-0.1,0.9-0.5,1.6-0.9,2.4c-0.1,0.2-0.2,0.4-0.2,0.5c-0.3,0.8-0.4,1.8-1.6,1.7
	c-0.1-0.3,0.1-0.8-0.4-0.7c-0.4,0.1-0.4,0.6-0.4,1c-0.2,0.4-0.3,0.8-0.5,1c-0.5,0.5-0.9,1.4-1.7,1.2c-1-0.2-0.9-1.2-1-2
	c-0.2-0.9,0-1.9-1.3-2.3c-0.6-0.2-0.7-1.2-0.8-2c-0.3-1.6-0.6-3.1-1.4-4.8c-0.5,1.7-1,3.1-1.5,4.6c-0.1,0.4-0.2,0.8-0.7,0.8
	c-0.5,0-0.6-0.5-0.7-0.8c-0.4-1.5-0.8-2.9-1.6-4.4c-0.8,0.9-0.1,2.1-0.7,3c-0.4,0.6-0.6,1.5-1.5,1.3c-1-0.2-0.5-1.1-0.6-1.6
	c-0.1-0.5,0-0.9,0-1.4c0.9-0.6,0.8-1.6,0.9-2.5c0.1-1.5-0.5-3,0.4-4.4c0.8,0.7,0.9,1.8,1.9,2.4c0.8,0.5,1.1,1.7,1.8,2.8
	c0.5-1.3,0.6-2.6,1.7-3.5c2,3.1,3.9,6.1,6.1,9.6c0-1.9,0-3.3,0-4.9c2.3,1.2,1.3,3.3,1.9,5.2c0.6-1.2,1.1-2,1.5-2.8
	C50.7,77.3,51.2,77.4,51.6,77.6z"/>
<path class="st0" d="M91.8,69.3c-0.4,1.3-0.3,2.7-1.1,3.8c-0.8-0.1-0.7-0.7-0.7-1.1c0.2-2.6,0.3-5.2,0.8-7.7c0.5-2.4,1.3,0.2,2,0
	c0.6-1,0.2-2.9,2-2.9c1.2,0,1.1,1.7,2,2.5c0.4-0.7,0.8-1.4,1.2-2.1c0.3-0.4,0.6-0.7,1.2-0.5c0.7,0.3,0.6,0.9,0.4,1.3
	c-0.3,0.9-0.5,1.9-1.1,2.7c-1.7,2.3-1.6,3.1-3.5,0.3c-0.3,1.5-0.5,2.9-0.8,4.3c-0.1,0.6-0.2,1.3-1,1.3c-1,0.1-0.6-0.8-0.8-1.3
	C92.2,69.7,92,69.5,91.8,69.3z"/>
<path class="st1" d="M52.8,26.4c-0.5-5.1-3.4-9.1-6.3-13.2c-0.7,1.8-0.7,1.8,0.3,4.4c-2.9-2.4-6.4-2-9-4c1.8,0.1,3.7-0.9,5.4,0.3
	c0.4,0.2,0.6,0.5,1,0c0.3-0.4,0-0.7-0.2-1c-0.5-0.8-2.1-1.6-1.4-2.5c0.6-0.7,1.4,1.1,2.3,1.3c5.7,1.4,6.4,6.6,8.2,10.8
	C53.8,23.7,54.6,25.4,52.8,26.4C52.8,26.4,52.8,26.4,52.8,26.4z"/>
<path class="st1" d="M74.9,17.3c1.4-0.6,2.5-1.9,4.3-1.7c-3.5,2.7-6.1,6.1-8.5,9.7c-0.2-1.8,0.6-3.2,1.4-4.4c0.7-1,0.5-2,0.1-2.7
	c-1.7-2.8-0.7-5.8-1.1-9.2c1.6,1.2,1.7,2.4,1.7,3.6c0,1.2,0,2.5,0.3,3.8c0.4-0.7,0.8-1.5,1.2-2.2c0.6-1,1.3-2,2.4-2.6
	c0.5-0.2,1.1-0.4,1.5,0.1c0.5,0.7-0.4,0.8-0.7,1.1c-1.4,1.1-2.3,2.5-2.9,4.2c-0.1,0.2-0.5,0.2-0.3,0.5
	C74.4,17.7,74.7,17.6,74.9,17.3z"/>
<path class="st0" d="M105.6,54.4c0,0.3,0,0.9-0.1,0.9c-2.2,0.4-1.6,2.2-1.9,3.5c-0.3,1.3-0.1,2.7-1.6,3.6c-0.5,0.3-0.3,1.5-0.6,2.2
	c-0.1,0.4-0.3,0.9-0.8,0.7c-0.2-0.1-0.5-0.5-0.5-0.8c-0.1-1-0.2-2-0.1-3c0.1-1,0.1-1.9-0.9-2.5c-0.3-0.2-0.7-0.5-0.4-1
	c0.2-0.3,0.6-0.3,0.9-0.3c1.9,0.3,2.6-0.6,2.7-2.4c0.1-1.7,0.8-2.5,2.5-1.5C105,54.4,105.3,54.4,105.6,54.4z"/>
<path class="st0" d="M25.5,62.1c1.2-0.5,1.3,0.6,1.5,1.2c0.4,1.2,0.5,2.4,0.8,3.7c0.7,0,0.6-1.4,1.5-0.9c0.7,0.4,0.3,1.2,0.3,1.9
	c-0.1,1.3-0.5,2.5-1.1,3.6c-0.3,0.7-0.7,1.6-1.7,1.4c-1-0.2-0.9-1.2-0.8-2c0.3-2,0.2-4,0.1-6C25.9,64,25.7,63.1,25.5,62.1z"/>
<path class="st1" d="M35.3,68.3c-1,1.4-0.3,2.9-0.4,4.4c-0.1,0.9,0,1.8-0.9,2.5c-1.7-0.7-1.9-2.4-2.3-3.9c-0.5-1.5-0.3-3.2-1.4-4.5
	C30,66.5,30,66.2,30.3,66c0.4-0.2,0.9-0.1,1.1,0.3C32.1,68.1,33.7,68.1,35.3,68.3z"/>
<path class="st1" d="M66.4,9.5c0-0.3,0-0.7,0-1.1c0-0.3,0-0.7,0.4-0.8c0.5-0.1,0.7,0.3,0.8,0.7c0.8,2.7,1.2,5.4,1.7,8.2
	c0.1,0.4,0.2,1-0.5,1.1c-0.5,0.1-0.8-0.4-1-0.8C66.7,14.4,66.6,12,66.4,9.5z"/>
<path class="st1" d="M105.6,54.4c-0.3,0-0.6,0-0.8-0.3c-0.2-1.5-0.9-2.7-1.4-4.1c-0.2-0.5-0.3-0.9,0.1-1.3c0.5-0.4,0.8,0,1.2,0.2
	c0.9,0.6,1.9,1,2.7,1.6c0.7,0.4,1.4,1.1,0.9,2c-0.5,0.9-1.2-0.1-1.8-0.3C106.2,53,106.9,54.1,105.6,54.4z"/>
<path class="st1" d="M99.9,26c2.6-1.3,5.3-1.3,8-0.8c0.5,0.1,0.9,0.4,0.9,0.9c0,0.6-0.5,0.7-1,0.7C105.1,26.7,102.5,26.9,99.9,26z"
	/>
<path class="st1" d="M58.3,21.4c1.8,1.6,2.2,3.8,2.7,5.9c0.2,1.2,0.7,3.6,0,3.6c-1.4,0-1.2-2-1.5-3.2C58.9,25.7,58.2,23.6,58.3,21.4
	z"/>
<path class="st1" d="M66.2,21.8c0.4,0.6,0.1,1.1-0.1,1.7c-0.9,2.2-1.8,4.4-2.3,6.7c-0.1,0.3-0.1,0.9-0.6,0.9c-0.4,0-0.5-0.4-0.6-0.7
	C62.1,28.4,64.5,22.8,66.2,21.8z"/>
<path class="st1" d="M52.7,7.3c2.3,1.2,3.7,3.2,5,5.2c0.3,0.4,0.2,0.9-0.2,1.2c-0.4,0.3-0.8,0.2-1.1-0.1
	C54.6,11.8,53.2,9.9,52.7,7.3z"/>
<path class="st0" d="M61.2,14.7c-0.1,0.6,0.1,1.1-0.4,1.3c-0.5,0.2-0.9-0.2-1.1-0.6c-0.9-1.9-1.4-3.9-1.7-5.9c0-0.4-0.1-0.9,0.4-1
	c0.5-0.1,0.7,0.3,0.9,0.6C60.4,10.9,60.7,12.9,61.2,14.7z"/>
<path class="st1" d="M48.2,50.5c1.8-2.6,3.7-5.2,4.6-8.9C53.6,45.1,51.5,49.1,48.2,50.5z"/>
<path class="st1" d="M16.8,30.9c1.8-2.6,6.3-2.7,8.1-0.3c0.2,0.3,0.5,0.6,0.2,0.9c-0.1,0.1-0.6,0.2-0.7,0.1
	C22,29.7,19.5,30.3,16.8,30.9z"/>
<path class="st1" d="M48.6,43.5c-0.1,1.8-3,4.9-4.8,5.2c-0.3,0.1-0.7,0.1-0.8-0.3c-0.1-0.4,0.1-0.7,0.4-0.8c1.9-1,3.3-2.4,4.1-4.4
	c0.1-0.3,0.4-0.6,0.8-0.5C48.5,42.7,48.6,43,48.6,43.5z"/>
<path class="st0" d="M25.3,65.3c0,0.9,0.4,2.3-0.6,2.4c-1.2,0.1-1.1-1.4-1.1-2.3c0-1,0-2.1,0-3.2c0.1-0.7,0-1.7,0.9-1.8
	c1-0.1,0.7,1,0.9,1.6C25.1,63.2,25.2,64.2,25.3,65.3z"/>
<path class="st1" d="M73,49.2c-0.4-2.3-1.8-4.6,0.2-6.9c0.2,0.3-0.1,0.8,0.4,1c0.2,0.1,0.4,0.6,0.4,0.6C72.2,45.5,74.5,47.6,73,49.2
	z"/>
<path class="st1" d="M27,28.2c-2-1.8-4.7-1.6-6.9-3.1C25.4,25.2,26.8,25.8,27,28.2z"/>
<path class="st1" d="M68.2,33.5c0.3,2.3,1.5,4.1,3.5,5.4c-1.5,0.3-2.4,0-3.1-1.2C67.8,36.4,67.2,35,68.2,33.5z"/>
<path class="st1" d="M107.6,46.3c0.4,0,0.8,0.1,1.1,0.1c-0.5,1-0.1,1.8,0.4,2.6c0.2,0.3,0.3,0.8-0.1,1.1c-0.4,0.3-0.8,0-1.1-0.3
	c-0.5-0.5-0.9-0.9-1.3-1.5c-0.4-0.5-1-1.1-0.8-1.7C106.1,45.8,107.1,46.8,107.6,46.3z"/>
<path class="st1" d="M75.3,43.4c1,2,2.2,3.2,3.4,4.4c0.2,0.2,0.5,0.6,0.3,0.9c-0.1,0.1-0.5,0.2-0.7,0.2
	C76.6,48.4,74.9,45.7,75.3,43.4z"/>
<path class="st0" d="M112.2,27.1c0.6,0.1,1.4,0.1,1.2,0.8c-0.4,1.3-1.6,1.4-2.7,1.6c-0.5,0.1-1.1-0.2-1-0.7
	C109.9,27.3,111.3,27.4,112.2,27.1z"/>
<path class="st1" d="M105.8,22.6c1.7-0.8,3.2-0.4,4.5,0.2c0.4,0.2,0.7,0.5,0.5,0.9c-0.2,0.3-0.6,0.3-0.9,0.3
	C108.7,23.6,107.2,23.7,105.8,22.6z"/>
<path class="st1" d="M94,16.2c-1.2,0.8-2.3,1.6-3.5,2.4c-0.2,0.2-0.5,0.2-0.7,0c-0.3-0.3-0.2-0.6,0-0.9C90.8,16.6,92.1,15.9,94,16.2
	z"/>
<path class="st1" d="M96.2,19.5c-1.3,0.6-2.7,1.2-4,1.8c-0.1-0.2-0.2-0.4-0.3-0.6C93,19.5,94.4,18.9,96.2,19.5z"/>
<path class="st1" d="M41.2,44.7c0.6,0,0.9,0.2,0.7,0.6c-0.4,0.9-1.1,1.3-2,1.4c-0.5,0-0.8-0.3-0.6-0.7
	C39.6,45.1,40.7,45.2,41.2,44.7z"/>
<path class="st1" d="M29.2,34c1.4,0.3,2.3,0.4,2.7,1.4c0.1,0.2-0.2,0.5-0.5,0.5C30.3,36,29.7,35.4,29.2,34z"/>
<path class="st1" d="M91.3,46.1c-0.5-0.2-1.2-0.3-1.2-1c0-0.5,0.7-0.6,1.1-0.5c0.5,0.1,1.1,0.2,1.1,0.9C92.3,46,91.9,46.1,91.3,46.1
	z"/>
<path class="st1" d="M92.5,37c-0.1-0.6,0.1-1.1,0.7-1.4c0.8,0.3,1.7,0.2,2.4,1C94.5,37.4,93.3,36.3,92.5,37z"/>
<path class="st1" d="M82.7,49.1c0.8,0.5,1.4,1,1.6,2.2C83,50.9,82.5,50.2,82.7,49.1z"/>
<path class="st1" d="M33.3,38.6c-0.1,0.7-0.5,0.9-1,0.8c-0.5-0.1-1.1-0.2-1.1-0.9c0.1-0.5,0.7-0.6,1.1-0.6
	C32.9,37.9,33.2,38.2,33.3,38.6z"/>
<path class="st1" d="M86.6,47.6c0.7,0.2,1,0.8,1.2,1.4c0.1,0.3-0.1,0.6-0.4,0.5c-0.8-0.2-1.2-0.7-1.4-1.5
	C86,47.7,86.3,47.6,86.6,47.6z"/>
<path class="st1" d="M35.5,44.4c0.5,0.1,0.8,0.2,0.8,0.7c-0.1,0.6-0.5,0.9-1.1,0.9c-0.5,0-1-0.2-0.9-0.8
	C34.5,44.6,35,44.5,35.5,44.4z"/>
<path class="st1" d="M51.6,77.6c-0.5-0.2-0.9-0.3-1.4-0.5c0.3-1.1,1-1,1.8-0.7c0,0.4,0,0.7,0,1.1C51.9,77.5,51.7,77.5,51.6,77.6z"/>
<path class="st1" d="M25.3,65.3c-0.1-1.1-0.2-2.1,0.1-3.2c0,0,0.1,0,0.1,0c0.2,1,0.4,1.9,0.6,2.9C25.8,65.1,25.5,65.2,25.3,65.3z"/>
<path class="st1" d="M48.1,82.5c0-0.4,0-0.9,0.4-1c0.4-0.1,0.3,0.4,0.4,0.7C48.6,82.3,48.3,82.4,48.1,82.5z"/>
<path class="st1" d="M109.6,46.3c0.2-0.1,0.4-0.2,0.5-0.2C109.9,46.1,109.7,46.2,109.6,46.3z"/>
<path class="st1" d="M50.5,80.5c0.1-0.2,0.2-0.4,0.2-0.5C50.6,80.2,50.5,80.3,50.5,80.5z"/>
<path class="st1" d="M107.9,45.1c-0.1,0.2-0.1,0.5-0.2,0.7C107.4,45.5,107.6,45.3,107.9,45.1z"/>
<path class="st1" d="M71.6,33.8c0.1-0.3,0.3-0.5,0.4-0.8c0.5-1.6,0.7-3.5,3-3.5c-0.2,0.7,2.8,1.3,0.1,2.1c-0.6-0.5-0.8-0.2-0.9,0.4
	c0,0,0,0,0,0c-1.7,0.1-1,2.3-2.3,2.8C71.6,34.6,71.6,34.3,71.6,33.8z"/>
<path class="st1" d="M65.2,54c1.8,0.1,1.1,0.9,0.6,1.8C64.9,55.4,65.3,54.6,65.2,54L65.2,54z"/>
<path class="st1" d="M64.5,53.3c-0.4-0.6-0.5-1.1-0.4-1.8C64.7,52,64.9,52.4,64.5,53.3z"/>
<path class="st1" d="M66.4,52.3c0.3-0.1,0.3,0.1,0.3,0.3c0,0.2,0.1,0.6-0.2,0.6c-0.1,0-0.3-0.2-0.4-0.4C66,52.7,66.2,52.4,66.4,52.3
	z"/>
<path class="st1" d="M65.2,54c0-0.1-0.1-0.1-0.1-0.2C65.1,53.9,65.1,53.9,65.2,54C65.2,54,65.2,54,65.2,54z"/>
<path class="st0" d="M81.1,35.1c0-0.7-0.8-1.2-0.2-1.7c0.5-0.4,1.2-0.3,1.7-0.1c1.3,0.4,2.2,1.2,2.2,2.7c0,1.8-1,2.9-2.7,3.2
	c-1.5,0.3-2.4-0.5-3.1-1.6C78.2,36.1,79,35.1,81.1,35.1z"/>
<path class="st0" d="M45.3,35.1c-0.2,1.2-1,2.2-2.5,2.5c-1.5,0.3-3.2-0.7-3.6-2.2c-0.4-1.5,0.2-2.7,1.3-3.7c0.5-0.4,0.8-0.1,1.1,0.3
	c0.3,0.4,0.9,0.5,1.1-0.1c0.9-1.7,1.3-0.5,1.8,0.2C45,33.1,45.3,33.9,45.3,35.1z"/>
</svg>
